<svg id="Layer_3" data-name="Layer 3" xmlns="http://www.w3.org/2000/svg" xmlns:xlink="http://www.w3.org/1999/xlink" viewBox="0 0 292.11 241.73"><defs><style>.cls-1,.cls-11,.cls-19,.cls-23,.cls-26{fill:#fff;}.cls-18,.cls-2,.cls-20,.cls-29,.cls-30,.cls-33,.cls-34,.cls-35,.cls-36,.cls-37,.cls-38,.cls-39,.cls-40{fill:#231f20;}.cls-10,.cls-25,.cls-27,.cls-28,.cls-3,.cls-32,.cls-4,.cls-7,.cls-8,.cls-9{fill:none;}.cls-31,.cls-32,.cls-4{stroke:#000;}.cls-4{stroke-width:0.72px;}.cls-14,.cls-5{fill:#1a1a1a;}.cls-6{fill:#008cff;}.cls-14,.cls-22,.cls-23,.cls-24,.cls-26,.cls-27,.cls-7,.cls-9{stroke:#f2f2f2;}.cls-25,.cls-28,.cls-8{stroke:#231f20;}.cls-24,.cls-8{stroke-width:0.04px;}.cls-14,.cls-25,.cls-26,.cls-9{stroke-width:0.5px;}.cls-10,.cls-12,.cls-30{stroke:#fff;}.cls-10,.cls-12{stroke-width:0.41px;}.cls-11{font-size:6px;}.cls-11,.cls-18,.cls-19,.cls-20,.cls-29,.cls-33,.cls-34,.cls-35,.cls-36,.cls-37,.cls-38,.cls-39,.cls-40{font-family:Helvetica;}.cls-11,.cls-33,.cls-34,.cls-35,.cls-36,.cls-37,.cls-38,.cls-39,.cls-40{font-weight:700;}.cls-12{fill:url(#_10_lpi-10_);}.cls-13,.cls-22{fill:url(#_10_lpi-10_3);}.cls-15{clip-path:url(#clip-path);}.cls-16{clip-path:url(#clip-path-2);}.cls-17{fill:#0076ab;}.cls-18,.cls-19,.cls-29{font-size:4.17px;}.cls-20{font-size:4.17px;}.cls-21{fill:url(#_10_lpi-10_5);}.cls-22{stroke-miterlimit:10;}.cls-24{fill:#009d80;}.cls-27,.cls-28,.cls-31{stroke-width:0.25px;}.cls-29{white-space:pre;}.cls-32{stroke-width:0.1px;stroke-dasharray:1 0.5;}.cls-33{font-size:6.77px;}.cls-34{font-size:8.71px;}.cls-35{font-size:8.41px;}.cls-36{font-size:7.93px;}.cls-37{font-size:7.13px;}.cls-38{font-size:9.22px;}.cls-39{font-size:8.1px;}.cls-40{font-size:9.08px;}</style><pattern id="_10_lpi-10_" data-name="*10 lpi-10%" width="72" height="72" patternTransform="translate(0.64 -78.95) rotate(-45) scale(0.2)" patternUnits="userSpaceOnUse" viewBox="0 0 72 72"><rect class="cls-3" width="72" height="72"/><line class="cls-4" x1="-0.25" y1="68.4" x2="72.25" y2="68.4"/><line class="cls-4" x1="-0.25" y1="54" x2="72.25" y2="54"/><line class="cls-4" x1="-0.25" y1="39.6" x2="72.25" y2="39.6"/><line class="cls-4" x1="-0.25" y1="25.2" x2="72.25" y2="25.2"/><line class="cls-4" x1="-0.25" y1="10.8" x2="72.25" y2="10.8"/><line class="cls-4" x1="-20" y1="10.8" x2="-6" y2="10.8"/><line class="cls-4" x1="-0.25" y1="61.2" x2="72.25" y2="61.2"/><line class="cls-4" x1="-0.25" y1="46.8" x2="72.25" y2="46.8"/><line class="cls-4" x1="-0.25" y1="32.4" x2="72.25" y2="32.4"/><line class="cls-4" x1="-0.25" y1="18" x2="72.25" y2="18"/><line class="cls-4" x1="-0.25" y1="3.6" x2="72.25" y2="3.6"/><line class="cls-4" x1="-20" y1="3.6" x2="-6" y2="3.6"/></pattern><pattern id="_10_lpi-10_3" data-name="*10 lpi-10%" width="72" height="72" patternTransform="translate(7.45 -27.86) rotate(-45) scale(0.5)" patternUnits="userSpaceOnUse" viewBox="0 0 72 72"><rect class="cls-3" width="72" height="72"/><line class="cls-4" x1="-0.25" y1="68.4" x2="72.25" y2="68.4"/><line class="cls-4" x1="-0.25" y1="54" x2="72.25" y2="54"/><line class="cls-4" x1="-0.25" y1="39.6" x2="72.25" y2="39.6"/><line class="cls-4" x1="-0.25" y1="25.2" x2="72.25" y2="25.2"/><line class="cls-4" x1="-0.25" y1="10.8" x2="72.25" y2="10.8"/><line class="cls-4" x1="-20" y1="10.8" x2="-6" y2="10.8"/><line class="cls-4" x1="-0.25" y1="61.2" x2="72.25" y2="61.2"/><line class="cls-4" x1="-0.25" y1="46.8" x2="72.25" y2="46.8"/><line class="cls-4" x1="-0.25" y1="32.4" x2="72.25" y2="32.4"/><line class="cls-4" x1="-0.25" y1="18" x2="72.25" y2="18"/><line class="cls-4" x1="-0.25" y1="3.6" x2="72.25" y2="3.6"/><line class="cls-4" x1="-20" y1="3.6" x2="-6" y2="3.6"/></pattern><clipPath id="clip-path" transform="translate(-3.94 -31.46)"><polygon class="cls-1" points="219.05 154.04 209.63 154.2 209.77 146.95 200.04 146.94 199.84 118.09 203.62 114.49 218.8 114.41 219.05 154.04"/></clipPath><clipPath id="clip-path-2" transform="translate(-3.94 -31.46)"><polygon class="cls-2" points="248.19 198.86 284.6 162.58 295 162.94 295.17 152.12 284.66 152.18 248.19 116.18 248.19 198.86"/></clipPath><pattern id="_10_lpi-10_5" data-name="*10 lpi-10%" width="72" height="72" patternTransform="translate(11.4 3.6) rotate(-45) scale(0.5)" patternUnits="userSpaceOnUse" viewBox="0 0 72 72"><rect class="cls-3" width="72" height="72"/><line class="cls-4" x1="-0.25" y1="68.4" x2="72.25" y2="68.4"/><line class="cls-4" x1="-0.25" y1="54" x2="72.25" y2="54"/><line class="cls-4" x1="-0.25" y1="39.6" x2="72.25" y2="39.6"/><line class="cls-4" x1="-0.25" y1="25.2" x2="72.25" y2="25.2"/><line class="cls-4" x1="-0.25" y1="10.8" x2="72.25" y2="10.8"/><line class="cls-4" x1="-20" y1="10.8" x2="-6" y2="10.8"/><line class="cls-4" x1="-0.25" y1="61.2" x2="72.25" y2="61.2"/><line class="cls-4" x1="-0.25" y1="46.8" x2="72.25" y2="46.8"/><line class="cls-4" x1="-0.25" y1="32.4" x2="72.25" y2="32.4"/><line class="cls-4" x1="-0.25" y1="18" x2="72.25" y2="18"/><line class="cls-4" x1="-0.25" y1="3.6" x2="72.25" y2="3.6"/><line class="cls-4" x1="-20" y1="3.6" x2="-6" y2="3.6"/></pattern></defs><title>alt2</title><polygon class="cls-5" points="90.73 40.76 93.75 43.57 93.64 48.06 68.08 74.54 63.05 74.54 60.8 71.22 90.73 40.76"/><polygon class="cls-5" points="103.61 27.41 117.06 27.38 117.06 54.54 150.78 54.74 151.07 75.01 139.39 75.18 138.56 75.8 134.97 75.73 134.88 68.54 102.8 68.49 102.7 39.68 103.06 36.95 103.91 36.89 103.61 27.41"/><polygon class="cls-5" points="177.44 27.38 187.08 27.19 187.31 38.79 189.03 40.66 188.97 69.27 150.99 69.03 150.78 54.74 177.44 27.38"/><polygon class="cls-6" points="199.54 83.07 215 83.06 214.89 122.79 205.82 122.5 205.96 115.54 196.06 115.54 196.06 86.54 199.54 83.07"/><polygon class="cls-5" points="259.91 204.35 259.96 214.1 234.26 240.01 224.1 240.12 197.72 214.15 197.72 203.7 223.58 177.69 244.01 177.54 243.99 188.64 259.91 204.35"/><polygon class="cls-7" points="197.72 203.7 197.72 214.15 224.1 240.12 234.26 240.01 259.96 214.1 259.91 204.35 243.99 188.64 244.01 177.54 223.58 177.69 197.72 203.7"/><rect class="cls-5" x="208.98" y="165.55" width="11.73" height="38.63" transform="translate(-71.74 174.6) rotate(-45)"/><polygon class="cls-5" points="181.41 148.66 181.41 157.93 164.66 157.93 164.66 148.62 181.41 148.62 181.41 148.66"/><rect class="cls-5" x="108.17" y="144.82" width="19.99" height="13.73"/><polygon class="cls-7" points="181.41 157.93 164.66 157.93 164.66 148.62 181.41 148.62 181.41 148.66 181.41 157.93"/><rect class="cls-7" x="208.98" y="165.55" width="11.73" height="38.63" transform="translate(-71.74 174.6) rotate(-45)"/><rect class="cls-7" x="108.17" y="144.82" width="19.99" height="13.73"/><line class="cls-7" x1="169.85" y1="148.66" x2="181.41" y2="148.66"/><circle class="cls-1" cx="68.3" cy="144.07" r="5.68"/><circle class="cls-1" cx="211.64" cy="154.31" r="5.68"/><polygon class="cls-5" points="164.46 136.38 160.85 136.45 160.7 136.45 130.67 136.45 126.95 136.38 126.71 136.09 164.68 136.17 164.46 136.38"/><polygon class="cls-5" points="150.73 148.03 149.9 148.27 149 148.57 148.17 148.69 147.14 148.82 146.21 148.87 145.29 148.88 144.37 148.79 143.34 148.6 142.37 148.46 141.56 148.27 140.66 147.97 139.66 147.61 138.77 147.21 137.92 146.79 137.08 146.2 136.32 145.69 135.55 145.05 134.7 144.16 133.85 143.35 133.09 142.55 132.2 141.78 131.36 140.94 130.53 139.99 129.63 139.09 128.8 138.38 128.03 137.61 126.95 136.38 130.67 136.45 160.7 136.45 160.85 136.45 164.46 136.38 163.55 137.25 162.89 137.91 161.93 138.74 160.98 139.69 160.15 140.53 159.98 140.72 159.14 141.66 158.18 142.49 157.35 143.33 156.39 144.28 155.68 145 154.85 145.71 153.95 146.37 153.18 146.79 152.46 147.26 151.56 147.68 150.73 148.03"/><polyline class="cls-8" points="159.98 140.72 160.15 140.53 160.98 139.69 161.93 138.74 162.89 137.91 163.55 137.25 164.46 136.38 164.68 136.17 126.71 136.09 126.95 136.38 128.03 137.61 128.8 138.38 129.63 139.09 130.53 139.99 131.36 140.94 132.2 141.78 133.09 142.55 133.85 143.35 134.7 144.16 135.55 145.05 136.32 145.69 137.08 146.2 137.92 146.79 138.77 147.21 139.66 147.61 140.66 147.97 141.56 148.27 142.37 148.46 143.34 148.6 144.37 148.79 145.29 148.88 146.21 148.87 147.14 148.82 148.17 148.69 149 148.57 149.9 148.27 150.73 148.03 151.56 147.68 152.46 147.26 153.18 146.79 153.95 146.37 154.85 145.71 155.68 145 156.39 144.28 157.35 143.33 158.18 142.49 159.14 141.66"/><polyline class="cls-9" points="164.88 136.37 164.51 136.38 164.46 136.38 160.85 136.45"/><polyline class="cls-9" points="126.48 136.37 126.61 136.37 126.95 136.38 130.67 136.45"/><polyline class="cls-9" points="164.52 136.37 164.51 136.38 163.38 137.44 162.72 138.1 161.77 138.93 160.82 139.89 159.98 140.72 159.14 141.66 158.97 141.85 158.02 142.69 157.18 143.52 156.23 144.48 155.51 145.19 154.68 145.9 153.78 146.56 153.01 146.98 152.3 147.46 151.4 147.87 150.57 148.23 149.73 148.47 148.84 148.77 148.01 148.89 146.98 149.01 146.04 149.07 145.13 149.07 144.21 148.99 143.18 148.8 142.2 148.66 141.39 148.47 140.5 148.17 139.5 147.81 138.6 147.4 137.76 146.98 136.92 146.4 136.16 145.89 135.39 145.24 134.54 144.36 133.69 143.54 132.93 142.75 132.03 141.97 131.2 141.14 130.37 140.19 129.47 139.29 128.64 138.58 127.86 137.8 126.61 136.37 126.54 136.29"/><polyline class="cls-9" points="130.67 136.45 160.7 136.45 160.85 136.45"/><polygon class="cls-5" points="135.06 68.45 134.97 75.81 134.86 76.02 106.33 75.81 102.7 72.18 102.75 68.34 135.06 68.45"/><circle class="cls-10" cx="183.92" cy="236.9" r="3.68"/><text class="cls-11" transform="translate(190.94 238.85)">North</text><path d="M185.49,270.12c0.06-1,.12-2.05.22-3.06a0.69,0.69,0,0,1,.47-0.44,0.66,0.66,0,0,1,.67.24,0.65,0.65,0,0,1,.1.46c0,0.35-.07.71-0.11,1,0.7-.73,1.46-1.56,2.16-2.26a0.84,0.84,0,0,1,.77,0,0.93,0.93,0,0,1,.33.48,0.81,0.81,0,0,1-.16.6l-1.56,1.54c-0.15.1-.25,0.3-0.42,0.4l-0.12.14c0.52,0.07,1.21-.38,1.64.09a0.61,0.61,0,0,1,.1.63,0.72,0.72,0,0,1-.28.33l-0.32.07-2.86.29A0.67,0.67,0,0,1,185.49,270.12Z" transform="translate(-3.94 -31.46)"/><circle class="cls-12" cx="106.97" cy="235.93" r="3.68"/><text class="cls-11" transform="translate(113.67 237.62)">Non-public areas</text><polygon class="cls-13" points="102.38 86.77 101.55 120.52 104.51 120.44 109.15 125.47 125.97 125.08 126.1 129.73 128.62 130.01 128.62 132.38 123.72 132.54 123.72 136.01 166.86 136.01 166.86 132.54 161.96 132.38 161.96 130.01 164.81 130.01 164.73 125.36 181.52 125.47 188.5 118.49 188.53 86.15 184.94 82.78 138.26 82.82 116.59 82.82 105.85 82.82 102.38 86.77"/><polygon class="cls-14" points="202.94 130.21 235 162.27 231.89 165.65 199.84 133.59 202.94 130.21"/><polygon class="cls-1" points="215.11 122.58 205.68 122.74 205.82 115.49 196.1 115.47 195.89 86.63 199.68 83.03 214.85 82.95 215.11 122.58"/><g class="cls-15"><line class="cls-1" x1="230.1" y1="85.1" x2="230.1" y2="112.79"/><line class="cls-1" x1="225.68" y1="80.68" x2="225.68" y2="108.37"/><line class="cls-1" x1="212.42" y1="67.42" x2="212.42" y2="95.11"/><line class="cls-1" x1="207.99" y1="62.99" x2="208" y2="90.68"/><line class="cls-1" x1="230.1" y1="93.94" x2="230.1" y2="121.63"/><line class="cls-1" x1="225.68" y1="89.52" x2="225.68" y2="117.21"/><line class="cls-1" x1="212.42" y1="76.26" x2="212.42" y2="103.95"/><line class="cls-1" x1="207.99" y1="71.84" x2="208" y2="99.53"/><line class="cls-1" x1="225.68" y1="98.36" x2="225.68" y2="126.05"/><line class="cls-1" x1="212.42" y1="85.1" x2="212.42" y2="112.79"/><line class="cls-1" x1="207.99" y1="80.68" x2="208" y2="108.37"/><line class="cls-1" x1="212.42" y1="93.94" x2="212.42" y2="121.63"/><line class="cls-1" x1="212.42" y1="102.79" x2="212.42" y2="130.48"/><line class="cls-1" x1="194.73" y1="85.1" x2="194.73" y2="112.79"/><line class="cls-1" x1="194.73" y1="93.94" x2="194.73" y2="121.63"/><line class="cls-1" x1="194.73" y1="102.79" x2="194.73" y2="130.48"/></g><polygon class="cls-5" points="193.98 48.78 222.6 77.92 194.13 77.76 193.98 48.78"/><polygon class="cls-5" points="97.74 48.93 97.58 77.91 69.11 78.07 97.74 48.93"/><polygon class="cls-9" points="97.74 48.93 69.11 78.07 97.58 77.91 97.74 48.93"/><polygon class="cls-9" points="193.98 48.78 222.6 77.92 194.13 77.76 193.98 48.78"/><polygon class="cls-14" points="223.64 74.33 221.25 77.11 195.75 49.94 197.5 48.18 223.64 74.33"/><polygon class="cls-5" points="233.02 132.12 233.18 161.1 204.55 131.96 233.02 132.12"/><polygon class="cls-9" points="233.18 161.1 204.55 131.96 233.02 132.12 233.18 161.1"/><polygon class="cls-2" points="244.25 167.4 280.66 131.12 291.06 131.47 291.22 120.66 280.71 120.71 244.25 84.72 244.25 167.4"/><g class="cls-16"><line class="cls-17" x1="259.16" y1="86.36" x2="259.16" y2="114.05"/><line class="cls-17" x1="245.89" y1="90.79" x2="245.9" y2="118.48"/><line class="cls-17" x1="241.47" y1="95.21" x2="241.48" y2="122.9"/><line class="cls-17" x1="241.47" y1="104.05" x2="241.48" y2="131.74"/><line class="cls-17" x1="228.21" y1="90.79" x2="228.21" y2="118.48"/><line class="cls-17" x1="241.47" y1="112.89" x2="241.48" y2="140.58"/><line class="cls-17" x1="228.21" y1="99.63" x2="228.21" y2="127.32"/><line class="cls-17" x1="241.47" y1="121.74" x2="241.48" y2="149.43"/><line class="cls-17" x1="228.21" y1="108.47" x2="228.21" y2="136.16"/><line class="cls-17" x1="241.47" y1="130.58" x2="241.48" y2="158.27"/><line class="cls-17" x1="228.21" y1="117.31" x2="228.21" y2="145.01"/><line class="cls-17" x1="223.79" y1="112.89" x2="223.79" y2="140.58"/><line class="cls-17" x1="245.89" y1="143.84" x2="245.9" y2="171.53"/><line class="cls-17" x1="228.21" y1="126.16" x2="228.21" y2="153.85"/><line class="cls-17" x1="228.21" y1="135" x2="228.21" y2="162.69"/><line class="cls-17" x1="228.21" y1="143.84" x2="228.21" y2="171.53"/><line class="cls-17" x1="210.52" y1="126.16" x2="210.52" y2="153.85"/></g><polygon class="cls-5" points="189.13 69.44 189.24 72.39 188.66 72.86 188.39 75.13 186.29 75.02 185.39 75.91 153.02 75.76 152.34 75.18 151.44 75.02 151.22 69.34 189.13 69.44"/><polygon class="cls-17" points="84.64 86.06 84.64 84.67 83.26 83.16 76.55 83.16 76.55 92.95 84.64 92.95 84.64 86.06"/><polygon class="cls-1" points="84.64 90.05 84.64 91.44 83.26 92.95 76.55 92.95 76.55 83.16 84.64 83.16 84.64 90.05"/><rect class="cls-1" x="76.36" y="114.77" width="9.08" height="7.76"/><text class="cls-18" transform="translate(84.21 52.39)">11</text><text class="cls-19" transform="translate(70.07 54.87)">14</text><text class="cls-18" transform="translate(64.35 71.44)">15</text><text class="cls-20" transform="matrix(1, 0.02, -0.02, 1, 79.56, 56.8)">12</text><text class="cls-18" transform="translate(88.1 47.73)">10</text><polygon class="cls-5" points="215.07 92.87 215.35 121.53 235.7 121.68 235.85 113.6 222.54 113.6 222.38 92.81 215.07 92.87"/><path class="cls-21" d="M209.24,229.77" transform="translate(-3.94 -31.46)"/><polygon class="cls-22" points="69.16 92.8 69.04 113.6 56.03 113.6 56.02 116.54 56.34 116.97 56.34 121.68 76.35 121.54 76.48 92.73 69.16 92.8"/><path class="cls-21" d="M63.12,230.2" transform="translate(-3.94 -31.46)"/><polygon class="cls-13" points="196.01 123.38 205.81 123.28 205.96 115.2 196.12 115.22 196.01 123.38"/><path class="cls-21" d="M179.35,231.37" transform="translate(-3.94 -31.46)"/><path class="cls-21" d="M68.59,230.92" transform="translate(-3.94 -31.46)"/><polygon class="cls-5" points="95.48 86.48 95.48 92.91 84.65 92.91 84.65 84.64 94.7 84.64 94.98 86.04 95.48 86.48"/><polygon class="cls-7" points="95.48 86.48 94.98 86.04 94.7 84.64 84.65 84.64 84.65 92.91 95.48 92.91 95.48 86.48"/><polygon class="cls-13" points="95.18 92.88 76.55 92.95 76.5 114.79 95.15 114.79 95.15 107.62 84.07 107.63 84.37 100.35 95.34 100.17 95.18 92.88"/><path class="cls-21" d="M47.09,170.69" transform="translate(-3.94 -31.46)"/><polygon class="cls-5" points="121.7 102.33 121.7 125.68 109.45 125.45 104.94 120.72 101.93 120.72 102.28 102.1 121.7 102.33"/><polygon class="cls-7" points="121.7 125.68 121.7 102.33 102.28 102.1 101.93 120.72 104.94 120.72 109.45 125.45 121.7 125.68"/><polygon class="cls-23" points="47.66 152.39 49.4 150.65 15.64 116.89 13.69 118.85 47.66 152.39"/><polygon class="cls-5" points="205.09 167.64 205.17 177.76 197.87 185.06 187.3 185.13 185.36 183.05 185.36 182.31 182.16 179.25 180.97 179.25 180.97 176.65 179.48 176.57 179.56 167.64 205.09 167.64"/><polygon class="cls-5" points="112.1 167.95 112.18 176.89 110.69 176.96 110.69 179.56 109.5 179.56 106.31 182.62 106.3 183.36 104.36 185.44 93.79 185.37 86.49 178.08 86.57 167.95 112.1 167.95"/><polygon class="cls-7" points="197.87 185.06 205.17 177.76 205.09 167.64 179.56 167.64 179.48 176.57 180.97 176.65 180.97 179.25 182.16 179.25 185.36 182.31 185.36 183.05 187.3 185.13 197.87 185.06"/><polygon class="cls-7" points="93.79 185.37 86.49 178.08 86.57 167.95 112.1 167.95 112.18 176.89 110.69 176.96 110.69 179.56 109.5 179.56 106.31 182.62 106.3 183.36 104.36 185.44 93.79 185.37"/><rect class="cls-5" x="68.68" y="177.37" width="39.02" height="14.63" transform="translate(-108.7 84.98) rotate(-45)"/><rect class="cls-5" x="83.04" y="161.81" width="13.32" height="7.37" transform="translate(-94.69 80.43) rotate(-45)"/><polygon class="cls-5" points="83.67 141.36 66.92 158.11 61.16 152.35 61.11 152.4 54.77 146.05 71.56 129.25 78.44 136.13 78.41 136.16 83.62 141.37 83.65 141.34 83.67 141.36"/><rect class="cls-5" x="84.95" y="166.53" width="0.04" height="7.37" transform="translate(-99.41 78.48) rotate(-45)"/><polygon class="cls-5" points="66.93 158.12 57.48 167.57 51.71 161.8 61.11 152.4 66.87 158.16 66.92 158.11 66.93 158.12"/><polygon class="cls-5" points="66.92 158.11 66.87 158.16 61.11 152.4 61.16 152.35 66.92 158.11"/><polygon class="cls-5" points="50.51 125.66 42.75 133.42 41.43 132.09 35.97 137.55 24.66 126.24 24.86 126.05 25.95 127.15 31.55 121.54 30.46 120.45 37.88 113.03 50.51 125.66"/><polygon class="cls-5" points="42.75 133.42 49.64 140.31 44.04 145.9 35.83 137.7 35.97 137.55 37.29 138.88 42.75 133.42"/><rect class="cls-5" x="26.9" y="127.19" width="27.83" height="6.22" transform="translate(-84.14 35.58) rotate(-45.01)"/><polygon class="cls-5" points="41.43 132.09 42.75 133.42 37.29 138.88 35.97 137.55 41.43 132.09"/><polygon class="cls-5" points="31.55 121.54 25.95 127.15 24.86 126.05 30.46 120.45 31.55 121.54"/><rect class="cls-5" x="24.09" y="146.12" width="7.92" height="10.06" transform="translate(-102.57 32.57) rotate(-44.97)"/><rect class="cls-7" x="68.68" y="177.37" width="39.02" height="14.63" transform="translate(-108.7 84.98) rotate(-45)"/><polyline class="cls-7" points="61.11 152.4 54.77 146.05 71.56 129.25 78.44 136.13"/><polyline class="cls-7" points="83.65 141.34 83.67 141.36 66.92 158.11"/><polygon class="cls-7" points="66.92 158.11 66.93 158.12 57.48 167.57 51.71 161.8 61.11 152.4 61.16 152.35 66.92 158.11"/><polyline class="cls-7" points="78.44 136.13 87.86 126.72 93.06 131.92 83.65 141.34"/><polyline class="cls-7" points="30.46 120.45 37.88 113.03 50.51 125.66 42.75 133.42"/><polyline class="cls-7" points="35.97 137.55 24.66 126.24 24.86 126.05"/><polygon class="cls-7" points="30.46 120.45 31.55 121.54 25.95 127.15 24.86 126.05 17.75 118.93 23.34 113.34 30.46 120.45"/><polygon class="cls-7" points="42.75 133.42 49.64 140.31 44.04 145.9 35.83 137.7 35.97 137.55 41.43 132.09 42.75 133.42"/><rect class="cls-7" x="26.9" y="127.19" width="27.83" height="6.22" transform="translate(-84.14 35.58) rotate(-45.01)"/><rect class="cls-24" x="126.71" y="136.09" width="37.9" height="0.01"/><circle class="cls-1" cx="145.42" cy="142.56" r="5.68"/><polyline class="cls-9" points="185.5 136.29 167.26 136.21 167.26 132.74"/><polygon class="cls-9" points="162.36 130.21 188.18 130.29 188.18 132.66 162.36 132.58 162.36 130.21"/><polyline class="cls-9" points="165.21 130.21 165.12 125.55 181.86 125.71 184.07 123.5"/><polyline class="cls-9" points="185.57 121.84 188.89 118.69 188.97 101.55"/><path class="cls-25" d="M192.6,147.7" transform="translate(-3.94 -31.46)"/><path class="cls-25" d="M192.68,140.83" transform="translate(-3.94 -31.46)"/><path class="cls-25" d="M192.91,134" transform="translate(-3.94 -31.46)"/><path class="cls-25" d="M180,157.17" transform="translate(-3.94 -31.46)"/><path class="cls-25" d="M163.3,147.62" transform="translate(-3.94 -31.46)"/><path class="cls-25" d="M171.75,154" transform="translate(-3.94 -31.46)"/><polyline class="cls-9" points="188.91 99.33 188.91 97.63 188.93 86.35 185.33 82.98 153.33 82.98 149.19 86.89 148.11 86.89"/><path class="cls-25" d="M192.85,129.1" transform="translate(-3.94 -31.46)"/><path class="cls-25" d="M183.08,114.47" transform="translate(-3.94 -31.46)"/><path class="cls-25" d="M155.64,129" transform="translate(-3.94 -31.46)"/><line class="cls-9" x1="148.95" y1="97.52" x2="148.89" y2="87.05"/><path class="cls-25" d="M192.62,129.27" transform="translate(-3.94 -31.46)"/><line class="cls-9" x1="142.57" y1="97.81" x2="142.63" y2="86.99"/><polyline class="cls-9" points="143.56 86.75 142.39 86.64 138.65 83.01 106.24 83.01 102.79 86.69 102.67 99.33"/><path class="cls-25" d="M143.76,129.1" transform="translate(-3.94 -31.46)"/><path class="cls-25" d="M127.15,114.59" transform="translate(-3.94 -31.46)"/><path class="cls-25" d="M127,129.27" transform="translate(-3.94 -31.46)"/><path class="cls-25" d="M114.28,120.67" transform="translate(-3.94 -31.46)"/><path class="cls-25" d="M106.73,129.16" transform="translate(-3.94 -31.46)"/><path class="cls-25" d="M106.67,120.67" transform="translate(-3.94 -31.46)"/><path class="cls-25" d="M119,114.59" transform="translate(-3.94 -31.46)"/><line class="cls-9" x1="102.38" y1="102.55" x2="118.99" y2="102.32"/><line class="cls-9" x1="121.74" y1="122.38" x2="121.98" y2="102.02"/><polyline class="cls-9" points="101.44 120.69 104.89 120.63 109.69 125.54 126.37 125.57"/><polyline class="cls-9" points="105.88 136.29 124.12 136.21 124.12 132.74"/><polygon class="cls-9" points="129.01 130.21 103.2 130.29 103.2 132.66 129.01 132.58 129.01 130.21"/><line class="cls-9" x1="126.33" y1="130.36" x2="126.37" y2="125.28"/><line class="cls-9" x1="76.34" y1="122.76" x2="76.61" y2="83.02"/><line class="cls-9" x1="76.18" y1="113.52" x2="55.86" y2="113.44"/><line class="cls-9" x1="76.18" y1="121.65" x2="56.33" y2="121.73"/><path class="cls-25" d="M60.6,158.45" transform="translate(-3.94 -31.46)"/><path class="cls-25" d="M60.48,163.77" transform="translate(-3.94 -31.46)"/><line class="cls-9" x1="67.75" y1="121.82" x2="67.79" y2="113.56"/><line class="cls-9" x1="55.96" y1="113.88" x2="55.96" y2="109.02"/><line class="cls-25" x1="55.86" y1="107.37" x2="55.96" y2="99.84"/><line class="cls-9" x1="56.12" y1="92.56" x2="76.65" y2="92.91"/><line class="cls-9" x1="69.04" y1="113.6" x2="69.08" y2="92.84"/><polyline class="cls-9" points="74.58 92.91 74.54 85.37 56.43 85.34"/><polyline class="cls-9" points="76.72 83.48 56.1 83.46 56.1 85.8"/><polyline class="cls-9" points="78.9 83.09 83.26 83.16 84.83 84.8 86.9 84.73"/><polyline class="cls-9" points="89.83 84.8 94.87 84.77 94.83 85.88 95.44 86.48 95.44 103.13 94.84 103.81 93.41 103.81"/><line class="cls-9" x1="95.34" y1="100.17" x2="87.01" y2="100.13"/><line class="cls-9" x1="93.37" y1="104.2" x2="93.37" y2="100.06"/><line class="cls-9" x1="95.44" y1="92.77" x2="76.54" y2="92.95"/><line class="cls-9" x1="84.65" y1="92.91" x2="84.83" y2="84.8"/><line class="cls-9" x1="84.19" y1="114.81" x2="84.26" y2="106.45"/><line class="cls-9" x1="76.47" y1="103.74" x2="84.48" y2="103.74"/><line class="cls-9" x1="84.33" y1="101.02" x2="84.3" y2="92.99"/><polygon class="cls-5" points="95.2 114.75 95.15 120.59 95.15 114.79 95.15 114.75 95.2 114.75"/><polygon class="cls-5" points="87.89 120.59 85.45 120.59 85.44 120.18 85.36 114.79 95.15 114.79 95.15 120.59 87.89 120.59"/><polygon class="cls-5" points="95.15 114.75 95.15 114.79 85.36 114.79 85.36 114.77 95.15 114.75"/><polygon class="cls-7" points="85.44 120.18 85.45 120.59 87.89 120.59 95.15 120.59 95.2 114.75 95.15 114.75 85.36 114.77 85.36 114.79 85.44 120.18"/><polyline class="cls-9" points="90.77 120.61 95.15 120.69 95.15 120.59 95.15 114.79 95.15 114.75 95.15 107.62 87.18 107.46"/><polyline class="cls-9" points="95.15 114.79 85.36 114.79 76.5 114.79"/><line class="cls-7" x1="85.44" y1="120.18" x2="85.46" y2="115.05"/><polyline class="cls-9" points="85.44 122.53 85.44 120.65 85.44 120.18"/><polyline class="cls-9" points="88.14 120.58 87.89 120.59 85.44 120.65 85.4 120.65"/><line class="cls-9" x1="85.9" y1="122.53" x2="79.45" y2="122.54"/><polyline class="cls-9" points="179.35 176.84 179.41 167.66 158.38 167.69"/><line class="cls-9" x1="56.18" y1="169.01" x2="95.16" y2="130.17"/><line class="cls-9" x1="234.25" y1="168.13" x2="197.3" y2="131.37"/><line class="cls-9" x1="253.45" y1="219.85" x2="246.13" y2="212.73"/><line class="cls-9" x1="258.6" y1="215.07" x2="253.63" y2="210.1"/><line class="cls-9" x1="248.94" y1="215.35" x2="251.57" y2="212.73"/><polyline class="cls-9" points="251.85 207.76 245.76 201.47 251.1 196.13"/><polygon class="cls-9" points="198.77 121.89 198.74 115.33 196.05 115.31 196.05 121.88 198.77 121.89"/><line class="cls-9" x1="200.98" y1="120.59" x2="198.8" y2="120.59"/><line class="cls-9" x1="203.55" y1="120.53" x2="206.04" y2="120.51"/><polyline class="cls-26" points="198.74 115.33 205.96 115.33 205.96 122.6 215.11 122.58 215.1 121.63 215.02 82.98"/><line class="cls-25" x1="221.07" y1="121.54" x2="215.11" y2="121.63"/><polyline class="cls-9" points="223.96 121.55 235.74 121.57 235.74 116.84"/><line class="cls-9" x1="235.76" y1="116.45" x2="235.76" y2="110.97"/><line class="cls-9" x1="235.93" y1="113.45" x2="215.11" y2="113.57"/><line class="cls-9" x1="235.7" y1="96.67" x2="235.7" y2="89.23"/><line class="cls-25" x1="235.85" y1="107.9" x2="235.85" y2="99.77"/><line class="cls-9" x1="214.91" y1="92.83" x2="235.87" y2="92.8"/><line class="cls-9" x1="222.36" y1="113.59" x2="222.39" y2="92.63"/><polyline class="cls-9" points="216.84 92.73 216.89 85.21 235.05 85.26 235.05 83.58 214.89 83.52"/><line class="cls-9" x1="195.73" y1="102.79" x2="215.05" y2="102.84"/><line class="cls-9" x1="195.94" y1="103.74" x2="196" y2="101.58"/><polyline class="cls-9" points="215.21 82.89 199.68 82.94 196.1 86.42 196.05 99.31"/><line class="cls-9" x1="178.39" y1="75.97" x2="177.44" y2="75.97"/><line class="cls-9" x1="174.91" y1="75.65" x2="163.23" y2="75.81"/><line class="cls-9" x1="160.94" y1="75.89" x2="159.76" y2="75.81"/><polyline class="cls-9" points="157.62 75.89 152.97 75.81 152.25 75.01"/><polyline class="cls-9" points="151.37 69.27 183.65 69.34 189.03 69.35 188.97 40.77 187.29 38.87 187.18 32.64 187.07 26.98 177.36 27.2 150.78 54.61"/><polyline class="cls-9" points="150.79 54.9 117.68 55.06 117.47 27.38 103.86 27.31 103.93 36.96 103.15 37.17 103.36 39.07 102.59 40.12 102.66 68.49 134.88 68.62 134.95 76.12 138.45 76.19 139.44 75.56 141.6 75.5 141.63 72.97 142.49 72.34 148.47 72.35 149.41 73.08 149.39 75.5 151.33 75.5 151.37 69.55"/><polyline class="cls-9" points="187.07 27.81 187.18 32.64 187.31 38.78 189.05 40.68 189.05 43.68"/><polyline class="cls-9" points="188.81 69.34 183.65 69.34 151.37 69.34 151.22 69.34"/><line class="cls-9" x1="188.97" y1="43.13" x2="187.78" y2="43.05"/><polyline class="cls-9" points="185.02 43.13 183.52 43.05 180.2 46.36"/><polyline class="cls-9" points="178.55 48.02 177.92 48.65 167.26 37.84"/><line class="cls-9" x1="183.52" y1="43.05" x2="172.94" y2="32.47"/><polyline class="cls-9" points="176.1 50.47 169.07 57.49 158.33 46.6"/><polyline class="cls-9" points="167.41 59.15 162.12 64.13 151.39 64.13"/><line class="cls-9" x1="151.23" y1="75.18" x2="150.52" y2="54.73"/><polyline class="cls-9" points="188.73 47.94 184.47 47.94 181.78 50.47 181.7 53.7"/><line class="cls-9" x1="181.55" y1="56.39" x2="188.97" y2="56.55"/><line class="cls-9" x1="176.1" y1="69.1" x2="176.02" y2="61.92"/><polyline class="cls-9" points="167.49 69.34 167.73 64.36 170.34 61.76 173.26 61.84"/><line class="cls-9" x1="151.23" y1="63.34" x2="143.02" y2="63.34"/><line class="cls-9" x1="140.25" y1="63.42" x2="140.33" y2="55.13"/><polyline class="cls-9" points="137.49 63.34 131.01 63.34 131.09 55.2"/><line class="cls-9" x1="128.65" y1="63.34" x2="120.44" y2="63.34"/><line class="cls-9" x1="122.25" y1="63.26" x2="122.33" y2="55.28"/><polyline class="cls-9" points="102.59 65.71 102.59 39.81 103.38 38.86 103.22 36.97 103.93 36.89 103.93 27.89"/><line class="cls-9" x1="117.04" y1="55.36" x2="102.43" y2="55.44"/><polyline class="cls-9" points="114.59 34.6 114.04 34.52 114.2 37.84 103.38 37.91"/><polyline class="cls-9" points="68.72 73.15 67.77 74 63.46 74 60.83 71.26"/><line class="cls-9" x1="77.67" y1="64.21" x2="84.04" y2="57.84"/><polyline class="cls-9" points="92.88 48.89 93.67 48.1 93.83 43.73 91.04 41.05"/><polyline class="cls-25" points="250.31 121.11 247.96 123.46 247.89 125.35 254.63 131.94"/><line class="cls-25" x1="244.25" y1="131.11" x2="244.25" y2="117.47"/><line class="cls-25" x1="244.25" y1="112.92" x2="244.33" y2="89.05"/><line class="cls-25" x1="259.6" y1="112.61" x2="266.04" y2="106.17"/><line class="cls-25" x1="262.59" y1="108.98" x2="270.01" y2="116.56"/><line class="cls-25" x1="259.74" y1="123.81" x2="255.95" y2="120.03"/><line class="cls-25" x1="260.77" y1="110.65" x2="258.87" y2="108.75"/><polyline class="cls-25" points="248.26 106.03 256.22 105.95 258.95 103.22 258.95 102.62"/><polyline class="cls-25" points="258.95 100.49 258.95 99.89 252.28 93.22 249.55 95.95 248.49 95.95"/><line class="cls-25" x1="245.84" y1="106.03" x2="244.25" y2="106.1"/><line class="cls-25" x1="245.92" y1="95.95" x2="244.48" y2="95.87"/><polyline class="cls-9" points="143.57 72.1 142.46 72.1 141.59 72.71 141.59 75.18 139.46 75.26 138.67 75.89 131.79 75.9"/><line class="cls-9" x1="129.35" y1="75.89" x2="128.25" y2="75.89"/><line class="cls-9" x1="126.04" y1="75.89" x2="118.94" y2="75.73"/><line class="cls-9" x1="113.72" y1="75.89" x2="109.7" y2="75.97"/><polyline class="cls-9" points="102.59 68.23 102.59 72.18 106.3 75.89 107.25 75.89"/><line class="cls-9" x1="116.78" y1="75.84" x2="116.04" y2="75.84"/><line class="cls-9" x1="85.63" y1="56.29" x2="86.52" y2="55.31"/><line class="cls-9" x1="88.18" y1="53.64" x2="91.27" y2="50.45"/><line class="cls-9" x1="70.34" y1="71.48" x2="73.53" y2="68.39"/><line class="cls-9" x1="75.1" y1="66.82" x2="76.08" y2="65.74"/><path class="cls-9" d="M117.51,58.94a32.53,32.53,0,0,1,64.24.18" transform="translate(-3.94 -31.46)"/><polyline class="cls-9" points="197.42 214.27 158.07 214.27 158.21 224.81 151.04 231.98 140.5 231.84 133.48 224.81 133.34 214.27 93.99 214.27 93.99 203.87 67.99 177.87"/><polyline class="cls-9" points="147.44 72.08 148.54 72.08 149.41 72.69 149.41 75.16 152.67 75.18"/><polyline class="cls-9" points="235.85 89.03 235.7 89.03 223.81 89.04"/><rect class="cls-27" x="233.46" y="85.27" width="1.58" height="3.72"/><rect class="cls-27" x="231.89" y="85.28" width="1.58" height="3.72"/><rect class="cls-27" x="230.29" y="85.35" width="1.58" height="3.72"/><rect class="cls-27" x="228.69" y="85.31" width="1.58" height="3.72"/><rect class="cls-27" x="227.09" y="85.31" width="1.58" height="3.72"/><rect class="cls-27" x="225.49" y="85.31" width="1.58" height="3.72"/><rect class="cls-27" x="223.89" y="85.31" width="1.58" height="3.72"/><rect class="cls-27" x="227.13" y="89.08" width="1.58" height="3.77"/><rect class="cls-27" x="225.53" y="89.08" width="1.58" height="3.77"/><rect class="cls-27" x="223.93" y="89.08" width="1.58" height="3.77"/><line class="cls-9" x1="228.71" y1="89.08" x2="230.82" y2="92.71"/><polyline class="cls-9" points="134.53 176.91 110.82 176.97 110.76 179.54 109.64 179.6 106.09 183.15"/><polyline class="cls-9" points="157.3 176.61 180.88 176.68 180.95 179.24 182.06 179.31 185.61 182.85"/><polyline class="cls-9" points="116.15 172.33 132.73 172.33 132.72 167.95"/><polyline class="cls-9" points="112.14 177 112.08 167.83 132.81 167.86"/><rect class="cls-27" x="131.07" y="172.34" width="1.67" height="4.58"/><rect class="cls-27" x="129.4" y="172.34" width="1.67" height="4.58"/><rect class="cls-27" x="127.74" y="172.34" width="1.67" height="4.58"/><rect class="cls-27" x="126.07" y="172.34" width="1.67" height="4.58"/><rect class="cls-27" x="124.4" y="172.34" width="1.67" height="4.58"/><rect class="cls-27" x="122.73" y="172.34" width="1.67" height="4.58"/><rect class="cls-27" x="121.06" y="172.34" width="1.67" height="4.58"/><rect class="cls-27" x="119.39" y="172.34" width="1.67" height="4.58"/><rect class="cls-27" x="117.73" y="172.34" width="1.67" height="4.58"/><rect class="cls-27" x="116.06" y="172.34" width="1.67" height="4.58"/><polyline class="cls-27" points="126.07 167.85 124.4 167.85 124.4 172.43 126.07 172.43"/><rect class="cls-27" x="122.73" y="167.85" width="1.67" height="4.58"/><rect class="cls-27" x="121.06" y="167.85" width="1.67" height="4.58"/><rect class="cls-27" x="119.39" y="167.85" width="1.67" height="4.58"/><rect class="cls-27" x="117.73" y="167.85" width="1.67" height="4.58"/><rect class="cls-27" x="116.06" y="167.85" width="1.67" height="4.58"/><line class="cls-9" x1="124.54" y1="167.95" x2="126.15" y2="172.29"/><line class="cls-9" x1="114.83" y1="176.94" x2="112.34" y2="183.34"/><line class="cls-9" x1="170.99" y1="132.66" x2="169.81" y2="136.12"/><line class="cls-9" x1="120.33" y1="132.69" x2="121.51" y2="136.15"/><line class="cls-9" x1="56.18" y1="96.93" x2="56.18" y2="88.8"/><polyline class="cls-9" points="56.03 89.01 56.18 89.01 68.08 89.03"/><rect class="cls-27" x="56.84" y="85.25" width="1.58" height="3.72"/><rect class="cls-27" x="58.41" y="85.26" width="1.58" height="3.72"/><rect class="cls-27" x="60.01" y="85.34" width="1.58" height="3.72"/><rect class="cls-27" x="61.61" y="85.29" width="1.58" height="3.72"/><rect class="cls-27" x="63.21" y="85.29" width="1.58" height="3.72"/><rect class="cls-27" x="64.81" y="85.29" width="1.58" height="3.72"/><rect class="cls-27" x="66.41" y="85.29" width="1.58" height="3.72"/><rect class="cls-27" x="63.17" y="89.07" width="1.58" height="3.77"/><rect class="cls-27" x="64.77" y="89.07" width="1.58" height="3.77"/><rect class="cls-27" x="66.37" y="89.07" width="1.58" height="3.77"/><line class="cls-9" x1="63.17" y1="89.07" x2="61.07" y2="92.7"/><line class="cls-27" x1="114.83" y1="177.04" x2="114.83" y2="183.13"/><line class="cls-28" x1="116.79" y1="177.04" x2="116.79" y2="183.13"/><line class="cls-27" x1="118.75" y1="177.04" x2="118.75" y2="183.13"/><line class="cls-27" x1="120.72" y1="177.04" x2="120.72" y2="183.13"/><line class="cls-27" x1="122.68" y1="177.04" x2="122.68" y2="183.13"/><line class="cls-27" x1="124.65" y1="177.04" x2="124.65" y2="183.13"/><line class="cls-27" x1="126.61" y1="177.04" x2="126.61" y2="183.13"/><line class="cls-27" x1="128.57" y1="177.04" x2="128.57" y2="183.13"/><line class="cls-27" x1="130.53" y1="177.04" x2="130.53" y2="183.13"/><line class="cls-27" x1="132.5" y1="177.04" x2="132.5" y2="183.13"/><line class="cls-27" x1="134.46" y1="177.04" x2="134.46" y2="183.13"/><line class="cls-27" x1="116.83" y1="177.04" x2="116.83" y2="183.13"/><line class="cls-27" x1="109.53" y1="125.66" x2="109.53" y2="130.17"/><line class="cls-27" x1="111.24" y1="125.66" x2="111.24" y2="130.17"/><line class="cls-27" x1="112.96" y1="125.66" x2="112.96" y2="130.17"/><line class="cls-27" x1="114.67" y1="125.66" x2="114.67" y2="130.17"/><line class="cls-27" x1="116.38" y1="125.66" x2="116.38" y2="130.17"/><line class="cls-27" x1="118.1" y1="125.66" x2="118.1" y2="130.17"/><line class="cls-27" x1="119.81" y1="125.66" x2="119.81" y2="130.17"/><line class="cls-27" x1="121.52" y1="125.66" x2="121.52" y2="130.17"/><line class="cls-27" x1="123.23" y1="125.66" x2="123.23" y2="130.17"/><line class="cls-27" x1="124.95" y1="125.66" x2="124.95" y2="130.17"/><line class="cls-27" x1="106.02" y1="132.73" x2="106.02" y2="136.24"/><line class="cls-27" x1="107.44" y1="132.73" x2="107.44" y2="136.24"/><line class="cls-27" x1="108.85" y1="132.73" x2="108.85" y2="136.24"/><line class="cls-27" x1="110.27" y1="132.73" x2="110.27" y2="136.24"/><line class="cls-27" x1="111.69" y1="132.73" x2="111.69" y2="136.24"/><line class="cls-27" x1="113.1" y1="132.73" x2="113.1" y2="136.24"/><line class="cls-27" x1="114.52" y1="132.73" x2="114.52" y2="136.24"/><line class="cls-27" x1="115.93" y1="132.73" x2="115.93" y2="136.24"/><line class="cls-27" x1="117.35" y1="132.73" x2="117.35" y2="136.24"/><line class="cls-27" x1="118.76" y1="132.73" x2="118.76" y2="136.24"/><line class="cls-27" x1="120.18" y1="132.73" x2="120.18" y2="136.24"/><line class="cls-27" x1="181.91" y1="125.66" x2="181.91" y2="130.17"/><line class="cls-27" x1="180.2" y1="125.66" x2="180.2" y2="130.17"/><line class="cls-27" x1="178.49" y1="125.66" x2="178.49" y2="130.17"/><line class="cls-27" x1="176.78" y1="125.66" x2="176.78" y2="130.17"/><line class="cls-27" x1="175.06" y1="125.66" x2="175.06" y2="130.17"/><line class="cls-27" x1="173.35" y1="125.66" x2="173.35" y2="130.17"/><line class="cls-27" x1="171.64" y1="125.66" x2="171.64" y2="130.17"/><line class="cls-27" x1="169.93" y1="125.66" x2="169.93" y2="130.17"/><line class="cls-27" x1="168.21" y1="125.66" x2="168.21" y2="130.17"/><line class="cls-27" x1="166.5" y1="125.66" x2="166.5" y2="130.17"/><line class="cls-27" x1="185.42" y1="132.73" x2="185.42" y2="136.24"/><line class="cls-27" x1="184.01" y1="132.73" x2="184.01" y2="136.24"/><line class="cls-27" x1="182.59" y1="132.73" x2="182.59" y2="136.24"/><line class="cls-27" x1="181.18" y1="132.73" x2="181.18" y2="136.24"/><line class="cls-27" x1="179.76" y1="132.73" x2="179.76" y2="136.24"/><line class="cls-27" x1="178.35" y1="132.73" x2="178.35" y2="136.24"/><line class="cls-27" x1="176.93" y1="132.73" x2="176.93" y2="136.24"/><line class="cls-27" x1="175.51" y1="132.73" x2="175.51" y2="136.24"/><line class="cls-27" x1="174.1" y1="132.73" x2="174.1" y2="136.24"/><line class="cls-27" x1="172.68" y1="132.73" x2="172.68" y2="136.24"/><line class="cls-27" x1="171.27" y1="132.73" x2="171.27" y2="136.24"/><line class="cls-9" x1="56.37" y1="121.74" x2="56.37" y2="116.88"/><polygon class="cls-7" points="132.76 194.61 132.76 188.07 140.55 188.23 140.5 184.91 135.5 182.99 106.3 183.18 104.18 185.19 93.99 185.16 86.53 177.89 57.67 177.9 47.22 177.78 47.17 167.49 10.85 131.17 0.56 131.12 0.5 120.83 10.9 120.66 47.17 84.51 47.22 74.11 57.67 74.11 93.89 37.68 93.91 27.31 117.41 27.12 117.79 54.83 150.52 54.73 177.31 27.55 187.28 27.28 197.78 27.33 197.73 48.08 223.54 74.21 244.45 74 244.34 84.34 280.71 120.71 291.22 120.66 291.06 131.47 280.66 131.12 244.32 167.48 244 188.64 259.91 204.35 259.96 214.1 234.26 240.02 224.1 240.12 197.73 214.16 197.73 203.7 223.64 177.78 205.08 177.94 197.78 185.13 187.32 185.24 185.04 182.95 155.47 183.01 151.12 185.19 151.12 188.02 158.74 188.13 158.85 194.66 152.22 194.6 151.03 195.39 149.85 196.18 148.74 196.73 147.75 197.01 146.57 197.32 145.54 197.32 144.52 197.25 143.53 196.97 142.54 196.61 141.68 196.22 140.96 195.74 140.25 195.19 139.5 194.68 132.76 194.61"/><polyline class="cls-27" points="151.99 194.66 148.94 196.73 146.49 197.22 144.15 197.06 142.08 196.29 139.79 194.66"/><text class="cls-29" transform="translate(157.81 74.12)">4    3    2    1</text><text class="cls-29" transform="translate(105.94 73.72)">9   8   7   6   5</text><text x="-3.94" y="-31.46"/><text class="cls-18" transform="translate(75.03 61.42)">13</text><text class="cls-18" transform="translate(69.48 66.38)">14</text><circle class="cls-1" cx="112.21" cy="114.11" r="5.68"/><circle class="cls-1" cx="35.95" cy="127" r="5.68"/><circle class="cls-1" cx="118.1" cy="151.72" r="5.68"/><circle class="cls-1" cx="100.23" cy="177.09" r="5.68"/><circle class="cls-1" cx="193.14" cy="176.53" r="5.68"/><path d="M148.47,216.42c0.41,0.48.83,1,1.21,1.45a0.43,0.43,0,0,1,0,.4,0.38,0.38,0,0,1-.65,0l-0.4-.51c0,0.63,0,1.32,0,1.93a0.52,0.52,0,0,1-.35.32,0.56,0.56,0,0,1-.35-0.07,0.5,0.5,0,0,1-.19-0.34l0-1.35c0-.11,0-0.24,0-0.36v-0.12a1.4,1.4,0,0,1-.77.66,0.38,0.38,0,0,1-.32-0.24,0.45,0.45,0,0,1,0-.27l0.11-.17,1.15-1.35A0.41,0.41,0,0,1,148.47,216.42Z" transform="translate(-3.94 -31.46)"/><path d="M151.78,216.58a0.55,0.55,0,0,1,.05.2c0,0.58,0,1.22,0,1.81l0.49-.6a0.42,0.42,0,0,1,.43,0,0.47,0.47,0,0,1,.19.26,1.57,1.57,0,0,1-.54.87l-0.71.82a0.42,0.42,0,0,1-.42.12,0.84,0.84,0,0,1-.32-0.28l-0.9-1.08a0.5,0.5,0,0,1-.16-0.39A0.38,0.38,0,0,1,150,218a0.42,0.42,0,0,1,.34,0,4,4,0,0,1,.56.65v-0.3l0-1.49a0.44,0.44,0,0,1,.21-0.39,0.45,0.45,0,0,1,.35-0.07A0.48,0.48,0,0,1,151.78,216.58Z" transform="translate(-3.94 -31.46)"/><path d="M152,220.3a0.9,0.9,0,0,1,.82.41,2.59,2.59,0,0,1,.13,1.28v1.39h0c0,0.76,0,1.57,0,2.31a0.87,0.87,0,0,1-.54.72,3.18,3.18,0,0,1-.88.05h-3.72a1,1,0,0,1-1-.38,1.94,1.94,0,0,1-.14-1.12c0-.65,0-1.2,0-1.86v-1.86a0.89,0.89,0,0,1,.5-0.88,1.23,1.23,0,0,1,.33-0.08H152Z" transform="translate(-3.94 -31.46)"/><path class="cls-1" d="M152,221.18c0,0.21,0,.43,0,0.61v3.84H147.5v-4.43H152Z" transform="translate(-3.94 -31.46)"/><path d="M148.65,221.93a0.3,0.3,0,0,1-.06.3,0.33,0.33,0,0,1-.26.09,0.28,0.28,0,0,1-.12-0.52A0.3,0.3,0,0,1,148.65,221.93Z" transform="translate(-3.94 -31.46)"/><path d="M151.42,221.91a0.3,0.3,0,0,1,0,.29,0.38,0.38,0,0,1-.18.12,0.39,0.39,0,0,1-.24-0.07,0.28,0.28,0,0,1,.08-0.48A0.3,0.3,0,0,1,151.42,221.91Z" transform="translate(-3.94 -31.46)"/><path d="M150,221.91a0.3,0.3,0,0,1,0,.31,0.29,0.29,0,0,1-.28.1,0.34,0.34,0,0,1-.21-0.18,0.28,0.28,0,0,1,.06-0.29,0.28,0.28,0,0,1,.29-0.08A0.32,0.32,0,0,1,150,221.91Z" transform="translate(-3.94 -31.46)"/><polygon class="cls-1" points="146 190.46 146 190.44 146.02 190.44 146 190.46"/><path d="M148.9,222.43a0.3,0.3,0,0,1,.13.14c0,0.41,0,.8,0,1.21a0.17,0.17,0,0,1-.09.1,0.48,0.48,0,0,0-.17,0c0,0.5,0,.95,0,1.46a0.24,0.24,0,0,1-.13.14,0.19,0.19,0,0,1-.17,0,0.17,0.17,0,0,1-.07-0.1v-1.48h0c0,0.51,0,.95,0,1.46a0.22,0.22,0,0,1-.16.16,0.24,0.24,0,0,1-.18-0.07l0-.07c0-.51,0-1,0-1.47a0.25,0.25,0,0,1-.26-0.13v-1.2a0.23,0.23,0,0,1,.12-0.14A10.48,10.48,0,0,1,148.9,222.43Z" transform="translate(-3.94 -31.46)"/><path d="M150.28,222.43a0.25,0.25,0,0,1,.14.13c0,0.4,0,.81,0,1.23a0.18,0.18,0,0,1-.13.1h-0.12c0,0.48,0,1,0,1.45a0.26,0.26,0,0,1-.13.17,0.24,0.24,0,0,1-.2,0l-0.05-.07c0-.51,0-1,0-1.5h0v1.46a0.21,0.21,0,0,1-.16.16,0.18,0.18,0,0,1-.16,0l-0.06-.08V223.9a0.27,0.27,0,0,1-.26-0.11c0-.4,0-0.78,0-1.18a0.24,0.24,0,0,1,.12-0.17l0.06,0C149.62,222.44,150,222.42,150.28,222.43Z" transform="translate(-3.94 -31.46)"/><path d="M151.65,222.43a0.2,0.2,0,0,1,.15.11l0,0.1v1.13a0.18,0.18,0,0,1-.16.12h-0.1c0,0.46,0,1,0,1.46a0.22,0.22,0,0,1-.14.15,0.19,0.19,0,0,1-.19,0l0-.07c0-.47,0-1,0-1.5h0v1.45a0.22,0.22,0,0,1-.12.16,0.22,0.22,0,0,1-.18,0,0.18,0.18,0,0,1-.08-0.18v-1.42a0.41,0.41,0,0,1-.21,0l-0.05-.08v-1.2a0.22,0.22,0,0,1,.12-0.13l0.09,0h0.94Z" transform="translate(-3.94 -31.46)"/><path d="M64.95,129.3a0.86,0.86,0,0,1,0,.89,0.92,0.92,0,0,1-.54.36,0.88,0.88,0,0,1-.38,0,0.82,0.82,0,0,1-.36-0.18,0.84,0.84,0,0,1-.23-0.9,0.9,0.9,0,0,1,.79-0.58A0.86,0.86,0,0,1,64.95,129.3Z" transform="translate(-3.94 -31.46)"/><path d="M66.14,131.44a2.65,2.65,0,0,1,.09.83v2a0.55,0.55,0,0,1-.09.46,0.4,0.4,0,0,1-.38.1,0.39,0.39,0,0,1-.26-0.29l0-.32v-2.08a0.31,0.31,0,0,0-.17,0,2.73,2.73,0,0,0,0,.48v1.65c0,0.79,0,1.53,0,2.31v1.67a1.21,1.21,0,0,1-.11.71,0.5,0.5,0,0,1-.85-0.14l0-.18c0-.52,0-1,0-1.5v-2.29H64.15c0,1.27,0,2.55,0,3.82a0.54,0.54,0,0,1-.25.4,0.45,0.45,0,0,1-.41,0,0.55,0.55,0,0,1-.29-0.26l0-.15v-1.37c0-.4,0-0.88,0-1.31h0v-1.28c0-.25,0-0.52,0-0.79v-1.8H62.95v2.08a0.58,0.58,0,0,1-.18.6,0.41,0.41,0,0,1-.41,0,0.6,0.6,0,0,1-.15-0.45c0-.32,0-1,0-1v-0.65a2.11,2.11,0,0,0,0-.24,1.71,1.71,0,0,1,.26-1.28,1.47,1.47,0,0,1,1.27-.39c0.39,0,.78,0,1.18,0A1.2,1.2,0,0,1,66.14,131.44Z" transform="translate(-3.94 -31.46)"/><path d="M70.19,129.4a0.84,0.84,0,0,1,0,.82,0.85,0.85,0,0,1-1.54-.2,0.81,0.81,0,0,1,.22-0.8,0.83,0.83,0,0,1,.77-0.22A0.92,0.92,0,0,1,70.19,129.4Z" transform="translate(-3.94 -31.46)"/><path d="M70.12,130.85a1.13,1.13,0,0,1,.91.66l0.14,0.4L71.8,134a0.39,0.39,0,0,1-.06.35,0.36,0.36,0,0,1-.38.12,0.55,0.55,0,0,1-.3-0.44l-0.59-2a0.35,0.35,0,0,0-.18,0l0.15,0.54L71,134.45c0.15,0.49.29,1,.43,1.47H70.36l0,3a0.45,0.45,0,0,1-.19.26,0.37,0.37,0,0,1-.3,0,0.43,0.43,0,0,1-.29-0.26l0-.1v-2.91H69.36v2.94a0.42,0.42,0,0,1-.28.34,0.42,0.42,0,0,1-.42-0.1,0.37,0.37,0,0,1-.12-0.23v-3c-0.37,0-.69,0-1.07,0v0l0.79-2.69c0.1-.38.23-0.77,0.33-1.16a0.49,0.49,0,0,0-.17,0l-0.19.63-0.46,1.53a0.43,0.43,0,0,1-.32.32,0.38,0.38,0,0,1-.36-0.2,0.39,0.39,0,0,1,0-.27l0.26-.9h0v0l0.47-1.58a1.14,1.14,0,0,1,1.09-.69h1.22Z" transform="translate(-3.94 -31.46)"/><path class="cls-1" d="M70.2,135.8a0,0,0,0,0,0,0h0S70.19,135.8,70.2,135.8Z" transform="translate(-3.94 -31.46)"/><path d="M230.65,129.4a0.86,0.86,0,0,1,0,.89,0.92,0.92,0,0,1-.54.36,0.88,0.88,0,0,1-.39,0,0.82,0.82,0,0,1-.36-0.18,0.84,0.84,0,0,1-.23-0.9,0.89,0.89,0,0,1,.79-0.58A0.86,0.86,0,0,1,230.65,129.4Z" transform="translate(-3.94 -31.46)"/><path d="M231.85,131.54a2.56,2.56,0,0,1,.09.83v2a0.56,0.56,0,0,1-.09.46,0.4,0.4,0,0,1-.38.1,0.39,0.39,0,0,1-.26-0.29l0-.32v-2.08a0.31,0.31,0,0,0-.17,0,2.81,2.81,0,0,0,0,.48v1.65c0,0.79,0,1.53,0,2.31v1.67a1.2,1.2,0,0,1-.11.71,0.5,0.5,0,0,1-.85-0.14l0-.18c0-.52,0-1,0-1.5v-2.29h-0.17c0,1.27,0,2.55,0,3.82a0.54,0.54,0,0,1-.25.4,0.45,0.45,0,0,1-.41,0,0.56,0.56,0,0,1-.29-0.26l0-.15v-1.37c0-.4,0-0.88,0-1.32h0v-1.28c0-.25,0-0.51,0-0.79v-1.8h-0.18v2.08a0.58,0.58,0,0,1-.18.6,0.41,0.41,0,0,1-.41,0,0.6,0.6,0,0,1-.15-0.44c0-.32,0-1,0-1v-0.65c0-.07,0-0.17,0-0.23a1.7,1.7,0,0,1,.26-1.28,1.46,1.46,0,0,1,1.27-.39c0.39,0,.78,0,1.18,0A1.2,1.2,0,0,1,231.85,131.54Z" transform="translate(-3.94 -31.46)"/><path d="M235.9,129.5a0.83,0.83,0,0,1,0,.82,0.84,0.84,0,0,1-1.54-.2,0.8,0.8,0,0,1,.22-0.8,0.83,0.83,0,0,1,.77-0.22A0.91,0.91,0,0,1,235.9,129.5Z" transform="translate(-3.94 -31.46)"/><path d="M235.83,130.95a1.12,1.12,0,0,1,.91.66l0.14,0.4,0.63,2.13a0.38,0.38,0,0,1-.06.35,0.35,0.35,0,0,1-.38.12,0.55,0.55,0,0,1-.29-0.44l-0.59-2a0.36,0.36,0,0,0-.18,0l0.15,0.55,0.56,1.88c0.15,0.49.28,1,.43,1.47h-1.08l0,3a0.45,0.45,0,0,1-.19.26,0.36,0.36,0,0,1-.3,0,0.44,0.44,0,0,1-.29-0.26l0-.1V136h-0.17l0,0.34V139a0.42,0.42,0,0,1-.7.24,0.38,0.38,0,0,1-.12-0.23v-3c-0.36,0-.69,0-1.07,0v0l0.79-2.69c0.1-.38.23-0.77,0.34-1.16a0.5,0.5,0,0,0-.17,0l-0.19.63-0.45,1.53a0.43,0.43,0,0,1-.32.32,0.34,0.34,0,0,1-.37-0.47l0.26-.9h0v0l0.47-1.58a1.15,1.15,0,0,1,1.09-.69h1.22Z" transform="translate(-3.94 -31.46)"/><path class="cls-1" d="M235.91,135.9a0,0,0,0,0,0,0h0S235.9,135.9,235.91,135.9Z" transform="translate(-3.94 -31.46)"/><path d="M57.25,129.11a0.31,0.31,0,0,1,0,.26,0.27,0.27,0,0,1-.3.11,0.31,0.31,0,0,1-.19-0.23,0.23,0.23,0,0,1,.1-0.24A0.27,0.27,0,0,1,57.25,129.11Z" transform="translate(-3.94 -31.46)"/><path d="M56.5,129.08a0.28,0.28,0,0,1,0,.27,0.28,0.28,0,0,1-.17.15,0.27,0.27,0,0,1-.28-0.4A0.26,0.26,0,0,1,56.5,129.08Z" transform="translate(-3.94 -31.46)"/><path d="M55.91,129.38a0.26,0.26,0,0,1-.35.32,0.3,0.3,0,0,1-.13-0.33,0.38,0.38,0,0,1,.2-0.15A0.27,0.27,0,0,1,55.91,129.38Z" transform="translate(-3.94 -31.46)"/><path d="M57.87,129.36a0.29,0.29,0,0,1-.3.47,0.3,0.3,0,0,1-.19-0.21,0.27,0.27,0,0,1,0-.24,0.49,0.49,0,0,1,.19-0.12A0.3,0.3,0,0,1,57.87,129.36Z" transform="translate(-3.94 -31.46)"/><path d="M56.84,129.78a0.24,0.24,0,0,1-.07.27,0.26,0.26,0,0,1-.26.05,0.32,0.32,0,0,1-.15-0.18,0.26,0.26,0,0,1,0-.23,0.61,0.61,0,0,1,.16-0.09A0.29,0.29,0,0,1,56.84,129.78Z" transform="translate(-3.94 -31.46)"/><path d="M55.39,129.81a0.23,0.23,0,0,1,0,.28,0.25,0.25,0,0,1-.3.1,0.26,0.26,0,0,1-.13-0.32,0.33,0.33,0,0,1,.16-0.14A0.28,0.28,0,0,1,55.39,129.81Z" transform="translate(-3.94 -31.46)"/><path d="M58.44,129.89a0.38,0.38,0,0,1,.07.32,0.39,0.39,0,0,1-.19.18,0.33,0.33,0,0,1-.39-0.4,0.38,0.38,0,0,1,.23-0.21A0.32,0.32,0,0,1,58.44,129.89Z" transform="translate(-3.94 -31.46)"/><path d="M57.46,130a0.28,0.28,0,0,1-.16.36,0.35,0.35,0,0,1-.3-0.09,0.28,0.28,0,0,1,0-.29,0.3,0.3,0,0,1,.2-0.15A0.29,0.29,0,0,1,57.46,130Z" transform="translate(-3.94 -31.46)"/><path d="M56.2,130a0.24,0.24,0,0,1-.08.28,0.24,0.24,0,0,1-.28,0,0.27,0.27,0,0,1-.12-0.32,0.32,0.32,0,0,1,.23-0.17A0.27,0.27,0,0,1,56.2,130Z" transform="translate(-3.94 -31.46)"/><path d="M58,130.5a0.33,0.33,0,0,1,0,.3,0.31,0.31,0,0,1-.36.13,0.35,0.35,0,0,1-.2-0.24A0.31,0.31,0,0,1,58,130.5Z" transform="translate(-3.94 -31.46)"/><path d="M55.2,130.55a0.21,0.21,0,0,1-.07.24,0.21,0.21,0,0,1-.26,0,0.24,0.24,0,0,1-.13-0.23,0.22,0.22,0,0,1,.17-0.22A0.24,0.24,0,0,1,55.2,130.55Z" transform="translate(-3.94 -31.46)"/><path d="M55.84,130.59a0.22,0.22,0,0,1-.08.24,0.22,0.22,0,0,1-.26,0,0.26,0.26,0,0,1-.11-0.31,0.32,0.32,0,0,1,.2-0.16A0.27,0.27,0,0,1,55.84,130.59Z" transform="translate(-3.94 -31.46)"/><path d="M55.16,131.2a0.24,0.24,0,0,1,0,.26,0.24,0.24,0,0,1-.28,0,0.24,0.24,0,0,1-.12-0.31,0.32,0.32,0,0,1,.18-0.14A0.27,0.27,0,0,1,55.16,131.2Z" transform="translate(-3.94 -31.46)"/><path d="M55.79,131.23a0.22,0.22,0,0,1,0,.2,0.24,0.24,0,0,1-.29.12,0.29,0.29,0,0,1-.17-0.21,0.34,0.34,0,0,1,.08-0.2A0.24,0.24,0,0,1,55.79,131.23Z" transform="translate(-3.94 -31.46)"/><path d="M59.69,133.09l0,4c0,0.07-.08,0-0.12.05l-2.91,0-3.69-4.24a0.76,0.76,0,0,1,.54-1.14h0.09l6.13,0.07v1.31Z" transform="translate(-3.94 -31.46)"/><path d="M241.95,129.55a0.3,0.3,0,0,0,0,.26,0.27,0.27,0,0,0,.3.11,0.32,0.32,0,0,0,.19-0.23,0.22,0.22,0,0,0-.1-0.24A0.27,0.27,0,0,0,241.95,129.55Z" transform="translate(-3.94 -31.46)"/><path d="M242.69,129.52a0.28,0.28,0,0,0,0,.27,0.29,0.29,0,0,0,.17.15,0.27,0.27,0,0,0,.28-0.4A0.26,0.26,0,0,0,242.69,129.52Z" transform="translate(-3.94 -31.46)"/><path d="M243.29,129.82a0.26,0.26,0,0,0,.35.32,0.3,0.3,0,0,0,.13-0.34,0.37,0.37,0,0,0-.2-0.15A0.27,0.27,0,0,0,243.29,129.82Z" transform="translate(-3.94 -31.46)"/><path d="M241.33,129.79a0.29,0.29,0,1,0,.5.26,0.27,0.27,0,0,0,0-.24,0.49,0.49,0,0,0-.19-0.12A0.31,0.31,0,0,0,241.33,129.79Z" transform="translate(-3.94 -31.46)"/><path d="M242.36,130.22a0.24,0.24,0,0,0,.07.27,0.26,0.26,0,0,0,.26.05,0.32,0.32,0,0,0,.16-0.18,0.27,0.27,0,0,0,0-.23,0.67,0.67,0,0,0-.16-0.09A0.29,0.29,0,0,0,242.36,130.22Z" transform="translate(-3.94 -31.46)"/><path d="M243.81,130.25a0.23,0.23,0,0,0,0,.28,0.25,0.25,0,0,0,.3.1,0.26,0.26,0,0,0,.13-0.32,0.33,0.33,0,0,0-.16-0.14A0.28,0.28,0,0,0,243.81,130.25Z" transform="translate(-3.94 -31.46)"/><path d="M240.76,130.33a0.3,0.3,0,0,0,.13.5,0.32,0.32,0,0,0,.39-0.4,0.38,0.38,0,0,0-.23-0.21A0.32,0.32,0,0,0,240.76,130.33Z" transform="translate(-3.94 -31.46)"/><path d="M241.74,130.44a0.28,0.28,0,0,0,.16.36,0.36,0.36,0,0,0,.3-0.09,0.28,0.28,0,0,0,0-.29,0.31,0.31,0,0,0-.2-0.15A0.29,0.29,0,0,0,241.74,130.44Z" transform="translate(-3.94 -31.46)"/><path d="M243,130.46a0.25,0.25,0,0,0,.08.28,0.24,0.24,0,0,0,.28,0,0.27,0.27,0,0,0,.12-0.32,0.31,0.31,0,0,0-.23-0.17A0.27,0.27,0,0,0,243,130.46Z" transform="translate(-3.94 -31.46)"/><path d="M241.23,130.94a0.33,0.33,0,0,0,0,.3,0.31,0.31,0,0,0,.35.13,0.35,0.35,0,0,0,.21-0.24A0.31,0.31,0,0,0,241.23,130.94Z" transform="translate(-3.94 -31.46)"/><path d="M244,131a0.21,0.21,0,0,0,.07.24,0.21,0.21,0,0,0,.26,0,0.24,0.24,0,0,0,.13-0.23,0.22,0.22,0,0,0-.17-0.22A0.24,0.24,0,0,0,244,131Z" transform="translate(-3.94 -31.46)"/><path d="M243.36,131a0.22,0.22,0,0,0,.08.24,0.22,0.22,0,0,0,.26,0,0.26,0.26,0,0,0,.11-0.31,0.32,0.32,0,0,0-.2-0.15A0.27,0.27,0,0,0,243.36,131Z" transform="translate(-3.94 -31.46)"/><path d="M244,131.64a0.25,0.25,0,0,0,0,.26,0.23,0.23,0,0,0,.28,0,0.24,0.24,0,0,0,.12-0.3,0.31,0.31,0,0,0-.18-0.14A0.27,0.27,0,0,0,244,131.64Z" transform="translate(-3.94 -31.46)"/><path d="M243.41,131.67a0.21,0.21,0,0,0,0,.2,0.24,0.24,0,0,0,.29.12,0.3,0.3,0,0,0,.17-0.21,0.34,0.34,0,0,0-.08-0.2A0.24,0.24,0,0,0,243.41,131.67Z" transform="translate(-3.94 -31.46)"/><path d="M239.51,133.53l0,4c0,0.07.08,0,.12,0.05l2.91,0,3.69-4.24a0.81,0.81,0,0,0,.08-0.6,0.8,0.8,0,0,0-.62-0.54h-0.09l-6.13.07v1.31Z" transform="translate(-3.94 -31.46)"/><path class="cls-30" d="M189.33,100.49" transform="translate(-3.94 -31.46)"/><path class="cls-30" d="M168.24,72.16" transform="translate(-3.94 -31.46)"/><polyline class="cls-9" points="175.62 172.21 159.04 172.21 159.05 167.82"/><rect class="cls-27" x="159.03" y="172.22" width="1.67" height="4.58"/><rect class="cls-27" x="160.7" y="172.22" width="1.67" height="4.58"/><rect class="cls-27" x="162.37" y="172.22" width="1.67" height="4.58"/><rect class="cls-27" x="164.03" y="172.22" width="1.67" height="4.58"/><rect class="cls-27" x="165.7" y="172.22" width="1.67" height="4.58"/><rect class="cls-27" x="167.37" y="172.22" width="1.67" height="4.58"/><rect class="cls-27" x="169.04" y="172.22" width="1.67" height="4.58"/><rect class="cls-27" x="170.71" y="172.22" width="1.67" height="4.58"/><rect class="cls-27" x="172.38" y="172.22" width="1.67" height="4.58"/><rect class="cls-27" x="174.05" y="172.22" width="1.67" height="4.58"/><polyline class="cls-27" points="165.7 167.73 167.37 167.73 167.37 172.31 165.7 172.31"/><rect class="cls-27" x="167.37" y="167.73" width="1.67" height="4.58"/><rect class="cls-27" x="169.04" y="167.73" width="1.67" height="4.58"/><rect class="cls-27" x="170.71" y="167.73" width="1.67" height="4.58"/><rect class="cls-27" x="172.38" y="167.73" width="1.67" height="4.58"/><rect class="cls-27" x="174.05" y="167.73" width="1.67" height="4.58"/><line class="cls-9" x1="167.23" y1="167.83" x2="165.62" y2="172.17"/><line class="cls-9" x1="176.94" y1="176.82" x2="179.43" y2="183.22"/><line class="cls-27" x1="176.94" y1="176.92" x2="176.94" y2="183.01"/><line class="cls-28" x1="174.98" y1="176.92" x2="174.98" y2="183.01"/><line class="cls-27" x1="173.02" y1="176.92" x2="173.02" y2="183.01"/><line class="cls-27" x1="171.05" y1="176.92" x2="171.05" y2="183.01"/><line class="cls-27" x1="169.09" y1="176.92" x2="169.09" y2="183.01"/><line class="cls-27" x1="167.13" y1="176.92" x2="167.13" y2="183.01"/><line class="cls-27" x1="165.16" y1="176.92" x2="165.16" y2="183.01"/><line class="cls-27" x1="163.2" y1="176.92" x2="163.2" y2="183.01"/><line class="cls-27" x1="161.24" y1="176.92" x2="161.24" y2="183.01"/><line class="cls-27" x1="159.27" y1="176.92" x2="159.27" y2="183.01"/><line class="cls-27" x1="157.31" y1="176.92" x2="157.31" y2="183.01"/><line class="cls-27" x1="174.94" y1="176.92" x2="174.94" y2="183.01"/><path class="cls-31" d="M191.38,165.1a0.63,0.63,0,0,0-.53.37l0,0.17,0,3a0.6,0.6,0,0,0,.46.39,0.56,0.56,0,0,0,.44-0.11c0.09,0.07.12-.09,0.18-0.12l-0.06,0,0.11-.23c0-.48,0-1,0-1.45l0.19,0.16,2.49,2.44a0.58,0.58,0,0,0,.58.08,0.62,0.62,0,0,0,.35-0.53,0.67,0.67,0,0,0-.14-0.37l-2.67-2.59a0,0,0,0,1,0,0c0.51,0,1,0,1.49,0a0.63,0.63,0,0,0,.32-0.14,0.38,0.38,0,0,0,0,.08s0.14-.11.1-0.17a0.59,0.59,0,0,0,.09-0.52,0.68,0.68,0,0,0-.28-0.34l-0.21-.07h-2.83Z" transform="translate(-3.94 -31.46)"/><path class="cls-32" d="M195.06,169.88a0.62,0.62,0,0,0,.53-0.37l0-.17,0-3a0.59,0.59,0,0,0-.46-0.39,0.55,0.55,0,0,0-.44.12c-0.09-.07-0.11.09-0.18,0.12l0.06,0-0.11.23c0,0.47,0,1,0,1.45l-0.18-.17-2.49-2.43a0.57,0.57,0,0,0-.58-0.08,0.62,0.62,0,0,0-.36.53,0.67,0.67,0,0,0,.14.37l2.67,2.59a0,0,0,0,1,0,0c-0.51,0-1,0-1.49,0a0.65,0.65,0,0,0-.32.14,0.19,0.19,0,0,0,0-.09s-0.14.11-.09,0.17a0.59,0.59,0,0,0-.09.52,0.68,0.68,0,0,0,.28.34l0.21,0.07h2.83Z" transform="translate(-3.94 -31.46)"/><rect class="cls-1" x="215.37" y="113.85" width="7.74" height="11.16"/><path d="M222,146.09c0.41,0.48.83,1,1.21,1.45a0.42,0.42,0,0,1,0,.4,0.41,0.41,0,0,1-.4.18,0.4,0.4,0,0,1-.24-0.17l-0.4-.51c0,0.63,0,1.32,0,1.93a0.52,0.52,0,0,1-.35.32,0.57,0.57,0,0,1-.35-0.07,0.51,0.51,0,0,1-.19-0.34l0-1.35c0-.11,0-0.24,0-0.36v-0.12a1.39,1.39,0,0,1-.77.66,0.37,0.37,0,0,1-.31-0.24,0.44,0.44,0,0,1,0-.27l0.11-.17,1.15-1.35A0.41,0.41,0,0,1,222,146.09Z" transform="translate(-3.94 -31.46)"/><path d="M225.35,146.25a0.53,0.53,0,0,1,.05.2c0,0.58,0,1.22,0,1.81l0.49-.6a0.42,0.42,0,0,1,.43,0,0.44,0.44,0,0,1,.19.26,1.58,1.58,0,0,1-.54.87l-0.71.82a0.42,0.42,0,0,1-.42.12,0.82,0.82,0,0,1-.32-0.28l-0.9-1.08a0.5,0.5,0,0,1-.16-0.39,0.38,0.38,0,0,1,.19-0.31,0.41,0.41,0,0,1,.34,0,4,4,0,0,1,.56.65V148l0-1.49A0.46,0.46,0,0,1,225,146,0.48,0.48,0,0,1,225.35,146.25Z" transform="translate(-3.94 -31.46)"/><path d="M225.53,150a0.91,0.91,0,0,1,.81.41,2.56,2.56,0,0,1,.13,1.28v1.39h0c0,0.75,0,1.57,0,2.31a0.87,0.87,0,0,1-.54.72,3.12,3.12,0,0,1-.88.06h-3.72a1,1,0,0,1-1-.38,2,2,0,0,1-.14-1.12c0-.65,0-1.2,0-1.86v-1.86a0.89,0.89,0,0,1,.5-0.88A1.3,1.3,0,0,1,221,150h4.52Z" transform="translate(-3.94 -31.46)"/><path class="cls-1" d="M225.6,150.84c0,0.21,0,.42,0,0.61v3.84h-4.53v-4.44h4.53Z" transform="translate(-3.94 -31.46)"/><path d="M222.21,151.6a0.31,0.31,0,0,1-.06.3,0.34,0.34,0,0,1-.26.09,0.28,0.28,0,0,1-.11-0.52A0.3,0.3,0,0,1,222.21,151.6Z" transform="translate(-3.94 -31.46)"/><path d="M225,151.58a0.3,0.3,0,0,1,0,.29,0.39,0.39,0,0,1-.18.12,0.39,0.39,0,0,1-.24-0.07,0.31,0.31,0,0,1-.11-0.21,0.32,0.32,0,0,1,.18-0.27A0.3,0.3,0,0,1,225,151.58Z" transform="translate(-3.94 -31.46)"/><path d="M223.59,151.58a0.29,0.29,0,0,1,0,.31,0.28,0.28,0,0,1-.28.1,0.35,0.35,0,0,1-.21-0.18,0.28,0.28,0,0,1,.06-0.29,0.29,0.29,0,0,1,.29-0.08A0.33,0.33,0,0,1,223.59,151.58Z" transform="translate(-3.94 -31.46)"/><polygon class="cls-1" points="219.57 120.12 219.57 120.11 219.58 120.11 219.57 120.12"/><path d="M222.47,152.1a0.33,0.33,0,0,1,.13.14c0,0.41,0,.81,0,1.21a0.17,0.17,0,0,1-.09.1,0.46,0.46,0,0,0-.17,0c0,0.5,0,.95,0,1.46a0.25,0.25,0,0,1-.13.14,0.2,0.2,0,0,1-.17,0,0.2,0.2,0,0,1-.06-0.1v-1.48h0c0,0.51,0,.95,0,1.46a0.22,0.22,0,0,1-.16.16,0.23,0.23,0,0,1-.18-0.07l0-.07c0-.51,0-1,0-1.47a0.25,0.25,0,0,1-.26-0.13v-1.2a0.23,0.23,0,0,1,.12-0.14A10.48,10.48,0,0,1,222.47,152.1Z" transform="translate(-3.94 -31.46)"/><path d="M223.85,152.1a0.26,0.26,0,0,1,.14.13c0,0.4,0,.81,0,1.23a0.2,0.2,0,0,1-.13.1h-0.12c0,0.48,0,1,0,1.45a0.25,0.25,0,0,1-.13.17,0.24,0.24,0,0,1-.2,0l-0.05-.07c0-.5,0-1,0-1.5h0V155a0.21,0.21,0,0,1-.16.17,0.18,0.18,0,0,1-.16,0l-0.06-.08v-1.49a0.27,0.27,0,0,1-.26-0.11c0-.4,0-0.78,0-1.18a0.24,0.24,0,0,1,.13-0.17l0.06,0C223.18,152.1,223.51,152.08,223.85,152.1Z" transform="translate(-3.94 -31.46)"/><path d="M225.22,152.09a0.2,0.2,0,0,1,.15.11l0,0.1v1.13a0.19,0.19,0,0,1-.16.12h-0.1c0,0.46,0,1,0,1.46a0.22,0.22,0,0,1-.14.15,0.19,0.19,0,0,1-.19,0l0-.06c0-.47,0-1,0-1.5h0V155a0.24,0.24,0,0,1-.12.16,0.23,0.23,0,0,1-.18,0,0.17,0.17,0,0,1-.08-0.18v-1.41a0.42,0.42,0,0,1-.21,0l-0.05-.08v-1.2a0.23,0.23,0,0,1,.12-0.13l0.1,0h0.94Z" transform="translate(-3.94 -31.46)"/><path class="cls-30" d="M192.88,74.24" transform="translate(-3.94 -31.46)"/><path class="cls-30" d="M181.64,58.91" transform="translate(-3.94 -31.46)"/><path class="cls-30" d="M164.92,75.58" transform="translate(-3.94 -31.46)"/><path class="cls-30" d="M283.33,164.31" transform="translate(-3.94 -31.46)"/><path class="cls-30" d="M248,127" transform="translate(-3.94 -31.46)"/><path class="cls-30" d="M290.07,162.72" transform="translate(-3.94 -31.46)"/><path class="cls-30" d="M248.19,118.85" transform="translate(-3.94 -31.46)"/><path class="cls-30" d="M283.52,173.84" transform="translate(-3.94 -31.46)"/><path class="cls-30" d="M248.19,136.52" transform="translate(-3.94 -31.46)"/><path class="cls-30" d="M231,226.36" transform="translate(-3.94 -31.46)"/><path class="cls-30" d="M248.19,145.65" transform="translate(-3.94 -31.46)"/><path class="cls-30" d="M231,235.89" transform="translate(-3.94 -31.46)"/><path class="cls-30" d="M248.19,155.18" transform="translate(-3.94 -31.46)"/><path class="cls-30" d="M231.55,246.41" transform="translate(-3.94 -31.46)"/><path class="cls-30" d="M248.78,165.7" transform="translate(-3.94 -31.46)"/><path class="cls-30" d="M283.33,222.47" transform="translate(-3.94 -31.46)"/><path class="cls-30" d="M248,185.15" transform="translate(-3.94 -31.46)"/><path class="cls-30" d="M278.36,246.29" transform="translate(-3.94 -31.46)"/><path class="cls-30" d="M243,209" transform="translate(-3.94 -31.46)"/><path class="cls-30" d="M255.34,254.23" transform="translate(-3.94 -31.46)"/><path class="cls-30" d="M220,216.92" transform="translate(-3.94 -31.46)"/><path class="cls-30" d="M249.18,260" transform="translate(-3.94 -31.46)"/><path class="cls-30" d="M213.85,222.67" transform="translate(-3.94 -31.46)"/><path class="cls-30" d="M242.63,266.54" transform="translate(-3.94 -31.46)"/><path class="cls-30" d="M207.3,229.22" transform="translate(-3.94 -31.46)"/><path class="cls-30" d="M237.27,272.5" transform="translate(-3.94 -31.46)"/><path class="cls-30" d="M201.94,235.18" transform="translate(-3.94 -31.46)"/><polyline class="cls-9" points="262.28 132.42 262.38 141.9 272.29 141.01 272.29 148.84 281.4 148.84 281.4 129.05 262.07 129.05"/><path class="cls-30" d="M217.22,154" transform="translate(-3.94 -31.46)"/><path class="cls-30" d="M204.52,134.73" transform="translate(-3.94 -31.46)"/><path class="cls-30" d="M219.21,138.93" transform="translate(-3.94 -31.46)"/><path class="cls-30" d="M215.78,134.39" transform="translate(-3.94 -31.46)"/><path class="cls-30" d="M219,147.84" transform="translate(-3.94 -31.46)"/><path class="cls-30" d="M210.67,135.53" transform="translate(-3.94 -31.46)"/><path class="cls-30" d="M205.51,147" transform="translate(-3.94 -31.46)"/><path class="cls-30" d="M200.15,138.11" transform="translate(-3.94 -31.46)"/><polygon class="cls-5" points="291.61 120.39 291.61 131.75 280.37 131.75 244.53 167.58 244.44 82.63 281.1 120.39 291.61 120.39"/><polygon class="cls-7" points="244.44 82.63 281.1 120.39 291.61 120.39 291.61 131.75 280.37 131.75 244.53 167.58 244.44 82.63"/><polyline class="cls-9" points="188.92 69.88 189 72.51 188.42 72.98 188.16 75.25 186.05 75.14 185.16 76.04"/><path class="cls-9" d="M186.58,107.39a17.19,17.19,0,0,1-1.81-.12" transform="translate(-3.94 -31.46)"/><circle class="cls-1" cx="229.48" cy="209.11" r="5.47"/><circle class="cls-1" cx="257.85" cy="131.37" r="5.47"/><circle class="cls-3" cx="193.18" cy="176.59" r="5.47"/><circle class="cls-3" cx="112.18" cy="114.37" r="5.47"/><circle class="cls-3" cx="172.93" cy="154.62" r="5.47"/><circle class="cls-3" cx="145.53" cy="142.65" r="5.47"/><circle class="cls-1" cx="145.42" cy="75.45" r="5.47"/><circle class="cls-1" cx="79.53" cy="86.59" r="5.47"/><circle class="cls-1" cx="80.13" cy="120.79" r="5.47"/><circle class="cls-1" cx="58.53" cy="77.39" r="5.47"/><circle class="cls-3" cx="211.53" cy="154.27" r="5.47"/><circle class="cls-3" cx="35.73" cy="127" r="5.47"/><circle class="cls-3" cx="100.18" cy="177.19" r="5.47"/><circle class="cls-1" cx="223.11" cy="139.62" r="5.47"/><circle class="cls-1" cx="200.57" cy="67.95" r="5.47"/><circle class="cls-1" cx="89.73" cy="69.83" r="5.47"/><circle class="cls-3" cx="118.08" cy="151.59" r="5.47"/><line class="cls-9" x1="103.9" y1="27.67" x2="116.9" y2="27.67"/><line class="cls-9" x1="117.3" y1="55.17" x2="117.3" y2="27.67"/><line class="cls-9" x1="106.33" y1="75.81" x2="102.73" y2="72.02"/><path class="cls-25" d="M106.75,100.1" transform="translate(-3.94 -31.46)"/><circle class="cls-1" cx="84.8" cy="152.32" r="5.68"/><circle class="cls-3" cx="84.78" cy="152.19" r="5.47"/><circle class="cls-1" cx="68.2" cy="143.8" r="5.68"/><circle class="cls-3" cx="67.98" cy="143.79" r="5.47"/><text class="cls-33" transform="translate(143.57 78.08)">2</text><text class="cls-33" transform="translate(199.06 70.41)">1</text><text class="cls-33" transform="translate(88.1 71.92)">1</text><text x="-3.94" y="-31.46"/><text x="-3.94" y="-31.46"/><text class="cls-33" transform="translate(56.84 78.99)">2</text><text class="cls-33" transform="translate(77.67 88.78)">2</text><text class="cls-33" transform="translate(77.9 122.76)">2</text><text x="-3.94" y="-31.46"/><text class="cls-34" transform="translate(33.89 129.26)">3</text><text class="cls-34" transform="translate(65.6 146.72)">3</text><text class="cls-35" transform="translate(109.74 116.85)">4</text><text class="cls-36" transform="translate(82.9 154.62)">5</text><text class="cls-36" transform="translate(115.93 154.69)">5</text><text class="cls-37" transform="translate(143.55 144.83)">6</text><text class="cls-38" transform="translate(209.69 157.65)">7</text><text class="cls-34" transform="translate(97.75 180.14)">8</text><text class="cls-39" transform="translate(190.53 179.73)">9</text><text class="cls-40" transform="translate(224.72 212.58)">10</text><text class="cls-39" transform="translate(253.72 134.15)">1<tspan x="4.06" y="0">1</tspan></text><text class="cls-38" transform="translate(220.69 142.65)">7</text><polyline class="cls-5" points="196.23 102.23 196.26 86.45 199.66 83.07 214.73 83.06 214.78 102.34"/><polyline class="cls-5" points="214.68 102.79 214.62 122.54 206.05 122.54 205.96 115.2 196.52 115.1 196.41 102.66"/></svg>