<svg id="Layer_1" data-name="Layer 1" xmlns="http://www.w3.org/2000/svg" xmlns:xlink="http://www.w3.org/1999/xlink" viewBox="0 0 274.24 218.84"><defs><style>.cls-1,.cls-11,.cls-12,.cls-13,.cls-15,.cls-16,.cls-2,.cls-25,.cls-28,.cls-4{fill:none;}.cls-2,.cls-3,.cls-4{stroke:#000;}.cls-2{stroke-width:0.72px;}.cls-16,.cls-25,.cls-3{stroke-width:0.25px;}.cls-4{stroke-width:0.1px;stroke-dasharray:1 0.5;}.cls-29,.cls-5{fill:#fff;}.cls-6{font-size:6.29px;fill:#d3162b;font-family:Interstate Regular;}.cls-7{letter-spacing:1px;}.cls-10,.cls-14,.cls-8{fill:#008cff;}.cls-12,.cls-13,.cls-14,.cls-16,.cls-19,.cls-23,.cls-28,.cls-30,.cls-8{stroke:#f2f2f2;}.cls-9{fill:#f3f2d4;}.cls-11,.cls-15,.cls-25{stroke:#231f20;}.cls-13,.cls-14,.cls-15{stroke-width:0.5px;}.cls-17{fill:url(#_10_lpi-10_);}.cls-18{fill:url(#_10_lpi-10_3);}.cls-19,.cls-23{stroke-miterlimit:10;}.cls-19{fill:url(#_10_lpi-10_5);}.cls-20{fill:url(#_10_lpi-10_7);}.cls-21{fill:url(#_10_lpi-10_9);}.cls-22{fill:url(#_10_lpi-10_11);}.cls-23{fill:url(#_10_lpi-10_13);}.cls-24{fill:url(#_10_lpi-10_15);}.cls-26{fill:url(#_10_lpi-10_17);}.cls-27{fill:#00a94f;}.cls-28,.cls-30{stroke-width:0.41px;}.cls-29{font-size:6px;}.cls-29,.cls-31,.cls-33{font-family:Helvetica;}.cls-29,.cls-32,.cls-33{font-weight:700;}.cls-30{fill:url(#_10_lpi-10_19);}.cls-31,.cls-33{font-size:6.36px;fill:#231f20;}</style><pattern id="_10_lpi-10_" data-name="*10 lpi-10%" width="72" height="72" patternTransform="translate(-12.97 26.42) rotate(-45) scale(0.38)" patternUnits="userSpaceOnUse" viewBox="0 0 72 72"><rect class="cls-1" width="72" height="72"/><line class="cls-2" x1="-0.25" y1="68.4" x2="72.25" y2="68.4"/><line class="cls-2" x1="-0.25" y1="54" x2="72.25" y2="54"/><line class="cls-2" x1="-0.25" y1="39.6" x2="72.25" y2="39.6"/><line class="cls-2" x1="-0.25" y1="25.2" x2="72.25" y2="25.2"/><line class="cls-2" x1="-0.25" y1="10.8" x2="72.25" y2="10.8"/><line class="cls-2" x1="-20" y1="10.8" x2="-6" y2="10.8"/><line class="cls-2" x1="-0.25" y1="61.2" x2="72.25" y2="61.2"/><line class="cls-2" x1="-0.25" y1="46.8" x2="72.25" y2="46.8"/><line class="cls-2" x1="-0.25" y1="32.4" x2="72.25" y2="32.4"/><line class="cls-2" x1="-0.25" y1="18" x2="72.25" y2="18"/><line class="cls-2" x1="-0.25" y1="3.6" x2="72.25" y2="3.6"/><line class="cls-2" x1="-20" y1="3.6" x2="-6" y2="3.6"/></pattern><pattern id="_10_lpi-10_3" data-name="*10 lpi-10%" width="72" height="72" patternTransform="translate(-1.24 66.04) rotate(-45) scale(0.5)" patternUnits="userSpaceOnUse" viewBox="0 0 72 72"><rect class="cls-1" width="72" height="72"/><line class="cls-2" x1="-0.25" y1="68.4" x2="72.25" y2="68.4"/><line class="cls-2" x1="-0.25" y1="54" x2="72.25" y2="54"/><line class="cls-2" x1="-0.25" y1="39.6" x2="72.25" y2="39.6"/><line class="cls-2" x1="-0.25" y1="25.2" x2="72.25" y2="25.2"/><line class="cls-2" x1="-0.25" y1="10.8" x2="72.25" y2="10.8"/><line class="cls-2" x1="-20" y1="10.8" x2="-6" y2="10.8"/><line class="cls-2" x1="-0.25" y1="61.2" x2="72.25" y2="61.2"/><line class="cls-2" x1="-0.25" y1="46.8" x2="72.25" y2="46.8"/><line class="cls-2" x1="-0.25" y1="32.4" x2="72.25" y2="32.4"/><line class="cls-2" x1="-0.25" y1="18" x2="72.25" y2="18"/><line class="cls-2" x1="-0.25" y1="3.6" x2="72.25" y2="3.6"/><line class="cls-2" x1="-20" y1="3.6" x2="-6" y2="3.6"/></pattern><pattern id="_10_lpi-10_5" data-name="*10 lpi-10%" width="72" height="72" patternTransform="translate(8.64 -103.89) rotate(135) scale(0.38)" patternUnits="userSpaceOnUse" viewBox="0 0 72 72"><rect class="cls-1" width="72" height="72"/><line class="cls-2" x1="-0.25" y1="68.4" x2="72.25" y2="68.4"/><line class="cls-2" x1="-0.25" y1="54" x2="72.25" y2="54"/><line class="cls-2" x1="-0.25" y1="39.6" x2="72.25" y2="39.6"/><line class="cls-2" x1="-0.25" y1="25.2" x2="72.25" y2="25.2"/><line class="cls-2" x1="-0.25" y1="10.8" x2="72.25" y2="10.8"/><line class="cls-2" x1="-20" y1="10.8" x2="-6" y2="10.8"/><line class="cls-2" x1="-0.25" y1="61.2" x2="72.25" y2="61.2"/><line class="cls-2" x1="-0.25" y1="46.8" x2="72.25" y2="46.8"/><line class="cls-2" x1="-0.25" y1="32.4" x2="72.25" y2="32.4"/><line class="cls-2" x1="-0.25" y1="18" x2="72.25" y2="18"/><line class="cls-2" x1="-0.25" y1="3.6" x2="72.25" y2="3.6"/><line class="cls-2" x1="-20" y1="3.6" x2="-6" y2="3.6"/></pattern><pattern id="_10_lpi-10_7" data-name="*10 lpi-10%" width="72" height="72" patternTransform="translate(21.52 -62.61) rotate(135) scale(0.38)" patternUnits="userSpaceOnUse" viewBox="0 0 72 72"><rect class="cls-1" width="72" height="72"/><line class="cls-2" x1="-0.25" y1="68.4" x2="72.25" y2="68.4"/><line class="cls-2" x1="-0.25" y1="54" x2="72.25" y2="54"/><line class="cls-2" x1="-0.25" y1="39.6" x2="72.25" y2="39.6"/><line class="cls-2" x1="-0.25" y1="25.2" x2="72.25" y2="25.2"/><line class="cls-2" x1="-0.25" y1="10.8" x2="72.25" y2="10.8"/><line class="cls-2" x1="-20" y1="10.8" x2="-6" y2="10.8"/><line class="cls-2" x1="-0.25" y1="61.2" x2="72.25" y2="61.2"/><line class="cls-2" x1="-0.25" y1="46.8" x2="72.25" y2="46.8"/><line class="cls-2" x1="-0.25" y1="32.4" x2="72.25" y2="32.4"/><line class="cls-2" x1="-0.25" y1="18" x2="72.25" y2="18"/><line class="cls-2" x1="-0.25" y1="3.6" x2="72.25" y2="3.6"/><line class="cls-2" x1="-20" y1="3.6" x2="-6" y2="3.6"/></pattern><pattern id="_10_lpi-10_9" data-name="*10 lpi-10%" width="72" height="72" patternTransform="matrix(-0.27, 0.27, 0.27, 0.27, 51, 12.34)" patternUnits="userSpaceOnUse" viewBox="0 0 72 72"><rect class="cls-1" width="72" height="72"/><line class="cls-2" x1="-0.25" y1="68.4" x2="72.25" y2="68.4"/><line class="cls-2" x1="-0.25" y1="54" x2="72.25" y2="54"/><line class="cls-2" x1="-0.25" y1="39.6" x2="72.25" y2="39.6"/><line class="cls-2" x1="-0.25" y1="25.2" x2="72.25" y2="25.2"/><line class="cls-2" x1="-0.25" y1="10.8" x2="72.25" y2="10.8"/><line class="cls-2" x1="-20" y1="10.8" x2="-6" y2="10.8"/><line class="cls-2" x1="-0.25" y1="61.2" x2="72.25" y2="61.2"/><line class="cls-2" x1="-0.25" y1="46.8" x2="72.25" y2="46.8"/><line class="cls-2" x1="-0.25" y1="32.4" x2="72.25" y2="32.4"/><line class="cls-2" x1="-0.25" y1="18" x2="72.25" y2="18"/><line class="cls-2" x1="-0.25" y1="3.6" x2="72.25" y2="3.6"/><line class="cls-2" x1="-20" y1="3.6" x2="-6" y2="3.6"/></pattern><pattern id="_10_lpi-10_11" data-name="*10 lpi-10%" width="72" height="72" patternTransform="matrix(-0.27, 0.27, 0.27, 0.27, 63.88, 53.62)" patternUnits="userSpaceOnUse" viewBox="0 0 72 72"><rect class="cls-1" width="72" height="72"/><line class="cls-2" x1="-0.25" y1="68.4" x2="72.25" y2="68.4"/><line class="cls-2" x1="-0.25" y1="54" x2="72.25" y2="54"/><line class="cls-2" x1="-0.25" y1="39.6" x2="72.25" y2="39.6"/><line class="cls-2" x1="-0.25" y1="25.2" x2="72.25" y2="25.2"/><line class="cls-2" x1="-0.25" y1="10.8" x2="72.25" y2="10.8"/><line class="cls-2" x1="-20" y1="10.8" x2="-6" y2="10.8"/><line class="cls-2" x1="-0.25" y1="61.2" x2="72.25" y2="61.2"/><line class="cls-2" x1="-0.25" y1="46.8" x2="72.25" y2="46.8"/><line class="cls-2" x1="-0.25" y1="32.4" x2="72.25" y2="32.4"/><line class="cls-2" x1="-0.25" y1="18" x2="72.25" y2="18"/><line class="cls-2" x1="-0.25" y1="3.6" x2="72.25" y2="3.6"/><line class="cls-2" x1="-20" y1="3.6" x2="-6" y2="3.6"/></pattern><pattern id="_10_lpi-10_13" data-name="*10 lpi-10%" width="72" height="72" patternTransform="matrix(0.27, -0.27, -0.27, -0.27, -106.41, 60.21)" patternUnits="userSpaceOnUse" viewBox="0 0 72 72"><rect class="cls-1" width="72" height="72"/><line class="cls-2" x1="-0.25" y1="68.4" x2="72.25" y2="68.4"/><line class="cls-2" x1="-0.25" y1="54" x2="72.25" y2="54"/><line class="cls-2" x1="-0.25" y1="39.6" x2="72.25" y2="39.6"/><line class="cls-2" x1="-0.25" y1="25.2" x2="72.25" y2="25.2"/><line class="cls-2" x1="-0.25" y1="10.8" x2="72.25" y2="10.8"/><line class="cls-2" x1="-20" y1="10.8" x2="-6" y2="10.8"/><line class="cls-2" x1="-0.25" y1="61.2" x2="72.25" y2="61.2"/><line class="cls-2" x1="-0.25" y1="46.8" x2="72.25" y2="46.8"/><line class="cls-2" x1="-0.25" y1="32.4" x2="72.25" y2="32.4"/><line class="cls-2" x1="-0.25" y1="18" x2="72.25" y2="18"/><line class="cls-2" x1="-0.25" y1="3.6" x2="72.25" y2="3.6"/><line class="cls-2" x1="-20" y1="3.6" x2="-6" y2="3.6"/></pattern><pattern id="_10_lpi-10_15" data-name="*10 lpi-10%" width="72" height="72" patternTransform="matrix(0.27, -0.27, -0.27, -0.27, -93.53, 101.5)" patternUnits="userSpaceOnUse" viewBox="0 0 72 72"><rect class="cls-1" width="72" height="72"/><line class="cls-2" x1="-0.25" y1="68.4" x2="72.25" y2="68.4"/><line class="cls-2" x1="-0.25" y1="54" x2="72.25" y2="54"/><line class="cls-2" x1="-0.25" y1="39.6" x2="72.25" y2="39.6"/><line class="cls-2" x1="-0.25" y1="25.2" x2="72.25" y2="25.2"/><line class="cls-2" x1="-0.25" y1="10.8" x2="72.25" y2="10.8"/><line class="cls-2" x1="-20" y1="10.8" x2="-6" y2="10.8"/><line class="cls-2" x1="-0.25" y1="61.2" x2="72.25" y2="61.2"/><line class="cls-2" x1="-0.25" y1="46.8" x2="72.25" y2="46.8"/><line class="cls-2" x1="-0.25" y1="32.4" x2="72.25" y2="32.4"/><line class="cls-2" x1="-0.25" y1="18" x2="72.25" y2="18"/><line class="cls-2" x1="-0.25" y1="3.6" x2="72.25" y2="3.6"/><line class="cls-2" x1="-20" y1="3.6" x2="-6" y2="3.6"/></pattern><pattern id="_10_lpi-10_17" data-name="*10 lpi-10%" width="72" height="72" patternTransform="translate(224.55 88.94) rotate(-135) scale(0.5)" patternUnits="userSpaceOnUse" viewBox="0 0 72 72"><rect class="cls-1" width="72" height="72"/><line class="cls-2" x1="-0.25" y1="68.4" x2="72.25" y2="68.4"/><line class="cls-2" x1="-0.25" y1="54" x2="72.25" y2="54"/><line class="cls-2" x1="-0.25" y1="39.6" x2="72.25" y2="39.6"/><line class="cls-2" x1="-0.25" y1="25.2" x2="72.25" y2="25.2"/><line class="cls-2" x1="-0.25" y1="10.8" x2="72.25" y2="10.8"/><line class="cls-2" x1="-20" y1="10.8" x2="-6" y2="10.8"/><line class="cls-2" x1="-0.25" y1="61.2" x2="72.25" y2="61.2"/><line class="cls-2" x1="-0.25" y1="46.8" x2="72.25" y2="46.8"/><line class="cls-2" x1="-0.25" y1="32.4" x2="72.25" y2="32.4"/><line class="cls-2" x1="-0.25" y1="18" x2="72.25" y2="18"/><line class="cls-2" x1="-0.25" y1="3.6" x2="72.25" y2="3.6"/><line class="cls-2" x1="-20" y1="3.6" x2="-6" y2="3.6"/></pattern><pattern id="_10_lpi-10_19" data-name="*10 lpi-10%" width="72" height="72" patternTransform="translate(-80.55 -119.9) rotate(-45) scale(0.2)" patternUnits="userSpaceOnUse" viewBox="0 0 72 72"><rect class="cls-1" width="72" height="72"/><line class="cls-2" x1="-0.25" y1="68.4" x2="72.25" y2="68.4"/><line class="cls-2" x1="-0.25" y1="54" x2="72.25" y2="54"/><line class="cls-2" x1="-0.25" y1="39.6" x2="72.25" y2="39.6"/><line class="cls-2" x1="-0.25" y1="25.2" x2="72.25" y2="25.2"/><line class="cls-2" x1="-0.25" y1="10.8" x2="72.25" y2="10.8"/><line class="cls-2" x1="-20" y1="10.8" x2="-6" y2="10.8"/><line class="cls-2" x1="-0.25" y1="61.2" x2="72.25" y2="61.2"/><line class="cls-2" x1="-0.25" y1="46.8" x2="72.25" y2="46.8"/><line class="cls-2" x1="-0.25" y1="32.4" x2="72.25" y2="32.4"/><line class="cls-2" x1="-0.25" y1="18" x2="72.25" y2="18"/><line class="cls-2" x1="-0.25" y1="3.6" x2="72.25" y2="3.6"/><line class="cls-2" x1="-20" y1="3.6" x2="-6" y2="3.6"/></pattern></defs><title>map3</title><path class="cls-3" d="M140.15,186.94a0.58,0.58,0,0,0,.35.5l0.17,0,2.79,0a0.56,0.56,0,0,0,.37-0.43,0.53,0.53,0,0,0-.11-0.41c0.07-.08-0.08-0.11-0.11-0.17l0,0.06-0.21-.1c-0.45,0-.92,0-1.37,0l0.15-.17,2.29-2.34a0.54,0.54,0,0,0,.08-0.54A0.58,0.58,0,0,0,144,183a0.64,0.64,0,0,0-.34.13l-2.43,2.51a0,0,0,0,1,0,0c0-.48,0-0.93,0-1.4a0.62,0.62,0,0,0-.13-0.3,0.29,0.29,0,0,0,.07,0s-0.1-.13-0.16-0.09a0.56,0.56,0,0,0-.49-0.09,0.63,0.63,0,0,0-.32.26l-0.06.19v2.66Z" transform="translate(-12.88 -41.29)"/><path class="cls-4" d="M144.64,183.48a0.58,0.58,0,0,0-.35-0.5l-0.16,0-2.79,0a0.56,0.56,0,0,0-.37.43,0.52,0.52,0,0,0,.11.41c-0.07.08,0.08,0.11,0.11,0.17l0-.06,0.22,0.1c0.45,0,.92,0,1.37,0l-0.16.17-2.29,2.34a0.54,0.54,0,0,0-.08.54,0.58,0.58,0,0,0,.5.33,0.64,0.64,0,0,0,.34-0.13l2.43-2.51a0,0,0,0,1,0,0c0,0.48,0,.93,0,1.4a0.61,0.61,0,0,0,.13.3,0.2,0.2,0,0,0-.08,0s0.1,0.13.16,0.09a0.56,0.56,0,0,0,.49.09,0.62,0.62,0,0,0,.32-0.26l0.07-.2v-2.66Z" transform="translate(-12.88 -41.29)"/><path class="cls-5" d="M183,113.68a2.34,2.34,0,0,1-.15.37,3.9,3.9,0,0,1-.22.39,1.7,1.7,0,0,1-.39.45,0.66,0.66,0,0,1-.39.14,1.36,1.36,0,0,1-.42-0.09,1.43,1.43,0,0,0-.46-0.1,1.17,1.17,0,0,0-.43.1,1.1,1.1,0,0,1-.4.1,0.7,0.7,0,0,1-.46-0.2,2.19,2.19,0,0,1-.45-0.59,3.47,3.47,0,0,1-.34-0.77,2.67,2.67,0,0,1-.11-0.75,1.77,1.77,0,0,1,.34-1.13,1.05,1.05,0,0,1,.86-0.44,2,2,0,0,1,.53.09,1.89,1.89,0,0,0,.42.09,1.58,1.58,0,0,0,.43-0.1,1.67,1.67,0,0,1,.52-0.1,1.19,1.19,0,0,1,.34,0,1,1,0,0,1,.3.14l0.16,0.13,0.16,0.18a1.56,1.56,0,0,0-.21.19l-0.14.17a1.15,1.15,0,0,0-.15.3,1.08,1.08,0,0,0-.05.33,1.16,1.16,0,0,0,.21.68A0.91,0.91,0,0,0,183,113.68Zm-1.14-3.54a1.16,1.16,0,0,1-.09.41,1.19,1.19,0,0,1-.28.42,0.94,0.94,0,0,1-.16.13,0.64,0.64,0,0,1-.17.08l-0.13,0-0.19,0a1.4,1.4,0,0,1,.24-0.77,1.19,1.19,0,0,1,.75-0.45l0,0.07A0.41,0.41,0,0,1,181.87,110.14Z" transform="translate(-12.88 -41.29)"/><path class="cls-5" d="M136.51,112.87h-0.19v1.92h-0.39v-4.23h0.6a0.94,0.94,0,0,1,.94,1.12A1,1,0,0,1,136.51,112.87Zm0-1.93h-0.21v1.56h0.21a0.64,0.64,0,0,0,.56-0.79A0.62,0.62,0,0,0,136.53,110.94Z" transform="translate(-12.88 -41.29)"/><path class="cls-5" d="M138.74,114.86c-0.62,0-.83-0.76-0.83-2.18s0.22-2.18.84-2.18,0.69,0.4.8,1l-0.38.1c-0.12-.62-0.24-0.77-0.43-0.77s-0.43.58-.43,1.81,0.14,1.81.46,1.81,0.33-.21.43-0.74l0.37,0.11A0.94,0.94,0,0,1,138.74,114.86Z" transform="translate(-12.88 -41.29)"/><path class="cls-5" d="M209.91,154.33h-0.19v1.92h-0.39V152h0.6a1,1,0,0,1,.94,1.12A1,1,0,0,1,209.91,154.33Zm0-1.93h-0.21V154h0.21a0.64,0.64,0,0,0,.56-0.79A0.62,0.62,0,0,0,209.92,152.4Z" transform="translate(-12.88 -41.29)"/><path class="cls-5" d="M212.13,156.32c-0.62,0-.83-0.76-0.83-2.18s0.22-2.18.84-2.18,0.69,0.4.8,1l-0.38.1c-0.12-.62-0.24-0.77-0.43-0.77s-0.43.58-.43,1.81,0.14,1.8.46,1.8,0.33-.21.43-0.74l0.37,0.11A0.94,0.94,0,0,1,212.13,156.32Z" transform="translate(-12.88 -41.29)"/><circle class="cls-5" cx="232.24" cy="128.17" r="5.34"/><text class="cls-6" transform="translate(228.35 130.34)"><tspan class="cls-7">3</tspan><tspan x="5.12" y="0">5</tspan></text><path class="cls-5" d="M252.27,170.14h-0.19v1.92H251.7v-4.23h0.6a1,1,0,0,1,.94,1.12A1,1,0,0,1,252.27,170.14Zm0-1.93h-0.21v1.56h0.21a0.64,0.64,0,0,0,.56-0.79A0.62,0.62,0,0,0,252.29,168.21Z" transform="translate(-12.88 -41.29)"/><path class="cls-5" d="M254.5,172.13c-0.62,0-.83-0.76-0.83-2.18s0.22-2.18.84-2.18,0.69,0.4.8,1l-0.38.1c-0.12-.62-0.23-0.77-0.43-0.77s-0.44.58-.44,1.81,0.14,1.81.46,1.81,0.33-.21.43-0.74l0.37,0.11A0.94,0.94,0,0,1,254.5,172.13Z" transform="translate(-12.88 -41.29)"/><path class="cls-5" d="M102.38,158.43a2.33,2.33,0,0,1-.15.37,4.18,4.18,0,0,1-.22.39,1.67,1.67,0,0,1-.39.45,0.65,0.65,0,0,1-.39.14,1.35,1.35,0,0,1-.42-0.09,1.42,1.42,0,0,0-.46-0.09,1.16,1.16,0,0,0-.43.1,1.15,1.15,0,0,1-.4.1,0.7,0.7,0,0,1-.46-0.2,2.23,2.23,0,0,1-.45-0.59,3.42,3.42,0,0,1-.34-0.77,2.68,2.68,0,0,1-.11-0.75,1.77,1.77,0,0,1,.34-1.13,1.05,1.05,0,0,1,.86-0.44,2,2,0,0,1,.53.09,1.88,1.88,0,0,0,.42.09,1.61,1.61,0,0,0,.43-0.1,1.69,1.69,0,0,1,.52-0.1,1.19,1.19,0,0,1,.34,0,1,1,0,0,1,.3.14l0.16,0.13,0.16,0.18a1.56,1.56,0,0,0-.21.19l-0.14.17a1.16,1.16,0,0,0-.15.3,1,1,0,0,0-.05.32,1.16,1.16,0,0,0,.21.68A0.91,0.91,0,0,0,102.38,158.43Zm-1.14-3.54a1.14,1.14,0,0,1-.09.41,1.24,1.24,0,0,1-.28.42l-0.16.13-0.16.09-0.13,0-0.19,0a1.38,1.38,0,0,1,.24-0.77,1.18,1.18,0,0,1,.75-0.45l0,0.07A0.59,0.59,0,0,1,101.24,154.89Z" transform="translate(-12.88 -41.29)"/><circle class="cls-5" cx="101.6" cy="77.37" r="5.34"/><text class="cls-6" transform="translate(97.72 79.54)"><tspan class="cls-7">3</tspan><tspan x="5.12" y="0">5</tspan></text><path class="cls-5" d="M121.63,119.34h-0.19v1.92h-0.39V117h0.6a1,1,0,0,1,.94,1.12A1,1,0,0,1,121.63,119.34Zm0-1.93h-0.21V119h0.21a0.64,0.64,0,0,0,.56-0.79A0.62,0.62,0,0,0,121.65,117.41Z" transform="translate(-12.88 -41.29)"/><path class="cls-5" d="M123.86,121.33c-0.62,0-.83-0.75-0.83-2.18s0.22-2.18.84-2.18,0.69,0.4.8,1l-0.38.1c-0.12-.62-0.24-0.77-0.43-0.77s-0.43.58-.43,1.81,0.14,1.81.46,1.81,0.33-.21.43-0.74l0.37,0.11A0.94,0.94,0,0,1,123.86,121.33Z" transform="translate(-12.88 -41.29)"/><polygon class="cls-8" points="177.05 89.58 140.27 89.52 140.38 53.16 177.16 53.1 177.05 89.58"/><polygon class="cls-8" points="133.72 89.38 96.94 89.33 97.05 52.96 133.83 52.91 133.72 89.38"/><polygon class="cls-8" points="193.52 120.99 183.15 120.94 183.2 98.64 201.62 98.79 201.9 130.88 193.57 130.69 193.52 120.99"/><polygon class="cls-8" points="80.49 132.92 72.33 132.8 72.22 97.84 79.67 98.07 79.73 108.39 90.8 108.27 90.69 126.68 80.37 126.63 80.49 132.92"/><rect class="cls-8" x="256.38" y="136.2" width="3.77" height="45.31" transform="translate(-49.57 187.86) rotate(-45)"/><polygon class="cls-8" points="246.68 135.42 246.72 127.87 251.12 127.89 254.79 131.33 254.81 135.44 246.68 135.42"/><polygon class="cls-8" points="225.84 114.86 225.89 107.31 230.29 107.33 233.78 110.67 233.98 114.89 225.84 114.86"/><rect class="cls-8" x="225.75" y="120.71" width="17.9" height="15.13"/><rect class="cls-8" x="215.24" y="175.36" width="3.78" height="45.31" transform="translate(-89.3 170.23) rotate(-45)"/><polygon class="cls-8" points="223.37 158.67 215.82 158.71 215.84 163.11 219.27 166.78 223.38 166.81 223.37 158.67"/><polygon class="cls-8" points="202.82 137.83 195.27 137.87 195.29 142.27 198.62 145.76 202.84 145.96 202.82 137.83"/><circle class="cls-5" cx="156.26" cy="62.33" r="5.34"/><rect class="cls-8" x="208.66" y="137.74" width="15.13" height="17.9"/><rect class="cls-8" x="235.81" y="195.92" width="45.3" height="3.77" transform="translate(-77.06 199.4) rotate(-45)"/><polygon class="cls-8" points="226.16 158.67 233.71 158.71 233.69 163.11 230.19 166.79 226.14 166.8 226.16 158.67"/><polygon class="cls-8" points="246.71 137.82 254.78 137.85 254.78 141.75 250.91 145.76 246.69 145.96 246.71 137.82"/><rect class="cls-8" x="225.73" y="137.73" width="15.13" height="17.9"/><line class="cls-9" x1="221.95" y1="166.39" x2="226.4" y2="166.37"/><line class="cls-9" x1="254.4" y1="134.01" x2="254.38" y2="138.46"/><rect class="cls-8" x="183.35" y="77.31" width="14.82" height="17.9"/><rect class="cls-8" x="212.3" y="92.11" width="3.77" height="45.3" transform="translate(-31.99 141.42) rotate(-44.42)"/><polygon class="cls-8" points="183.48 74.1 191.03 74.14 191.05 69.74 187.75 66.21 183.54 65.97 183.48 74.1"/><polygon class="cls-8" points="203.81 95.15 211.37 95.19 211.39 90.79 208.09 87.26 203.88 87.02 203.81 95.15"/><rect class="cls-8" x="77.19" y="76.41" width="14.82" height="17.9"/><rect class="cls-8" x="64.28" y="111.97" width="45.3" height="3.77" transform="translate(-68.12 54.98) rotate(-45.58)"/><polygon class="cls-8" points="91.88 73.2 84.33 73.24 84.3 68.84 87.6 65.31 91.82 65.07 91.88 73.2"/><polygon class="cls-8" points="71.55 94.25 63.99 94.29 63.97 89.89 67.27 86.36 71.48 86.12 71.55 94.25"/><rect class="cls-8" x="18.84" y="157.17" width="45.3" height="3.77" transform="translate(-113.2 34.64) rotate(-45)"/><polygon class="cls-8" points="27.31 135.63 27.27 128.07 22.87 128.1 19.2 131.53 19.18 135.65 27.31 135.63"/><polygon class="cls-8" points="48.15 115.07 48.1 107.51 43.7 107.54 40.21 110.87 40.01 115.09 48.15 115.07"/><rect class="cls-8" x="30.34" y="120.91" width="17.91" height="15.13"/><rect class="cls-8" x="59.97" y="196.33" width="45.31" height="3.77" transform="translate(-128.84 75.19) rotate(-45)"/><polygon class="cls-8" points="50.63 158.88 58.18 158.92 58.16 163.32 54.72 166.98 50.6 167.01 50.63 158.88"/><polygon class="cls-8" points="71.17 138.03 78.72 138.07 78.7 142.47 75.37 145.96 71.15 146.17 71.17 138.03"/><rect class="cls-8" x="50.2" y="137.94" width="15.13" height="17.9"/><rect class="cls-8" x="39.41" y="175.36" width="3.77" height="45.3" transform="translate(-140.8 45.91) rotate(-45)"/><polygon class="cls-8" points="47.83 158.87 40.28 158.91 40.3 163.31 43.8 167 47.85 167.01 47.83 158.87"/><polygon class="cls-8" points="27.28 138.03 19.21 138.05 19.21 141.95 23.09 145.96 27.3 146.16 27.28 138.03"/><rect class="cls-8" x="33.12" y="137.94" width="15.13" height="17.9"/><polygon class="cls-10" points="142.07 10.33 176.11 44.52 98.2 44.59 132.25 10.4 132.1 0.65 142 0.51 142.07 10.33"/><polygon class="cls-11" points="98.2 44.59 132.25 10.4 132.1 0.65 142 0.51 142.07 10.33 176.11 44.52 98.2 44.59"/><line class="cls-12" x1="98.21" y1="44.59" x2="176.11" y2="44.59"/><polyline class="cls-12" points="148.99 185.86 169.06 186 176 192.82 185.94 192.84 192.7 185.93 219.7 185.93 219.77 185.93 229.95 185.93 229.77 176.21 263.84 141.99 273.73 142.14 273.66 132.17 263.84 132.25 229.87 98.28 229.87 88.38 219.9 88.31 185.86 54.27 186.06 44.4 176.11 44.52 142.07 10.33 142 0.51 132.1 0.65 132.25 10.4 98.21 44.59 88.39 44.52 88.37 54.29 54.42 88.53 44.45 88.31 44.03 97.9 10.41 132.31 0.73 132.32 0.51 141.99 10.33 142.07 44.45 176.18 44.52 185.86 81.48 185.86 88.46 192.99 98.21 192.99 105.12 186.08 125.41 186"/><polyline class="cls-13" points="164.81 181.02 148.81 180.85 149.07 176.36 169.21 176.27 169.06 186"/><polyline class="cls-13" points="109.53 180.91 125.53 180.74 125.26 176.25 105.13 176.16 105.27 185.89"/><polyline class="cls-12" points="219.87 186.58 220.17 176.79 186.35 142.38 175.97 142.09 171.52 137.05 148.82 137.09"/><polyline class="cls-13" points="144.57 147.32 143.65 147.95 142.96 148.45 142.95 149.83 140.93 149.83 139.69 150.3 138.46 150.6 137.36 150.81 136.34 150.79 135.17 150.56 134.14 150.23 133.08 149.73 131.32 149.76 131.32 148.06 130.45 147.81 129.56 147.48"/><polyline class="cls-14" points="177.29 67.41 177.16 53.1 140.38 53.16 140.45 67.26"/><line class="cls-13" x1="177.38" y1="71.57" x2="140.15" y2="71.58"/><path class="cls-15" d="M215.15,173.79" transform="translate(-12.88 -41.29)"/><line class="cls-13" x1="202.27" y1="98.05" x2="202.31" y2="132.75"/><line class="cls-13" x1="193.92" y1="127.03" x2="193.99" y2="133"/><line class="cls-13" x1="193.62" y1="132.23" x2="191.32" y2="132.23"/><line class="cls-13" x1="189.02" y1="132.15" x2="186.73" y2="132.15"/><line class="cls-13" x1="186.57" y1="127.07" x2="186.57" y2="132.51"/><line class="cls-13" x1="193.97" y1="127.13" x2="186.15" y2="127.13"/><polyline class="cls-14" points="177.18 75.27 177.05 89.58 140.27 89.52 140.34 75.42"/><line class="cls-13" x1="177.28" y1="73.31" x2="177.3" y2="69.67"/><line class="cls-13" x1="140.4" y1="73.29" x2="140.41" y2="69.65"/><polyline class="cls-14" points="133.96 67.22 133.83 52.91 97.05 52.96 97.12 67.07"/><line class="cls-13" x1="134.05" y1="71.37" x2="96.82" y2="71.38"/><polyline class="cls-14" points="133.85 75.08 133.72 89.38 96.94 89.33 97.01 75.22"/><line class="cls-13" x1="133.96" y1="73.11" x2="133.97" y2="69.47"/><line class="cls-13" x1="97.07" y1="73.09" x2="97.08" y2="69.45"/><line class="cls-13" x1="80.52" y1="132.01" x2="82.82" y2="132.01"/><line class="cls-13" x1="85.12" y1="131.94" x2="87.42" y2="131.94"/><line class="cls-13" x1="87.57" y1="126.86" x2="87.58" y2="132.3"/><line class="cls-13" x1="80.17" y1="126.91" x2="87.99" y2="126.91"/><polyline class="cls-13" points="87.89 106.32 87.89 105.96 87.89 98.02"/><line class="cls-13" x1="79.69" y1="105.89" x2="88.01" y2="105.9"/><line class="cls-13" x1="85.77" y1="105.94" x2="85.78" y2="97.88"/><polyline class="cls-12" points="53.99 186.61 53.69 176.82 87.5 142.42 97.89 142.12 102.34 137.08 125.03 137.12"/><line class="cls-13" x1="149.15" y1="137.37" x2="149.11" y2="135.53"/><line class="cls-13" x1="148.06" y1="131.32" x2="143.14" y2="126.48"/><line class="cls-13" x1="141" y1="125.39" x2="139.31" y2="125.43"/><line class="cls-13" x1="124.99" y1="137.42" x2="125.03" y2="135.58"/><line class="cls-13" x1="126.19" y1="131.34" x2="131.11" y2="126.5"/><line class="cls-13" x1="133.25" y1="125.41" x2="134.94" y2="125.44"/><line class="cls-13" x1="54.91" y1="125.5" x2="54.98" y2="122.07"/><line class="cls-15" x1="54.97" y1="119.57" x2="55.07" y2="112.49"/><path class="cls-15" d="M133.28,92.79" transform="translate(-12.88 -41.29)"/><path class="cls-15" d="M138.32,92.8" transform="translate(-12.88 -41.29)"/><polyline class="cls-13" points="52.92 102.9 53.06 102.9 64.23 102.91"/><rect class="cls-16" x="59.63" y="102.95" width="1.49" height="3.54"/><rect class="cls-16" x="62.63" y="102.95" width="1.49" height="3.54"/><line class="cls-13" x1="59.63" y1="102.95" x2="57.65" y2="106.36"/><line class="cls-15" x1="63.51" y1="132.2" x2="63.51" y2="125.48"/><line class="cls-13" x1="72.05" y1="97.89" x2="72.04" y2="132.82"/><line class="cls-15" x1="72.05" y1="125.41" x2="52.54" y2="125.38"/><line class="cls-15" x1="53.11" y1="132.18" x2="63.68" y2="132.19"/><line class="cls-15" x1="53.04" y1="132.45" x2="53.07" y2="128.7"/><polyline class="cls-13" points="66.54 132.96 80.72 132.94 80.87 132.94"/><line class="cls-13" x1="80.45" y1="126.58" x2="80.47" y2="133.16"/><line class="cls-13" x1="79.7" y1="106.21" x2="79.7" y2="97.91"/><polygon class="cls-17" points="66.56 106.69 66.44 125.49 72.05 125.41 72 106.69 66.56 106.69"/><path class="cls-18" d="M70.26,247" transform="translate(-12.88 -41.29)"/><line class="cls-13" x1="52.73" y1="106.37" x2="72.14" y2="106.7"/><line class="cls-13" x1="66.44" y1="125.49" x2="66.42" y2="106.53"/><polyline class="cls-13" points="70.2 106.7 70.16 99.62 53.15 99.59"/><polyline class="cls-13" points="72.21 97.84 52.84 97.82 52.84 100.02"/><line class="cls-13" x1="52.89" y1="106.64" x2="52.92" y2="102.84"/><rect class="cls-16" x="53.54" y="99.5" width="1.48" height="3.49"/><rect class="cls-16" x="55.01" y="99.52" width="1.49" height="3.5"/><rect class="cls-16" x="56.52" y="99.58" width="1.49" height="3.49"/><rect class="cls-16" x="58.02" y="99.54" width="1.49" height="3.5"/><rect class="cls-16" x="59.52" y="99.54" width="1.48" height="3.5"/><rect class="cls-16" x="61.03" y="99.54" width="1.49" height="3.5"/><rect class="cls-16" x="62.53" y="99.54" width="1.48" height="3.5"/><rect class="cls-16" x="60.99" y="103.09" width="1.49" height="3.54"/><path d="M72.14,152.61a0.81,0.81,0,0,1,0,.84,0.87,0.87,0,0,1-.51.34,0.83,0.83,0,0,1-.36,0,0.77,0.77,0,0,1-.34-0.17,0.79,0.79,0,0,1-.22-0.84,0.84,0.84,0,0,1,.74-0.54A0.81,0.81,0,0,1,72.14,152.61Z" transform="translate(-12.88 -41.29)"/><path d="M73.26,154.63a2.45,2.45,0,0,1,.09.77v1.86a0.52,0.52,0,0,1-.08.43,0.38,0.38,0,0,1-.35.09,0.37,0.37,0,0,1-.25-0.27l0-.3v-2a0.29,0.29,0,0,0-.15,0,2.57,2.57,0,0,0,0,.45v1.55c0,0.74,0,1.43,0,2.17V161a1.13,1.13,0,0,1-.1.67,0.47,0.47,0,0,1-.8-0.13l0-.17c0-.49,0-0.92,0-1.41v-2.15H71.39c0,1.2,0,2.4,0,3.59a0.5,0.5,0,0,1-.24.38,0.42,0.42,0,0,1-.39,0,0.53,0.53,0,0,1-.27-0.25l0-.14v-1.29c0-.37,0-0.82,0-1.23h0V157.7c0-.24,0-0.48,0-0.74v-1.69H70.27v2a0.54,0.54,0,0,1-.17.56,0.38,0.38,0,0,1-.38,0,0.56,0.56,0,0,1-.14-0.42c0-.3,0-0.94,0-0.94v-0.61c0-.06,0-0.16,0-0.22a1.6,1.6,0,0,1,.24-1.2A1.38,1.38,0,0,1,71,154c0.37,0,.73,0,1.11,0A1.13,1.13,0,0,1,73.26,154.63Z" transform="translate(-12.88 -41.29)"/><path d="M77.07,152.71a0.78,0.78,0,0,1,0,.78,0.8,0.8,0,0,1-1.45-.19,0.75,0.75,0,0,1,.21-0.75,0.78,0.78,0,0,1,.72-0.21A0.85,0.85,0,0,1,77.07,152.71Z" transform="translate(-12.88 -41.29)"/><path d="M77,154.07a1.06,1.06,0,0,1,.86.62L78,155.06l0.59,2a0.37,0.37,0,0,1-.05.33,0.33,0.33,0,0,1-.35.11,0.51,0.51,0,0,1-.28-0.41l-0.56-1.92a0.35,0.35,0,0,0-.17,0l0.14,0.51,0.52,1.77c0.14,0.46.27,0.92,0.41,1.38h-1l0,2.8a0.41,0.41,0,0,1-.18.24,0.34,0.34,0,0,1-.28,0,0.41,0.41,0,0,1-.28-0.24l0-.09v-2.74H76.29v2.76a0.4,0.4,0,0,1-.26.32,0.39,0.39,0,0,1-.39-0.09,0.34,0.34,0,0,1-.11-0.21v-2.77c-0.34,0-.65,0-1,0v0l0.74-2.53c0.09-.36.22-0.72,0.31-1.09a0.41,0.41,0,0,0-.16,0l-0.18.59-0.43,1.44a0.4,0.4,0,0,1-.3.3,0.36,0.36,0,0,1-.34-0.19,0.36,0.36,0,0,1,0-.25l0.25-.85h0v0l0.44-1.48a1.08,1.08,0,0,1,1-.65H77Z" transform="translate(-12.88 -41.29)"/><path class="cls-5" d="M77.08,158.72a0,0,0,0,0,0,0h0S77.07,158.72,77.08,158.72Z" transform="translate(-12.88 -41.29)"/><path d="M65.72,152.28a0.29,0.29,0,0,1,0,.24,0.25,0.25,0,0,1-.29.11,0.3,0.3,0,0,1-.18-0.21,0.21,0.21,0,0,1,.1-0.23A0.25,0.25,0,0,1,65.72,152.28Z" transform="translate(-12.88 -41.29)"/><path d="M65,152.25a0.26,0.26,0,0,1,0,.25,0.27,0.27,0,0,1-.16.15,0.26,0.26,0,0,1-.24-0.09,0.25,0.25,0,0,1,0-.29A0.25,0.25,0,0,1,65,152.25Z" transform="translate(-12.88 -41.29)"/><path d="M64.46,152.53a0.24,0.24,0,0,1-.33.3,0.28,0.28,0,0,1-.12-0.31,0.35,0.35,0,0,1,.18-0.14A0.25,0.25,0,0,1,64.46,152.53Z" transform="translate(-12.88 -41.29)"/><path d="M66.3,152.51a0.27,0.27,0,0,1-.29.44,0.29,0.29,0,0,1-.18-0.2,0.26,0.26,0,0,1,0-.23,0.43,0.43,0,0,1,.18-0.11A0.28,0.28,0,0,1,66.3,152.51Z" transform="translate(-12.88 -41.29)"/><path d="M65.33,152.91a0.23,0.23,0,0,1-.07.25,0.25,0.25,0,0,1-.24,0,0.3,0.3,0,0,1-.15-0.17,0.25,0.25,0,0,1,0-.22,0.61,0.61,0,0,1,.15-0.09A0.27,0.27,0,0,1,65.33,152.91Z" transform="translate(-12.88 -41.29)"/><path d="M64,152.93a0.22,0.22,0,0,1,0,.27,0.23,0.23,0,0,1-.28.09,0.24,0.24,0,0,1-.12-0.3,0.32,0.32,0,0,1,.15-0.13A0.26,0.26,0,0,1,64,152.93Z" transform="translate(-12.88 -41.29)"/><path d="M66.83,153a0.36,0.36,0,0,1,.06.31,0.35,0.35,0,0,1-.18.17,0.31,0.31,0,0,1-.37-0.37,0.37,0.37,0,0,1,.22-0.19A0.3,0.3,0,0,1,66.83,153Z" transform="translate(-12.88 -41.29)"/><path d="M65.91,153.11a0.27,0.27,0,0,1-.15.34,0.33,0.33,0,0,1-.28-0.09,0.26,0.26,0,0,1,0-.28,0.28,0.28,0,0,1,.19-0.14A0.27,0.27,0,0,1,65.91,153.11Z" transform="translate(-12.88 -41.29)"/><path d="M64.73,153.13a0.23,0.23,0,0,1-.08.26,0.23,0.23,0,0,1-.27,0,0.25,0.25,0,0,1-.11-0.3,0.3,0.3,0,0,1,.22-0.16A0.26,0.26,0,0,1,64.73,153.13Z" transform="translate(-12.88 -41.29)"/><path d="M66.39,153.58a0.31,0.31,0,0,1,0,.28A0.3,0.3,0,0,1,66,154a0.34,0.34,0,0,1-.19-0.23A0.29,0.29,0,0,1,66.39,153.58Z" transform="translate(-12.88 -41.29)"/><path d="M63.79,153.63a0.22,0.22,0,0,1-.31.26,0.22,0.22,0,0,1-.12-0.22,0.21,0.21,0,0,1,.16-0.21A0.23,0.23,0,0,1,63.79,153.63Z" transform="translate(-12.88 -41.29)"/><path d="M64.39,153.67a0.2,0.2,0,0,1-.08.23,0.21,0.21,0,0,1-.24,0,0.24,0.24,0,0,1-.1-0.29,0.3,0.3,0,0,1,.18-0.14A0.25,0.25,0,0,1,64.39,153.67Z" transform="translate(-12.88 -41.29)"/><path d="M63.75,154.24a0.23,0.23,0,0,1,0,.24,0.22,0.22,0,0,1-.26,0,0.23,0.23,0,0,1-.11-0.29,0.3,0.3,0,0,1,.17-0.13A0.25,0.25,0,0,1,63.75,154.24Z" transform="translate(-12.88 -41.29)"/><path d="M64.34,154.27a0.2,0.2,0,0,1,0,.19,0.22,0.22,0,0,1-.27.11,0.27,0.27,0,0,1-.16-0.2,0.33,0.33,0,0,1,.08-0.18A0.22,0.22,0,0,1,64.34,154.27Z" transform="translate(-12.88 -41.29)"/><path d="M68,156l0,3.76c0,0.07-.07,0-0.11,0l-2.74,0-3.47-4a0.72,0.72,0,0,1,.51-1.07h0.08L68,154.79V156Z" transform="translate(-12.88 -41.29)"/><line class="cls-13" x1="55.31" y1="110.03" x2="55.38" y2="106.61"/><polygon class="cls-19" points="53.18 132.28 72.03 132.35 72.13 125.51 53.13 125.3 53.18 132.28"/><path class="cls-20" d="M164.63,181.39" transform="translate(-12.88 -41.29)"/><line class="cls-15" x1="211.13" y1="132.57" x2="211.13" y2="125.84"/><line class="cls-15" x1="202.59" y1="125.77" x2="221.55" y2="125.79"/><line class="cls-15" x1="221.53" y1="132.55" x2="210.96" y2="132.55"/><polyline class="cls-13" points="208.32 132.8 194.13 132.78 193.99 132.78"/><polygon class="cls-21" points="208.08 107.06 208.2 125.85 202.59 125.78 202.64 107.06 208.08 107.06"/><path class="cls-22" d="M230.14,247.38" transform="translate(-12.88 -41.29)"/><line class="cls-13" x1="218.58" y1="125.71" x2="218.51" y2="122.28"/><line class="cls-15" x1="218.52" y1="119.78" x2="218.42" y2="112.7"/><line class="cls-13" x1="221.9" y1="106.74" x2="202.49" y2="107.07"/><line class="cls-13" x1="207.87" y1="125.79" x2="207.87" y2="107.01"/><polyline class="cls-13" points="204.44 107.06 204.47 99.98 221.49 99.95"/><polyline class="cls-13" points="202.43 98.21 221.79 98.18 221.79 100.39"/><path class="cls-15" d="M232.14,143.91" transform="translate(-12.88 -41.29)"/><path class="cls-15" d="M227.1,143.92" transform="translate(-12.88 -41.29)"/><polyline class="cls-13" points="221.86 103.4 221.72 103.4 210.54 103.41"/><rect class="cls-16" x="219.61" y="99.87" width="1.49" height="3.49"/><rect class="cls-16" x="218.14" y="99.88" width="1.49" height="3.5"/><rect class="cls-16" x="216.64" y="99.95" width="1.48" height="3.5"/><rect class="cls-16" x="215.13" y="99.9" width="1.49" height="3.5"/><rect class="cls-16" x="213.63" y="99.9" width="1.48" height="3.5"/><rect class="cls-16" x="212.13" y="99.9" width="1.48" height="3.5"/><rect class="cls-16" x="210.62" y="99.9" width="1.48" height="3.5"/><rect class="cls-16" x="213.67" y="103.45" width="1.48" height="3.54"/><rect class="cls-16" x="212.16" y="103.45" width="1.49" height="3.54"/><rect class="cls-16" x="210.66" y="103.45" width="1.48" height="3.54"/><line class="cls-13" x1="215.15" y1="103.45" x2="217.13" y2="106.86"/><path d="M224.21,152.61a0.81,0.81,0,0,1,0,.84,0.87,0.87,0,0,1-.51.34,0.83,0.83,0,0,1-.36,0,0.76,0.76,0,0,1-.34-0.17,0.79,0.79,0,0,1-.22-0.84,0.85,0.85,0,0,1,.74-0.54A0.82,0.82,0,0,1,224.21,152.61Z" transform="translate(-12.88 -41.29)"/><path d="M225.33,154.62a2.53,2.53,0,0,1,.08.77v1.86a0.52,0.52,0,0,1-.08.43,0.37,0.37,0,0,1-.35.09,0.37,0.37,0,0,1-.25-0.27l0-.3v-2a0.3,0.3,0,0,0-.16,0,2.57,2.57,0,0,0,0,.45v1.55c0,0.74,0,1.44,0,2.17V161a1.13,1.13,0,0,1-.1.67,0.47,0.47,0,0,1-.8-0.13l0-.17c0-.49,0-0.92,0-1.41V157.8h-0.16c0,1.2,0,2.4,0,3.59a0.51,0.51,0,0,1-.24.38,0.42,0.42,0,0,1-.39,0,0.53,0.53,0,0,1-.27-0.25l0-.14v-1.29c0-.37,0-0.82,0-1.23h0v-1.21c0-.24,0-0.48,0-0.74v-1.69h-0.16v2a0.53,0.53,0,0,1-.17.56,0.38,0.38,0,0,1-.38,0,0.57,0.57,0,0,1-.14-0.42c0-.3,0-0.94,0-0.94v-0.61a1.65,1.65,0,0,0,0-.22,1.61,1.61,0,0,1,.24-1.2,1.38,1.38,0,0,1,1.19-.37c0.36,0,.73,0,1.11,0A1.13,1.13,0,0,1,225.33,154.62Z" transform="translate(-12.88 -41.29)"/><path d="M229.13,152.7a0.79,0.79,0,0,1,0,.78,0.79,0.79,0,0,1-1.45-.19,0.75,0.75,0,0,1,.21-0.75,0.78,0.78,0,0,1,.72-0.21A0.86,0.86,0,0,1,229.13,152.7Z" transform="translate(-12.88 -41.29)"/><path d="M229.07,154.06a1.07,1.07,0,0,1,.86.62l0.13,0.37,0.59,2a0.36,0.36,0,0,1-.06.33,0.33,0.33,0,0,1-.35.11,0.51,0.51,0,0,1-.28-0.41l-0.56-1.92a0.35,0.35,0,0,0-.17,0l0.14,0.51,0.52,1.77c0.14,0.46.27,0.92,0.4,1.38h-1l0,2.8a0.42,0.42,0,0,1-.17.24,0.34,0.34,0,0,1-.28,0,0.41,0.41,0,0,1-.28-0.24l0-.09v-2.74h-0.16v2.76a0.39,0.39,0,0,1-.27.32,0.39,0.39,0,0,1-.39-0.09,0.35,0.35,0,0,1-.11-0.22v-2.77c-0.34,0-.65,0-1,0v0l0.74-2.53c0.09-.36.22-0.72,0.31-1.09a0.49,0.49,0,0,0-.16,0l-0.18.59-0.43,1.44a0.4,0.4,0,0,1-.3.3,0.36,0.36,0,0,1-.34-0.19,0.35,0.35,0,0,1,0-.25l0.25-.85h0v0l0.44-1.48a1.07,1.07,0,0,1,1-.65h1.15Z" transform="translate(-12.88 -41.29)"/><path class="cls-5" d="M229.15,158.72s0,0,0,0h0S229.14,158.71,229.15,158.72Z" transform="translate(-12.88 -41.29)"/><path d="M233.79,152.5a0.29,0.29,0,0,0,0,.24,0.25,0.25,0,0,0,.29.11,0.29,0.29,0,0,0,.18-0.21,0.21,0.21,0,0,0-.09-0.23A0.25,0.25,0,0,0,233.79,152.5Z" transform="translate(-12.88 -41.29)"/><path d="M234.5,152.46a0.26,0.26,0,0,0,0,.25,0.27,0.27,0,0,0,.16.15,0.26,0.26,0,0,0,.23-0.08,0.26,0.26,0,0,0,0-.29A0.25,0.25,0,0,0,234.5,152.46Z" transform="translate(-12.88 -41.29)"/><path d="M235.05,152.75a0.24,0.24,0,0,0,.33.3,0.28,0.28,0,0,0,.12-0.31,0.36,0.36,0,0,0-.18-0.14A0.26,0.26,0,0,0,235.05,152.75Z" transform="translate(-12.88 -41.29)"/><path d="M233.21,152.72a0.27,0.27,0,0,0,.28.44,0.29,0.29,0,0,0,.18-0.2,0.27,0.27,0,0,0,0-.23,0.45,0.45,0,0,0-.18-0.11A0.29,0.29,0,0,0,233.21,152.72Z" transform="translate(-12.88 -41.29)"/><path d="M234.18,153.12a0.23,0.23,0,0,0,.07.25,0.25,0.25,0,0,0,.24,0,0.3,0.3,0,0,0,.14-0.17,0.25,0.25,0,0,0,0-.22,0.59,0.59,0,0,0-.15-0.09A0.27,0.27,0,0,0,234.18,153.12Z" transform="translate(-12.88 -41.29)"/><path d="M235.54,153.15a0.22,0.22,0,0,0,0,.26,0.23,0.23,0,0,0,.28.1,0.24,0.24,0,0,0,.12-0.3,0.31,0.31,0,0,0-.15-0.13A0.27,0.27,0,0,0,235.54,153.15Z" transform="translate(-12.88 -41.29)"/><path d="M232.68,153.23a0.35,0.35,0,0,0-.06.3,0.36,0.36,0,0,0,.18.17,0.31,0.31,0,0,0,.37-0.37,0.37,0.37,0,0,0-.22-0.19A0.3,0.3,0,0,0,232.68,153.23Z" transform="translate(-12.88 -41.29)"/><path d="M233.6,153.33a0.26,0.26,0,0,0,.15.34,0.33,0.33,0,0,0,.28-0.08,0.26,0.26,0,0,0,0-.28,0.28,0.28,0,0,0-.19-0.14A0.27,0.27,0,0,0,233.6,153.33Z" transform="translate(-12.88 -41.29)"/><path d="M234.78,153.35a0.23,0.23,0,0,0,.08.26,0.22,0.22,0,0,0,.26,0,0.25,0.25,0,0,0,.11-0.3,0.3,0.3,0,0,0-.22-0.16A0.26,0.26,0,0,0,234.78,153.35Z" transform="translate(-12.88 -41.29)"/><path d="M233.12,153.79a0.31,0.31,0,0,0,0,.28,0.3,0.3,0,0,0,.34.12,0.34,0.34,0,0,0,.19-0.22,0.31,0.31,0,0,0-.11-0.28A0.3,0.3,0,0,0,233.12,153.79Z" transform="translate(-12.88 -41.29)"/><path d="M235.72,153.85a0.19,0.19,0,0,0,.06.23,0.2,0.2,0,0,0,.24,0,0.23,0.23,0,0,0,.12-0.22,0.21,0.21,0,0,0-.16-0.21A0.22,0.22,0,0,0,235.72,153.85Z" transform="translate(-12.88 -41.29)"/><path d="M235.12,153.88a0.21,0.21,0,0,0,.08.23,0.21,0.21,0,0,0,.24,0,0.24,0.24,0,0,0,.1-0.29,0.29,0.29,0,0,0-.18-0.15A0.26,0.26,0,0,0,235.12,153.88Z" transform="translate(-12.88 -41.29)"/><path d="M235.76,154.46a0.23,0.23,0,0,0,0,.24,0.22,0.22,0,0,0,.26,0,0.23,0.23,0,0,0,.11-0.29,0.29,0.29,0,0,0-.17-0.13A0.25,0.25,0,0,0,235.76,154.46Z" transform="translate(-12.88 -41.29)"/><path d="M235.17,154.48a0.2,0.2,0,0,0,0,.19,0.22,0.22,0,0,0,.27.11,0.28,0.28,0,0,0,.16-0.2,0.34,0.34,0,0,0-.08-0.18A0.22,0.22,0,0,0,235.17,154.48Z" transform="translate(-12.88 -41.29)"/><path d="M231.51,156.23l0,3.76c0,0.07.08,0,.11,0l2.74,0,3.47-4a0.71,0.71,0,0,0-.51-1.07h-0.08l-5.76.06v1.23Z" transform="translate(-12.88 -41.29)"/><line class="cls-13" x1="218.44" y1="110.25" x2="218.37" y2="106.83"/><polygon class="cls-23" points="221.53 132.55 202.68 132.61 202.59 125.78 221.58 125.56 221.53 132.55"/><path class="cls-24" d="M135.85,181.66" transform="translate(-12.88 -41.29)"/><line class="cls-13" x1="221.33" y1="125.71" x2="221.33" y2="132.44"/><line class="cls-13" x1="103.32" y1="147.49" x2="129.76" y2="147.52"/><polygon class="cls-13" points="127.55 141.67 103.3 141.74 103.3 143.97 127.55 143.9 127.55 141.67"/><rect class="cls-16" x="123.49" y="137.36" width="1.57" height="4.3"/><rect class="cls-16" x="121.94" y="137.23" width="1.57" height="4.3"/><rect class="cls-25" x="118.8" y="137.39" width="1.57" height="4.31"/><rect class="cls-25" x="118.8" y="137.39" width="1.57" height="4.31"/><rect class="cls-16" x="118.8" y="137.39" width="1.57" height="4.31"/><rect class="cls-16" x="120.37" y="137.29" width="1.57" height="4.3"/><rect class="cls-16" x="115.65" y="137.34" width="1.57" height="4.31"/><rect class="cls-16" x="117.22" y="137.44" width="1.57" height="4.3"/><rect class="cls-16" x="114.05" y="137.47" width="1.57" height="4.3"/><rect class="cls-16" x="112.5" y="137.34" width="1.57" height="4.31"/><rect class="cls-25" x="109.36" y="137.5" width="1.57" height="4.3"/><rect class="cls-25" x="109.36" y="137.5" width="1.57" height="4.3"/><rect class="cls-16" x="109.36" y="137.5" width="1.57" height="4.3"/><rect class="cls-16" x="110.93" y="137.39" width="1.57" height="4.31"/><rect class="cls-16" x="118.07" y="143.87" width="1.35" height="3.48"/><rect class="cls-16" x="116.74" y="143.89" width="1.35" height="3.65"/><rect class="cls-25" x="114.02" y="143.89" width="1.35" height="3.48"/><rect class="cls-25" x="114.02" y="143.89" width="1.35" height="3.48"/><rect class="cls-16" x="114.02" y="143.89" width="1.35" height="3.48"/><rect class="cls-16" x="127.11" y="186.33" width="3.65" height="1.35" transform="translate(-72.76 272) rotate(-89.19)"/><rect class="cls-16" x="111.31" y="143.85" width="1.35" height="3.48"/><rect class="cls-16" x="112.66" y="143.94" width="1.35" height="3.48"/><rect class="cls-16" x="109.93" y="143.96" width="1.35" height="3.48"/><rect class="cls-16" x="108.59" y="143.85" width="1.35" height="3.48"/><rect class="cls-16" x="107.23" y="143.89" width="1.35" height="3.48"/><line class="cls-13" x1="107.05" y1="144.14" x2="105.94" y2="147.39"/><path d="M117.39,189a0.17,0.17,0,0,1-.07.13A0.15,0.15,0,0,1,117.39,189Z" transform="translate(-12.88 -41.29)"/><line class="cls-13" x1="97.9" y1="142.38" x2="103.35" y2="142.38"/><line class="cls-13" x1="103.35" y1="144.09" x2="103.39" y2="147.69"/><rect class="cls-16" x="122.14" y="143.96" width="1.35" height="3.48"/><rect class="cls-16" x="120.81" y="143.98" width="1.35" height="3.65"/><rect class="cls-16" x="131.18" y="186.42" width="3.65" height="1.35" transform="translate(-68.82 276.17) rotate(-89.2)"/><path class="cls-26" d="M164,181.53" transform="translate(-12.88 -41.29)"/><line class="cls-13" x1="170.8" y1="147.36" x2="144.37" y2="147.4"/><polygon class="cls-13" points="146.58 141.54 170.83 141.62 170.83 143.84 146.58 143.77 146.58 141.54"/><rect class="cls-16" x="149.07" y="137.24" width="1.57" height="4.3"/><rect class="cls-16" x="150.62" y="137.11" width="1.57" height="4.3"/><rect class="cls-25" x="153.76" y="137.27" width="1.57" height="4.3"/><rect class="cls-25" x="153.76" y="137.27" width="1.57" height="4.3"/><rect class="cls-16" x="153.76" y="137.27" width="1.57" height="4.3"/><rect class="cls-16" x="152.19" y="137.16" width="1.57" height="4.3"/><rect class="cls-16" x="156.91" y="137.21" width="1.57" height="4.3"/><rect class="cls-16" x="155.33" y="137.32" width="1.57" height="4.3"/><rect class="cls-16" x="158.51" y="137.34" width="1.57" height="4.3"/><rect class="cls-16" x="160.06" y="137.21" width="1.57" height="4.3"/><rect class="cls-25" x="163.2" y="137.37" width="1.57" height="4.3"/><rect class="cls-25" x="163.2" y="137.37" width="1.57" height="4.3"/><rect class="cls-16" x="163.2" y="137.37" width="1.57" height="4.3"/><rect class="cls-16" x="161.63" y="137.27" width="1.57" height="4.3"/><rect class="cls-16" x="154.7" y="143.75" width="1.35" height="3.48"/><rect class="cls-16" x="156.04" y="143.77" width="1.35" height="3.65"/><rect class="cls-25" x="158.75" y="143.77" width="1.35" height="3.48"/><rect class="cls-25" x="158.75" y="143.77" width="1.35" height="3.48"/><rect class="cls-16" x="158.75" y="143.77" width="1.35" height="3.48"/><rect class="cls-16" x="170.28" y="185.06" width="1.35" height="3.65" transform="translate(-15.43 -38.92) rotate(-0.79)"/><rect class="cls-16" x="161.47" y="143.72" width="1.35" height="3.48"/><rect class="cls-16" x="160.11" y="143.81" width="1.35" height="3.48"/><rect class="cls-16" x="162.85" y="143.83" width="1.35" height="3.48"/><rect class="cls-16" x="164.18" y="143.72" width="1.35" height="3.48"/><rect class="cls-16" x="165.54" y="143.77" width="1.35" height="3.48"/><line class="cls-13" x1="167.08" y1="144.02" x2="168.19" y2="147.26"/><path d="M182.5,188.9a0.16,0.16,0,0,0,.07.13A0.15,0.15,0,0,0,182.5,188.9Z" transform="translate(-12.88 -41.29)"/><line class="cls-13" x1="176.22" y1="142.25" x2="170.78" y2="142.25"/><line class="cls-13" x1="170.78" y1="143.96" x2="170.73" y2="147.57"/><rect class="cls-16" x="150.63" y="143.83" width="1.35" height="3.48"/><rect class="cls-16" x="151.96" y="143.85" width="1.35" height="3.65"/><rect class="cls-16" x="166.2" y="185.14" width="1.35" height="3.65" transform="translate(-15.42 -38.99) rotate(-0.78)"/><text x="-12.88" y="-41.29"/><text x="-12.88" y="-41.29"/><text x="-12.88" y="-41.29"/><text x="-12.88" y="-41.29"/><text x="-12.88" y="-41.29"/><text x="-12.88" y="-41.29"/><text x="-12.88" y="-41.29"/><text x="-12.88" y="-41.29"/><rect class="cls-8" x="109.24" y="144.28" width="35.81" height="23.87" transform="translate(-86.1 94.38) rotate(-45)"/><path class="cls-27" d="M186.55,185.18" transform="translate(-12.88 -41.29)"/><rect class="cls-8" x="161.91" y="138.35" width="23.87" height="35.51" transform="translate(-72.35 127.36) rotate(-45)"/><circle class="cls-5" cx="189.56" cy="112.75" r="5.34"/><circle class="cls-5" cx="114.86" cy="114.53" r="5.34"/><circle class="cls-5" cx="160.94" cy="114.25" r="5.34"/><circle class="cls-5" cx="78.31" cy="116.62" r="5.34"/><path class="cls-5" d="M116.88,137.53h-0.19v1.92h-0.38v-4.23h0.6a1,1,0,0,1,.94,1.12A1,1,0,0,1,116.88,137.53Zm0-1.93h-0.21v1.56h0.21a0.64,0.64,0,0,0,.56-0.79A0.62,0.62,0,0,0,116.9,135.6Z" transform="translate(-12.88 -41.29)"/><path class="cls-5" d="M119.11,139.52c-0.62,0-.83-0.76-0.83-2.18s0.22-2.18.84-2.18,0.69,0.4.8,1l-0.38.1c-0.12-.62-0.23-0.77-0.43-0.77s-0.44.58-.44,1.81,0.14,1.81.46,1.81,0.33-.21.43-0.74l0.37,0.11A0.94,0.94,0,0,1,119.11,139.52Z" transform="translate(-12.88 -41.29)"/><path class="cls-5" d="M100.9,160.41a2.33,2.33,0,0,1-.15.37,4.09,4.09,0,0,1-.22.39,1.7,1.7,0,0,1-.39.45,0.66,0.66,0,0,1-.39.14,1.32,1.32,0,0,1-.42-0.09,1.44,1.44,0,0,0-.46-0.09,1.16,1.16,0,0,0-.43.1,1.12,1.12,0,0,1-.4.1,0.7,0.7,0,0,1-.46-0.2,2.21,2.21,0,0,1-.45-0.59,3.62,3.62,0,0,1-.34-0.77,2.65,2.65,0,0,1-.11-0.76,1.78,1.78,0,0,1,.34-1.13,1.06,1.06,0,0,1,.86-0.44,2,2,0,0,1,.53.09,1.93,1.93,0,0,0,.42.09,1.58,1.58,0,0,0,.43-0.1,1.66,1.66,0,0,1,.52-0.1,1.26,1.26,0,0,1,.34,0,1.08,1.08,0,0,1,.3.15l0.16,0.13a1.63,1.63,0,0,1,.16.18,1.6,1.6,0,0,0-.21.19l-0.14.17a1.12,1.12,0,0,0-.15.3,1,1,0,0,0-.05.33,1.17,1.17,0,0,0,.21.68A0.93,0.93,0,0,0,100.9,160.41Zm-1.14-3.54a1.16,1.16,0,0,1-.09.41,1.22,1.22,0,0,1-.28.42l-0.16.13-0.17.08-0.13,0-0.19,0a1.39,1.39,0,0,1,.24-0.78,1.19,1.19,0,0,1,.75-0.45l0,0.07A0.59,0.59,0,0,1,99.76,156.87Z" transform="translate(-12.88 -41.29)"/><circle class="cls-28" cx="169.26" cy="214.12" r="3.46"/><text class="cls-29" transform="translate(177.37 215.95)">North</text><path d="M180,257.06c0.06-1,.11-1.93.21-2.87a0.65,0.65,0,0,1,.44-0.41,0.62,0.62,0,0,1,.63.23,0.61,0.61,0,0,1,.09.44c0,0.33-.07.67-0.1,1,0.66-.69,1.37-1.47,2-2.12a0.78,0.78,0,0,1,.72,0,0.85,0.85,0,0,1,.3.45,0.75,0.75,0,0,1-.15.57l-1.46,1.44c-0.15.1-.24,0.29-0.39,0.38l-0.12.13c0.49,0.06,1.13-.36,1.54.09a0.58,0.58,0,0,1,.1.59,0.67,0.67,0,0,1-.26.31l-0.3.07-2.69.27A0.63,0.63,0,0,1,180,257.06Z" transform="translate(-12.88 -41.29)"/><circle class="cls-30" cx="95.57" cy="214.12" r="3.46"/><text class="cls-29" transform="translate(102.17 215.7)">Non-public areas</text><rect class="cls-5" x="202.62" y="125.9" width="7.27" height="10.49"/><path d="M217.67,167.66c0.39,0.45.78,0.9,1.14,1.37a0.4,0.4,0,0,1,0,.37,0.36,0.36,0,0,1-.61,0l-0.37-.48c0,0.59,0,1.24,0,1.81a0.48,0.48,0,0,1-.33.29,0.53,0.53,0,0,1-.33-0.06,0.48,0.48,0,0,1-.18-0.32l0-1.26c0-.11,0-0.23,0-0.34v-0.11a1.31,1.31,0,0,1-.72.62,0.35,0.35,0,0,1-.29-0.22,0.41,0.41,0,0,1,0-.25l0.1-.16,1.08-1.27A0.39,0.39,0,0,1,217.67,167.66Z" transform="translate(-12.88 -41.29)"/><path d="M220.78,167.81a0.49,0.49,0,0,1,0,.19c0,0.55,0,1.15,0,1.7l0.46-.57a0.39,0.39,0,0,1,.4,0,0.42,0.42,0,0,1,.18.24,1.49,1.49,0,0,1-.51.81l-0.66.77a0.39,0.39,0,0,1-.39.11,0.79,0.79,0,0,1-.3-0.26l-0.85-1a0.47,0.47,0,0,1-.15-0.37,0.36,0.36,0,0,1,.18-0.29,0.39,0.39,0,0,1,.32,0,3.6,3.6,0,0,1,.53.61v-0.28l0-1.4a0.43,0.43,0,0,1,.52-0.43A0.45,0.45,0,0,1,220.78,167.81Z" transform="translate(-12.88 -41.29)"/><path d="M221,171.3a0.85,0.85,0,0,1,.77.39,2.45,2.45,0,0,1,.13,1.2v1.31h0c0,0.71,0,1.48,0,2.17a0.82,0.82,0,0,1-.5.68,2.92,2.92,0,0,1-.83.05H217a1,1,0,0,1-1-.36,1.82,1.82,0,0,1-.13-1.05c0-.61,0-1.13,0-1.75V172.2a0.83,0.83,0,0,1,.47-0.83,1.19,1.19,0,0,1,.31-0.08H221Z" transform="translate(-12.88 -41.29)"/><path class="cls-5" d="M221,172.12c0,0.2,0,.4,0,0.57v3.6h-4.25v-4.17H221Z" transform="translate(-12.88 -41.29)"/><path d="M217.84,172.83a0.29,0.29,0,0,1-.06.28,0.32,0.32,0,0,1-.24.09,0.27,0.27,0,0,1-.11-0.49A0.28,0.28,0,0,1,217.84,172.83Z" transform="translate(-12.88 -41.29)"/><path d="M220.44,172.81a0.28,0.28,0,0,1,0,.27,0.34,0.34,0,0,1-.17.12,0.37,0.37,0,0,1-.22-0.06,0.26,0.26,0,0,1,.07-0.45A0.28,0.28,0,0,1,220.44,172.81Z" transform="translate(-12.88 -41.29)"/><path d="M219.13,172.81a0.27,0.27,0,0,1,0,.29,0.27,0.27,0,0,1-.26.1,0.32,0.32,0,0,1-.2-0.17,0.26,0.26,0,0,1,.05-0.27,0.28,0.28,0,0,1,.27-0.08A0.32,0.32,0,0,1,219.13,172.81Z" transform="translate(-12.88 -41.29)"/><polygon class="cls-5" points="206.18 131.53 206.18 131.52 206.19 131.52 206.18 131.53"/><path d="M218.08,173.3a0.3,0.3,0,0,1,.12.13c0,0.38,0,.76,0,1.14a0.17,0.17,0,0,1-.09.09,0.39,0.39,0,0,0-.16,0c0,0.47,0,.89,0,1.37a0.22,0.22,0,0,1-.12.13,0.18,0.18,0,0,1-.16,0,0.16,0.16,0,0,1-.06-0.1v-1.39h0c0,0.48,0,.89,0,1.37a0.21,0.21,0,0,1-.15.15,0.21,0.21,0,0,1-.17-0.07l0-.07c0-.48,0-0.9,0-1.38a0.23,0.23,0,0,1-.24-0.12v-1.12a0.2,0.2,0,0,1,.11-0.13A9.23,9.23,0,0,1,218.08,173.3Z" transform="translate(-12.88 -41.29)"/><path d="M219.37,173.3a0.24,0.24,0,0,1,.13.12c0,0.38,0,.76,0,1.15a0.18,0.18,0,0,1-.13.1h-0.12c0,0.45,0,.91,0,1.36a0.24,0.24,0,0,1-.12.16,0.22,0.22,0,0,1-.19,0l0-.07c0-.47,0-0.93,0-1.41h0V176a0.19,0.19,0,0,1-.15.15,0.17,0.17,0,0,1-.15,0l-0.05-.08v-1.4a0.25,0.25,0,0,1-.24-0.1c0-.37,0-0.73,0-1.11a0.21,0.21,0,0,1,.12-0.16l0.06,0C218.74,173.3,219.06,173.29,219.37,173.3Z" transform="translate(-12.88 -41.29)"/><path d="M220.66,173.3a0.19,0.19,0,0,1,.15.1l0,0.09v1.06a0.18,0.18,0,0,1-.15.12h-0.1c0,0.44,0,.93,0,1.37a0.21,0.21,0,0,1-.13.14,0.18,0.18,0,0,1-.18,0l0-.06c0-.45,0-0.95,0-1.41h0V176a0.23,0.23,0,0,1-.12.15,0.21,0.21,0,0,1-.17,0,0.16,0.16,0,0,1-.07-0.16v-1.33a0.38,0.38,0,0,1-.2,0l0-.07v-1.12a0.21,0.21,0,0,1,.12-0.12l0.09,0h0.88Z" transform="translate(-12.88 -41.29)"/><text x="-12.88" y="-41.29"/><circle class="cls-1" cx="161.01" cy="114.05" r="5.14"/><circle class="cls-1" cx="114.81" cy="114.65" r="5.14"/><circle class="cls-1" cx="78.21" cy="116.86" r="5.14"/><circle class="cls-1" cx="190" cy="112.7" r="5.14"/><text x="-12.88" y="-41.29"/><text class="cls-31" transform="translate(74.69 119.1)"> <tspan class="cls-32" x="1.77" y="0">3 </tspan></text><text class="cls-33" transform="translate(159.24 116.22)">4</text><text class="cls-33" transform="translate(113.04 116.82)">4</text><text x="-12.88" y="-41.29"/><text class="cls-33" transform="translate(188.04 114.97)">2</text><circle class="cls-5" cx="156.11" cy="62.48" r="5.34"/><circle class="cls-1" cx="156.06" cy="62.6" r="5.14"/><text class="cls-33" transform="translate(154.64 64.61)">7</text><text class="cls-33" transform="translate(154.64 64.61)">7</text><circle class="cls-5" cx="157.01" cy="80.25" r="5.34"/><circle class="cls-1" cx="156.96" cy="80.38" r="5.14"/><text class="cls-33" transform="translate(155.54 82.39)">8</text><text class="cls-33" transform="translate(155.54 82.39)">8</text><circle class="cls-5" cx="114.64" cy="62.4" r="5.34"/><circle class="cls-1" cx="114.58" cy="62.53" r="5.14"/><text class="cls-33" transform="translate(113.17 64.54)">6</text><text class="cls-33" transform="translate(113.17 64.54)">6</text><circle class="cls-5" cx="115.39" cy="79.58" r="5.34"/><circle class="cls-1" cx="115.33" cy="79.7" r="5.14"/><text class="cls-33" transform="translate(113.92 81.71)">5</text><text class="cls-33" transform="translate(113.92 81.71)">5</text><circle class="cls-5" cx="137.96" cy="30.98" r="5.34"/><circle class="cls-1" cx="137.91" cy="31.1" r="5.14"/><text class="cls-33" transform="translate(136.49 33.11)">9</text><text class="cls-33" transform="translate(136.49 33.11)">9</text><circle class="cls-5" cx="224.16" cy="136.03" r="5.34"/><circle class="cls-1" cx="224.11" cy="136.15" r="5.14"/><text class="cls-33" transform="translate(222.69 138.16)">1</text><text class="cls-33" transform="translate(222.69 138.16)">1</text><circle class="cls-5" cx="49.76" cy="137.63" r="5.34"/><circle class="cls-1" cx="49.71" cy="137.75" r="5.14"/><text class="cls-33" transform="translate(48.29 139.76)">1</text><text class="cls-33" transform="translate(48.29 139.76)">1</text><line class="cls-13" x1="211.13" y1="125.84" x2="211.13" y2="132.57"/><line class="cls-13" x1="63.51" y1="125.48" x2="63.51" y2="132.2"/></svg>