<svg id="Layer_3" data-name="Layer 3" xmlns="http://www.w3.org/2000/svg" xmlns:xlink="http://www.w3.org/1999/xlink" viewBox="0 0 244.15 236"><defs><style>.cls-1,.cls-10,.cls-11,.cls-12,.cls-13,.cls-14,.cls-15,.cls-16,.cls-2,.cls-24,.cls-25,.cls-26,.cls-7,.cls-8,.cls-9{fill:none;}.cls-13,.cls-2{stroke:#000;}.cls-2{stroke-width:0.72px;}.cls-17,.cls-3{fill:url(#_10_lpi-10_);}.cls-11,.cls-17,.cls-24,.cls-25,.cls-4,.cls-8,.cls-9{stroke:#f2f2f2;}.cls-13,.cls-17,.cls-4{stroke-miterlimit:10;}.cls-4{fill:url(#_10_lpi-10_3);}.cls-5{fill:#008cff;}.cls-6{fill:#009d80;}.cls-7{stroke:#231f20;}.cls-9{stroke-width:0.88px;}.cls-10{stroke:#232021;}.cls-11{stroke-width:2px;}.cls-12{stroke:#232022;}.cls-14{stroke:#009d80;stroke-width:0.65px;}.cls-15{stroke:#9c9ea1;}.cls-16{stroke:#cc3f4c;stroke-width:0.43px;}.cls-18,.cls-28{fill:#fff;}.cls-19{font-size:6.07px;}.cls-19,.cls-20,.cls-22,.cls-23,.cls-28{font-family:Helvetica;font-weight:700;}.cls-20{font-size:5.15px;}.cls-21{fill:#9c9ea1;}.cls-21,.cls-22{white-space:pre;}.cls-22,.cls-23{font-size:5.15px;}.cls-24{stroke-width:0.5px;}.cls-25{stroke-width:0.25px;}.cls-26,.cls-27{stroke:#fff;stroke-width:0.41px;}.cls-27{fill:url(#_10_lpi-10_21);}.cls-28{font-size:6px;}</style><pattern id="_10_lpi-10_" data-name="*10 lpi-10%" width="72" height="72" patternTransform="translate(-11.19 43.45) rotate(-45) scale(0.38)" patternUnits="userSpaceOnUse" viewBox="0 0 72 72"><rect class="cls-1" width="72" height="72"/><line class="cls-2" x1="-0.25" y1="68.4" x2="72.25" y2="68.4"/><line class="cls-2" x1="-0.25" y1="54" x2="72.25" y2="54"/><line class="cls-2" x1="-0.25" y1="39.6" x2="72.25" y2="39.6"/><line class="cls-2" x1="-0.25" y1="25.2" x2="72.25" y2="25.2"/><line class="cls-2" x1="-0.25" y1="10.8" x2="72.25" y2="10.8"/><line class="cls-2" x1="-20" y1="10.8" x2="-6" y2="10.8"/><line class="cls-2" x1="-0.25" y1="61.2" x2="72.25" y2="61.2"/><line class="cls-2" x1="-0.25" y1="46.8" x2="72.25" y2="46.8"/><line class="cls-2" x1="-0.25" y1="32.4" x2="72.25" y2="32.4"/><line class="cls-2" x1="-0.25" y1="18" x2="72.25" y2="18"/><line class="cls-2" x1="-0.25" y1="3.6" x2="72.25" y2="3.6"/><line class="cls-2" x1="-20" y1="3.6" x2="-6" y2="3.6"/></pattern><pattern id="_10_lpi-10_3" data-name="*10 lpi-10%" width="72" height="72" patternTransform="translate(16.73 75.99) rotate(-45) scale(0.38)" patternUnits="userSpaceOnUse" viewBox="0 0 72 72"><rect class="cls-1" width="72" height="72"/><line class="cls-2" x1="-0.25" y1="68.4" x2="72.25" y2="68.4"/><line class="cls-2" x1="-0.25" y1="54" x2="72.25" y2="54"/><line class="cls-2" x1="-0.25" y1="39.6" x2="72.25" y2="39.6"/><line class="cls-2" x1="-0.25" y1="25.2" x2="72.25" y2="25.2"/><line class="cls-2" x1="-0.25" y1="10.8" x2="72.25" y2="10.8"/><line class="cls-2" x1="-20" y1="10.8" x2="-6" y2="10.8"/><line class="cls-2" x1="-0.25" y1="61.2" x2="72.25" y2="61.2"/><line class="cls-2" x1="-0.25" y1="46.8" x2="72.25" y2="46.8"/><line class="cls-2" x1="-0.25" y1="32.4" x2="72.25" y2="32.4"/><line class="cls-2" x1="-0.25" y1="18" x2="72.25" y2="18"/><line class="cls-2" x1="-0.25" y1="3.6" x2="72.25" y2="3.6"/><line class="cls-2" x1="-20" y1="3.6" x2="-6" y2="3.6"/></pattern><pattern id="_10_lpi-10_21" data-name="*10 lpi-10%" width="72" height="72" patternTransform="translate(4.03 30.97) rotate(-45) scale(0.2)" patternUnits="userSpaceOnUse" viewBox="0 0 72 72"><rect class="cls-1" width="72" height="72"/><line class="cls-2" x1="-0.25" y1="68.4" x2="72.25" y2="68.4"/><line class="cls-2" x1="-0.25" y1="54" x2="72.25" y2="54"/><line class="cls-2" x1="-0.25" y1="39.6" x2="72.25" y2="39.6"/><line class="cls-2" x1="-0.25" y1="25.2" x2="72.25" y2="25.2"/><line class="cls-2" x1="-0.25" y1="10.8" x2="72.25" y2="10.8"/><line class="cls-2" x1="-20" y1="10.8" x2="-6" y2="10.8"/><line class="cls-2" x1="-0.25" y1="61.2" x2="72.25" y2="61.2"/><line class="cls-2" x1="-0.25" y1="46.8" x2="72.25" y2="46.8"/><line class="cls-2" x1="-0.25" y1="32.4" x2="72.25" y2="32.4"/><line class="cls-2" x1="-0.25" y1="18" x2="72.25" y2="18"/><line class="cls-2" x1="-0.25" y1="3.6" x2="72.25" y2="3.6"/><line class="cls-2" x1="-20" y1="3.6" x2="-6" y2="3.6"/></pattern></defs><title>map4</title><polyline class="cls-3" points="135.18 198.08 108.44 197.81 108.72 181.05 108.72 212.52 120.73 212.69 127.99 212.8 179.56 212.8 179.7 192.8 134.81 192.37"/><path class="cls-4" d="M124.3,111.68" transform="translate(-27.93 -32.55)"/><path class="cls-4" d="M281.06,184.5" transform="translate(-27.93 -32.55)"/><path class="cls-4" d="M281.21,230.33" transform="translate(-27.93 -32.55)"/><path class="cls-4" d="M271.86,230.64" transform="translate(-27.93 -32.55)"/><path class="cls-4" d="M271.59,270.9" transform="translate(-27.93 -32.55)"/><path class="cls-4" d="M259.32,270.75" transform="translate(-27.93 -32.55)"/><path class="cls-4" d="M237.37,229" transform="translate(-27.93 -32.55)"/><path class="cls-4" d="M216.68,211.17" transform="translate(-27.93 -32.55)"/><rect class="cls-5" x="114.03" y="104.91" width="15.69" height="15.82"/><rect class="cls-5" x="60.37" y="157.31" width="17.09" height="17.21"/><polyline class="cls-5" points="72.89 69.73 87.64 69.73 87.64 104.72 74.29 104.79 72.83 103.46"/><polygon class="cls-5" points="94.11 69.73 109.09 69.67 108.95 104.73 94.18 104.73 94.11 69.73"/><polygon class="cls-5" points="134.86 69.69 149.7 69.75 149.77 104.7 134.81 104.7 134.86 69.69"/><polyline class="cls-5" points="170.67 69.58 155.49 69.58 155.49 104.58 169.5 104.64 170.5 103.63"/><polyline class="cls-5" points="179.9 180.67 203.39 180.67 207.83 184.74 195.83 197 179.72 197.29"/><rect class="cls-5" x="143.93" y="192.25" width="12.12" height="12.12" transform="translate(-124.22 131.58) rotate(-45)"/><polyline class="cls-6" points="136.81 192.95 136.81 192.11 139.53 192.11 139.51 192.94"/><polygon class="cls-5" points="108.98 150.44 94 150.43 94 121.01 108.84 120.88 108.98 150.44"/><polygon class="cls-5" points="149.81 150.48 134.93 150.52 135.03 120.92 149.94 120.92 149.81 150.48"/><polygon class="cls-5" points="74.02 121.12 88.06 120.95 88.06 150.58 73.88 150.46 73.02 149.28 72.97 122.17 74.02 121.12"/><polygon class="cls-5" points="155.48 120.92 169.31 120.99 170.53 122.13 170.6 149.34 169.48 150.51 155.57 150.51 155.48 120.92"/><rect class="cls-5" x="138.96" y="160.25" width="31.93" height="11.6"/><rect class="cls-5" x="135.18" y="179.42" width="32.32" height="3.5"/><rect class="cls-5" x="135.18" y="181.31" width="44.35" height="11.49"/><polygon class="cls-5" points="134.86 64.2 164.07 64.21 164.2 67.94 134.76 67.94 134.86 64.2"/><polygon class="cls-5" points="77.84 63.92 107.41 63.93 107.55 68.1 77.74 68.1 77.84 63.92"/><polygon class="cls-5" points="61.89 180.83 52.44 190.4 62.9 201.21 62.9 212.84 108.55 213.07 108.75 179.49 76.06 179.49 75.63 180.81 61.89 180.83"/><polyline class="cls-5" points="198.43 141.95 220.88 142 220.88 163.1 198.67 163.15"/><path class="cls-7" d="M48.86,174.43l-0.08,18.1Z" transform="translate(-27.93 -32.55)"/><path class="cls-8" d="M91.74,174.43h0Z" transform="translate(-27.93 -32.55)"/><line class="cls-8" x1="63.82" y1="152.56" x2="63.9" y2="141.48"/><polyline class="cls-8" points="74.78 151.48 72.89 149.4 72.89 121.87 77.13 117.9 77.13 115.46"/><polyline class="cls-8" points="77.13 110.23 77.04 107.79 72.8 103.64 72.89 68.98 77.85 63.92 112.7 64.01 116.85 68.17 119.29 68.08"/><polyline class="cls-8" points="124.34 68.25 126.87 68.17 130.84 63.92 165.59 64.01 170.74 68.98 170.65 103.73 166.41 107.88 166.41 110.23"/><polyline class="cls-8" points="166.41 115.46 166.41 117.99 170.65 121.87 170.65 149.31 168.84 151.66"/><polyline class="cls-8" points="60.97 198.13 63.85 195.48 63.62 183.83 61.2 181.52 60.51 181.98"/><line class="cls-8" x1="64.08" y1="195.13" x2="72.65" y2="195.13"/><polyline class="cls-8" points="75.85 180.6 75.86 179.34 78.15 179.33"/><line class="cls-8" x1="80.92" y1="179.45" x2="104.33" y2="179.45"/><polyline class="cls-8" points="106.87 179.33 108.83 179.33 108.6 212.2"/><polyline class="cls-8" points="108.8 183.4 114.55 183.4 114.56 186.51"/><line class="cls-8" x1="109.04" y1="190.35" x2="114.48" y2="190.37"/><line class="cls-8" x1="114.46" y1="189.19" x2="114.5" y2="194.35"/><line class="cls-8" x1="109.02" y1="197.81" x2="119.28" y2="197.81"/><polyline class="cls-8" points="135 212.58 134.96 179.6 136.85 179.57"/><line class="cls-8" x1="134.79" y1="197.75" x2="124.31" y2="197.75"/><line class="cls-8" x1="134.79" y1="190.38" x2="128.97" y2="190.37"/><line class="cls-8" x1="129.18" y1="189.09" x2="129.18" y2="194.28"/><polyline class="cls-8" points="129.11 186.52 129.11 183.36 134.9 183.36"/><line class="cls-8" x1="139.21" y1="179.46" x2="162.63" y2="179.33"/><polyline class="cls-8" points="165.31 179.36 167.69 179.33 167.7 181.22 179.7 181.21 179.72 192.49 139.53 192.59"/><line class="cls-8" x1="134.91" y1="192.37" x2="136.81" y2="192.37"/><line class="cls-8" x1="179.71" y1="192.28" x2="179.7" y2="212.66"/><line class="cls-8" x1="186.52" y1="197.42" x2="179.75" y2="197.43"/><line class="cls-8" x1="189.01" y1="197.27" x2="195.9" y2="197.25"/><line class="cls-8" x1="207.83" y1="184.71" x2="202.14" y2="179.01"/><line class="cls-8" x1="198.47" y1="163.13" x2="220.78" y2="163.1"/><line class="cls-8" x1="198.62" y1="163.55" x2="198.62" y2="158.76"/><polyline class="cls-8" points="199.44 141.88 179.68 141.84 179.68 152.92"/><line class="cls-8" x1="198.47" y1="141.76" x2="198.46" y2="155.92"/><line class="cls-8" x1="179.63" y1="118.42" x2="199.66" y2="118.46"/><line class="cls-8" x1="199.5" y1="112.07" x2="191.59" y2="112.07"/><line class="cls-7" x1="191.67" y1="111.18" x2="191.63" y2="113.03"/><polyline class="cls-9" points="191.71 108.47 191.68 106.63 188.27 106.62"/><line class="cls-7" x1="199.58" y1="100.56" x2="177.39" y2="100.6"/><line class="cls-10" x1="172.08" y1="100.45" x2="170.73" y2="100.48"/><polyline class="cls-8" points="178.8 100.64 178.81 108 181.56 107.96 181.6 100.4"/><polyline class="cls-8" points="63.86 118.29 42.66 118.47 42.66 129.67 42.66 141.41"/><line class="cls-7" x1="72.58" y1="100.39" x2="71.3" y2="100.39"/><polyline class="cls-8" points="66.34 100.58 43.05 100.52 43.03 112.23 51.96 112.25"/><line class="cls-8" x1="51.99" y1="113.09" x2="51.99" y2="111.21"/><polyline class="cls-8" points="52.13 108.22 52.12 106.63 56.24 106.65"/><line class="cls-8" x1="53.77" y1="100.58" x2="53.77" y2="106.17"/><polyline class="cls-8" points="62.12 100.66 62.12 106.61 59.27 106.65"/><polyline class="cls-8" points="199.44 141.88 220.88 141.9 221.07 160.26"/><line class="cls-7" x1="199.53" y1="112.47" x2="199.5" y2="100.1"/><line class="cls-11" x1="221.36" y1="160.43" x2="234.43" y2="160.4"/><line class="cls-12" x1="199.38" y1="141.58" x2="199.4" y2="118.06"/><line class="cls-7" x1="57.7" y1="122.63" x2="57.65" y2="137.64"/><polygon class="cls-5" points="179.9 197.61 179.9 213 195.29 197.41 179.9 197.61"/><path d="M165.09,225.07" transform="translate(-27.93 -32.55)"/><path d="M168.91,225.07" transform="translate(-27.93 -32.55)"/><path d="M163.1,229.94" transform="translate(-27.93 -32.55)"/><path d="M172.72,225.07" transform="translate(-27.93 -32.55)"/><path d="M163.1,233.15" transform="translate(-27.93 -32.55)"/><path d="M176.54,225.07" transform="translate(-27.93 -32.55)"/><path d="M163.1,236.35" transform="translate(-27.93 -32.55)"/><path d="M180.36,225.07" transform="translate(-27.93 -32.55)"/><path d="M163.1,239.55" transform="translate(-27.93 -32.55)"/><path d="M184.18,225.07" transform="translate(-27.93 -32.55)"/><path d="M163.1,242.76" transform="translate(-27.93 -32.55)"/><path d="M188,225.07" transform="translate(-27.93 -32.55)"/><path d="M163.91,245.29" transform="translate(-27.93 -32.55)"/><path class="cls-13" d="M191.81,225.07" transform="translate(-27.93 -32.55)"/><path class="cls-13" d="M167.72,245.29" transform="translate(-27.93 -32.55)"/><path class="cls-13" d="M195.63,225.07" transform="translate(-27.93 -32.55)"/><path class="cls-13" d="M171.54,245.29" transform="translate(-27.93 -32.55)"/><path class="cls-13" d="M199.45,225.07" transform="translate(-27.93 -32.55)"/><path class="cls-13" d="M175.36,245.29" transform="translate(-27.93 -32.55)"/><path class="cls-13" d="M203.26,225.07" transform="translate(-27.93 -32.55)"/><path class="cls-13" d="M179.18,245.29" transform="translate(-27.93 -32.55)"/><path class="cls-13" d="M207.08,225.07" transform="translate(-27.93 -32.55)"/><path class="cls-13" d="M183,245.29" transform="translate(-27.93 -32.55)"/><path class="cls-13" d="M207,228.32" transform="translate(-27.93 -32.55)"/><path class="cls-13" d="M186.81,245.29" transform="translate(-27.93 -32.55)"/><path class="cls-13" d="M207,231.53" transform="translate(-27.93 -32.55)"/><path class="cls-13" d="M190.63,245.29" transform="translate(-27.93 -32.55)"/><path class="cls-13" d="M207,234.73" transform="translate(-27.93 -32.55)"/><path class="cls-13" d="M194.45,245.29" transform="translate(-27.93 -32.55)"/><path class="cls-13" d="M207,237.93" transform="translate(-27.93 -32.55)"/><path class="cls-13" d="M198.27,245.29" transform="translate(-27.93 -32.55)"/><path class="cls-13" d="M207,241.14" transform="translate(-27.93 -32.55)"/><path class="cls-13" d="M202.09,245.29" transform="translate(-27.93 -32.55)"/><path class="cls-13" d="M205.9,245.29" transform="translate(-27.93 -32.55)"/><path class="cls-14" d="M209.72,245.29" transform="translate(-27.93 -32.55)"/><path class="cls-15" d="M165.09,225.07" transform="translate(-27.93 -32.55)"/><path class="cls-15" d="M168.91,225.07" transform="translate(-27.93 -32.55)"/><path class="cls-15" d="M163.1,229.94" transform="translate(-27.93 -32.55)"/><path class="cls-15" d="M172.72,225.07" transform="translate(-27.93 -32.55)"/><path class="cls-15" d="M163.1,233.15" transform="translate(-27.93 -32.55)"/><path class="cls-15" d="M176.54,225.07" transform="translate(-27.93 -32.55)"/><path class="cls-15" d="M163.1,236.35" transform="translate(-27.93 -32.55)"/><path class="cls-15" d="M180.36,225.07" transform="translate(-27.93 -32.55)"/><path class="cls-15" d="M163.1,239.55" transform="translate(-27.93 -32.55)"/><path class="cls-15" d="M184.18,225.07" transform="translate(-27.93 -32.55)"/><path class="cls-15" d="M163.1,242.76" transform="translate(-27.93 -32.55)"/><path class="cls-15" d="M188,225.07" transform="translate(-27.93 -32.55)"/><path class="cls-15" d="M163.91,245.29" transform="translate(-27.93 -32.55)"/><path class="cls-15" d="M191.81,225.07" transform="translate(-27.93 -32.55)"/><path class="cls-15" d="M167.72,245.29" transform="translate(-27.93 -32.55)"/><path class="cls-15" d="M195.63,225.07" transform="translate(-27.93 -32.55)"/><path class="cls-15" d="M171.54,245.29" transform="translate(-27.93 -32.55)"/><path class="cls-15" d="M199.45,225.07" transform="translate(-27.93 -32.55)"/><path class="cls-15" d="M175.36,245.29" transform="translate(-27.93 -32.55)"/><path class="cls-15" d="M203.26,225.07" transform="translate(-27.93 -32.55)"/><path class="cls-15" d="M179.18,245.29" transform="translate(-27.93 -32.55)"/><path class="cls-15" d="M207.08,225.07" transform="translate(-27.93 -32.55)"/><path class="cls-15" d="M183,245.29" transform="translate(-27.93 -32.55)"/><path class="cls-15" d="M207,228.32" transform="translate(-27.93 -32.55)"/><path class="cls-15" d="M186.81,245.29" transform="translate(-27.93 -32.55)"/><path class="cls-15" d="M207,231.53" transform="translate(-27.93 -32.55)"/><path class="cls-15" d="M190.63,245.29" transform="translate(-27.93 -32.55)"/><path class="cls-15" d="M207,234.73" transform="translate(-27.93 -32.55)"/><path class="cls-15" d="M194.45,245.29" transform="translate(-27.93 -32.55)"/><path class="cls-15" d="M207,237.93" transform="translate(-27.93 -32.55)"/><path class="cls-15" d="M198.27,245.29" transform="translate(-27.93 -32.55)"/><path class="cls-15" d="M207,241.14" transform="translate(-27.93 -32.55)"/><path class="cls-15" d="M202.09,245.29" transform="translate(-27.93 -32.55)"/><path class="cls-15" d="M205.9,245.29" transform="translate(-27.93 -32.55)"/><path class="cls-15" d="M209.72,245.29" transform="translate(-27.93 -32.55)"/><path class="cls-16" d="M137.86,230.63" transform="translate(-27.93 -32.55)"/><path class="cls-16" d="M140.15,230.63" transform="translate(-27.93 -32.55)"/><path class="cls-16" d="M136.68,234.1" transform="translate(-27.93 -32.55)"/><path class="cls-16" d="M142.43,230.63" transform="translate(-27.93 -32.55)"/><path class="cls-16" d="M136.68,236.39" transform="translate(-27.93 -32.55)"/><path class="cls-16" d="M144.72,230.63" transform="translate(-27.93 -32.55)"/><path class="cls-16" d="M136.68,238.67" transform="translate(-27.93 -32.55)"/><path class="cls-16" d="M147,230.63" transform="translate(-27.93 -32.55)"/><path class="cls-16" d="M136.68,241" transform="translate(-27.93 -32.55)"/><path class="cls-16" d="M149.29,230.63" transform="translate(-27.93 -32.55)"/><path class="cls-16" d="M136.68,243.24" transform="translate(-27.93 -32.55)"/><path class="cls-16" d="M151.57,230.63" transform="translate(-27.93 -32.55)"/><path class="cls-16" d="M137.16,245" transform="translate(-27.93 -32.55)"/><path class="cls-16" d="M153.86,230.63" transform="translate(-27.93 -32.55)"/><path class="cls-16" d="M139.44,245" transform="translate(-27.93 -32.55)"/><path class="cls-16" d="M156.14,230.63" transform="translate(-27.93 -32.55)"/><path class="cls-16" d="M141.73,245" transform="translate(-27.93 -32.55)"/><path class="cls-16" d="M158.42,230.63" transform="translate(-27.93 -32.55)"/><path class="cls-16" d="M144,245" transform="translate(-27.93 -32.55)"/><path class="cls-16" d="M160.71,230.63" transform="translate(-27.93 -32.55)"/><path class="cls-16" d="M146.3,245" transform="translate(-27.93 -32.55)"/><path class="cls-16" d="M163,230.63" transform="translate(-27.93 -32.55)"/><path class="cls-16" d="M148.58,245" transform="translate(-27.93 -32.55)"/><path class="cls-16" d="M163,232.95" transform="translate(-27.93 -32.55)"/><path class="cls-16" d="M150.86,245" transform="translate(-27.93 -32.55)"/><path class="cls-16" d="M163,235.23" transform="translate(-27.93 -32.55)"/><path class="cls-16" d="M153.15,245" transform="translate(-27.93 -32.55)"/><path class="cls-16" d="M163,237.52" transform="translate(-27.93 -32.55)"/><path class="cls-16" d="M155.43,245" transform="translate(-27.93 -32.55)"/><path class="cls-16" d="M163,239.8" transform="translate(-27.93 -32.55)"/><path class="cls-16" d="M157.72,245" transform="translate(-27.93 -32.55)"/><path class="cls-16" d="M160,245" transform="translate(-27.93 -32.55)"/><line class="cls-16" x1="134.36" y1="212.5" x2="135.03" y2="211.82"/><path class="cls-16" d="M164.57,245" transform="translate(-27.93 -32.55)"/><path class="cls-15" d="M137.86,230.63" transform="translate(-27.93 -32.55)"/><path class="cls-15" d="M140.15,230.63" transform="translate(-27.93 -32.55)"/><path class="cls-15" d="M136.68,234.1" transform="translate(-27.93 -32.55)"/><path class="cls-15" d="M142.43,230.63" transform="translate(-27.93 -32.55)"/><path class="cls-15" d="M136.68,236.39" transform="translate(-27.93 -32.55)"/><path class="cls-15" d="M144.72,230.63" transform="translate(-27.93 -32.55)"/><path class="cls-15" d="M136.68,238.67" transform="translate(-27.93 -32.55)"/><path class="cls-15" d="M147,230.63" transform="translate(-27.93 -32.55)"/><path class="cls-15" d="M136.68,241" transform="translate(-27.93 -32.55)"/><path class="cls-15" d="M149.29,230.63" transform="translate(-27.93 -32.55)"/><path class="cls-15" d="M136.68,243.24" transform="translate(-27.93 -32.55)"/><path class="cls-15" d="M151.57,230.63" transform="translate(-27.93 -32.55)"/><path class="cls-15" d="M137.16,245" transform="translate(-27.93 -32.55)"/><path class="cls-15" d="M153.86,230.63" transform="translate(-27.93 -32.55)"/><path class="cls-15" d="M139.44,245" transform="translate(-27.93 -32.55)"/><path class="cls-15" d="M156.14,230.63" transform="translate(-27.93 -32.55)"/><path class="cls-15" d="M141.73,245" transform="translate(-27.93 -32.55)"/><path class="cls-15" d="M158.42,230.63" transform="translate(-27.93 -32.55)"/><path class="cls-15" d="M144,245" transform="translate(-27.93 -32.55)"/><path class="cls-15" d="M160.71,230.63" transform="translate(-27.93 -32.55)"/><path class="cls-15" d="M146.3,245" transform="translate(-27.93 -32.55)"/><path class="cls-15" d="M163,230.63" transform="translate(-27.93 -32.55)"/><path class="cls-15" d="M148.58,245" transform="translate(-27.93 -32.55)"/><path class="cls-15" d="M163,232.95" transform="translate(-27.93 -32.55)"/><path class="cls-15" d="M150.86,245" transform="translate(-27.93 -32.55)"/><path class="cls-15" d="M163,235.23" transform="translate(-27.93 -32.55)"/><path class="cls-15" d="M153.15,245" transform="translate(-27.93 -32.55)"/><path class="cls-15" d="M163,237.52" transform="translate(-27.93 -32.55)"/><path class="cls-15" d="M155.43,245" transform="translate(-27.93 -32.55)"/><path class="cls-15" d="M163,239.8" transform="translate(-27.93 -32.55)"/><path class="cls-15" d="M157.72,245" transform="translate(-27.93 -32.55)"/><path class="cls-15" d="M160,245" transform="translate(-27.93 -32.55)"/><line class="cls-15" x1="134.36" y1="212.5" x2="135.03" y2="211.82"/><path class="cls-15" d="M164.57,245" transform="translate(-27.93 -32.55)"/><polygon class="cls-17" points="157.8 1.75 86.38 1.13 86.38 1.13 85.33 2.92 74.57 12.33 63.05 12.52 32.52 44.2 32.32 54.19 9.86 54.19 9.98 73.49 1.39 73.49 1.55 119.17 10.28 119.47 10.13 159.94 20.86 160.1 21.01 141.86 42.94 141.86 42.78 118.56 43.05 100.52 63.32 100.77 72.67 100.62 72.98 69.19 78.04 64.14 112.84 64.14 117.44 68.28 126.94 68.12 131.08 63.83 165.42 63.98 170.78 68.73 171.09 100.47 178.75 100.62 199.5 100.09 199.45 118.4 199.6 141.7 221.08 142.1 221.4 160.2 233.66 160.35 233.94 120.09 243.29 119.78 243.13 73.95 229.8 73.95 198.37 42.68 199.6 35.16 191.71 35.66 157.8 1.75"/><circle class="cls-18" cx="90.91" cy="113.23" r="4.12"/><text class="cls-19" transform="translate(89.11 115.42)">4</text><circle class="cls-18" cx="152.88" cy="113.23" r="4.12"/><text class="cls-20" transform="translate(151.5 115.16) rotate(-2.4)">4 <tspan class="cls-21" x="4.29" y="0">   </tspan></text><circle class="cls-18" cx="121.96" cy="165.73" r="4.12"/><text class="cls-19" transform="translate(119.93 167.91)">5</text><circle class="cls-18" cx="153.24" cy="202.4" r="4.12"/><text class="cls-22" transform="translate(150.23 204.39)"> 7</text><circle class="cls-18" cx="209.23" cy="151.69" r="4.12"/><text class="cls-19" transform="translate(207.41 153.63)">2</text><circle class="cls-18" cx="184.33" cy="201.82" r="3.49"/><text class="cls-23" transform="translate(182.69 203.67)">3</text><circle class="cls-18" cx="191.37" cy="188.73" r="4.12"/><text class="cls-23" transform="translate(189.94 190.48)">8</text><circle class="cls-18" cx="155.52" cy="186.17" r="4.12"/><text class="cls-23" transform="translate(154.02 187.95)">9</text><polyline class="cls-8" points="53.56 171.94 53.31 172.19 43.63 181.72 43.05 182.29"/><line class="cls-8" x1="52.44" y1="190.41" x2="58.67" y2="183.95"/><polyline class="cls-8" points="61.2 181.52 61.81 180.91 61.9 180.83 75.85 180.95 75.86 195.07 74.79 195.07"/><polyline class="cls-11" points="233.62 160.44 233.62 120.01 243.15 120.01 243.15 73.63 229.66 73.67 198.58 42.57 199.7 34.93 191.6 35.69 157.44 1 86.38 1.14 74.8 12.64 63.16 12.7 32.9 43.78 32.92 53.9 10.12 53.91 10.14 73.36 1 73.4 1 119.22 10.12 119.47 9.86 160.22 20.77 160.22 22.27 160.22 43.63 181.72 52.35 190.49 63.02 201.23 62.77 213.13 107.57 212.88 136.17 212.62 180.47 212.88 221.48 171.77 221.41 159.87"/><polyline class="cls-8" points="61.71 180.81 53.31 172.19 53.07 171.94"/><polyline class="cls-8" points="60.76 181.75 58.62 183.9 58.6 183.91"/><polyline class="cls-8" points="106.93 164.69 106.94 171.85 83.51 171.77 83.47 160.25 106.86 160.29 106.84 161.8"/><line class="cls-24" x1="106.88" y1="166.06" x2="88.69" y2="166.06"/><rect class="cls-25" x="99.69" y="160.24" width="1.8" height="5.74"/><rect class="cls-25" x="97.9" y="160.26" width="1.8" height="5.74"/><rect class="cls-25" x="96.08" y="160.37" width="1.8" height="5.74"/><rect class="cls-25" x="94.26" y="160.3" width="1.8" height="5.73"/><rect class="cls-25" x="92.44" y="160.3" width="1.8" height="5.73"/><rect class="cls-25" x="90.61" y="160.3" width="1.8" height="5.73"/><rect class="cls-25" x="88.79" y="160.3" width="1.8" height="5.73"/><rect class="cls-25" x="92.48" y="166.12" width="1.8" height="5.81"/><rect class="cls-25" x="90.66" y="166.12" width="1.8" height="5.81"/><rect class="cls-25" x="88.83" y="166.12" width="1.8" height="5.81"/><line class="cls-24" x1="94.28" y1="166.12" x2="96.55" y2="171.48"/><path d="M148.56,219.14c0.37,0.44.75,0.87,1.1,1.32a0.39,0.39,0,0,1,0,.36,0.37,0.37,0,0,1-.37.16,0.36,0.36,0,0,1-.22-0.15l-0.36-.46c0,0.57,0,1.2,0,1.75a0.47,0.47,0,0,1-.32.29,0.51,0.51,0,0,1-.32-0.07,0.45,0.45,0,0,1-.17-0.31l0-1.22c0-.1,0-0.22,0-0.32v-0.1a1.26,1.26,0,0,1-.7.6,0.34,0.34,0,0,1-.29-0.21,0.41,0.41,0,0,1,0-.24l0.1-.15,1-1.23A0.37,0.37,0,0,1,148.56,219.14Z" transform="translate(-27.93 -32.55)"/><path d="M151.56,219.29a0.45,0.45,0,0,1,0,.19c0,0.53,0,1.11,0,1.64l0.44-.54a0.38,0.38,0,0,1,.39,0,0.42,0.42,0,0,1,.17.23,1.42,1.42,0,0,1-.49.79l-0.64.74a0.37,0.37,0,0,1-.38.11,0.73,0.73,0,0,1-.29-0.26l-0.82-1a0.46,0.46,0,0,1-.15-0.36,0.35,0.35,0,0,1,.17-0.28,0.38,0.38,0,0,1,.31,0,3.57,3.57,0,0,1,.51.59v-0.27l0-1.36a0.42,0.42,0,0,1,.5-0.41A0.44,0.44,0,0,1,151.56,219.29Z" transform="translate(-27.93 -32.55)"/><path d="M151.73,222.66a0.82,0.82,0,0,1,.74.37,2.33,2.33,0,0,1,.12,1.16v1.26h0c0,0.68,0,1.43,0,2.09a0.79,0.79,0,0,1-.49.65,2.82,2.82,0,0,1-.8.05h-3.37a1,1,0,0,1-.92-0.35,1.76,1.76,0,0,1-.13-1c0-.59,0-1.09,0-1.69v-1.69a0.81,0.81,0,0,1,.46-0.8,1.24,1.24,0,0,1,.3-0.08h4.1Z" transform="translate(-27.93 -32.55)"/><path class="cls-18" d="M151.79,223.45c0,0.19,0,.39,0,0.55v3.48h-4.1v-4h4.11Z" transform="translate(-27.93 -32.55)"/><path d="M148.71,224.14a0.28,0.28,0,0,1-.05.27,0.3,0.3,0,0,1-.23.08,0.26,0.26,0,0,1-.1-0.47A0.27,0.27,0,0,1,148.71,224.14Z" transform="translate(-27.93 -32.55)"/><path d="M151.23,224.12a0.27,0.27,0,0,1,0,.26,0.32,0.32,0,0,1-.16.11,0.35,0.35,0,0,1-.22-0.06,0.29,0.29,0,0,1-.1-0.19,0.29,0.29,0,0,1,.17-0.24A0.28,0.28,0,0,1,151.23,224.12Z" transform="translate(-27.93 -32.55)"/><path d="M150,224.12a0.26,0.26,0,0,1,0,.28,0.26,0.26,0,0,1-.25.09,0.31,0.31,0,0,1-.19-0.16,0.25,0.25,0,0,1,.05-0.26,0.26,0.26,0,0,1,.26-0.08A0.31,0.31,0,0,1,150,224.12Z" transform="translate(-27.93 -32.55)"/><polygon class="cls-18" points="121.97 191.57 121.97 191.56 121.98 191.56 121.97 191.57"/><path d="M148.95,224.59a0.29,0.29,0,0,1,.12.12c0,0.37,0,.73,0,1.1a0.16,0.16,0,0,1-.08.09,0.4,0.4,0,0,0-.16,0c0,0.46,0,.86,0,1.32a0.22,0.22,0,0,1-.12.13,0.18,0.18,0,0,1-.15,0,0.17,0.17,0,0,1-.06-0.09v-1.34h0c0,0.46,0,.86,0,1.33a0.2,0.2,0,0,1-.15.15,0.21,0.21,0,0,1-.16-0.07l0-.06c0-.46,0-0.87,0-1.33a0.22,0.22,0,0,1-.23-0.12v-1.09a0.21,0.21,0,0,1,.11-0.12A9.06,9.06,0,0,1,148.95,224.59Z" transform="translate(-27.93 -32.55)"/><path d="M150.2,224.59a0.23,0.23,0,0,1,.13.12c0,0.36,0,.74,0,1.11a0.17,0.17,0,0,1-.12.09H150.1c0,0.44,0,.88,0,1.31a0.24,0.24,0,0,1-.12.15,0.22,0.22,0,0,1-.18,0l0-.06c0-.46,0-0.9,0-1.36h0v1.32a0.19,0.19,0,0,1-.15.15,0.17,0.17,0,0,1-.15,0l-0.05-.08v-1.35a0.25,0.25,0,0,1-.23-0.1c0-.36,0-0.71,0-1.07a0.22,0.22,0,0,1,.11-0.15l0.06,0C149.59,224.59,149.9,224.58,150.2,224.59Z" transform="translate(-27.93 -32.55)"/><path d="M151.44,224.59a0.18,0.18,0,0,1,.14.1l0,0.09v1a0.17,0.17,0,0,1-.14.11h-0.09c0,0.42,0,.9,0,1.32a0.2,0.2,0,0,1-.13.14,0.17,0.17,0,0,1-.17,0l0-.06c0-.43,0-0.92,0-1.36h0v1.32a0.18,0.18,0,0,1-.27.13,0.16,0.16,0,0,1-.07-0.16v-1.29a0.38,0.38,0,0,1-.19,0l0-.07v-1.09a0.21,0.21,0,0,1,.11-0.12l0.09,0h0.85Z" transform="translate(-27.93 -32.55)"/><line class="cls-18" x1="126.21" y1="207.19" x2="126.2" y2="207.21"/><path d="M76.73,157.69a0.78,0.78,0,0,1,0,.81,0.85,0.85,0,0,1-.49.33,0.81,0.81,0,0,1-.35,0,0.74,0.74,0,0,1-.33-0.17,0.76,0.76,0,0,1-.21-0.81,0.82,0.82,0,0,1,.72-0.52A0.79,0.79,0,0,1,76.73,157.69Z" transform="translate(-27.93 -32.55)"/><path d="M77.81,159.64a2.36,2.36,0,0,1,.08.75v1.8a0.5,0.5,0,0,1-.08.42,0.36,0.36,0,0,1-.34.09,0.35,0.35,0,0,1-.24-0.26l0-.29v-1.89a0.29,0.29,0,0,0-.15,0,2.59,2.59,0,0,0,0,.44v1.5c0,0.72,0,1.39,0,2.09v1.52a1.09,1.09,0,0,1-.1.65,0.45,0.45,0,0,1-.77-0.13l0-.16c0-.47,0-0.89,0-1.36v-2.07H76c0,1.16,0,2.31,0,3.47a0.49,0.49,0,0,1-.23.37,0.4,0.4,0,0,1-.37,0,0.51,0.51,0,0,1-.26-0.24l0-.14V165c0-.36,0-0.79,0-1.19h0V162.6c0-.23,0-0.47,0-0.71v-1.63H74.91v1.89a0.52,0.52,0,0,1-.16.54,0.37,0.37,0,0,1-.37,0,0.55,0.55,0,0,1-.14-0.4c0-.29,0-0.91,0-0.91v-0.59a1.9,1.9,0,0,0,0-.21,1.55,1.55,0,0,1,.23-1.16,1.33,1.33,0,0,1,1.15-.36H76.7A1.09,1.09,0,0,1,77.81,159.64Z" transform="translate(-27.93 -32.55)"/><path d="M81.48,157.79a0.76,0.76,0,0,1,0,.75,0.77,0.77,0,0,1-1.4-.18,0.73,0.73,0,0,1,.2-0.73,0.75,0.75,0,0,1,.7-0.2A0.83,0.83,0,0,1,81.48,157.79Z" transform="translate(-27.93 -32.55)"/><path d="M81.42,159.1a1,1,0,0,1,.83.6l0.12,0.36,1,1.79a0.35,0.35,0,0,1-.05.32,1.44,1.44,0,0,1-.75.24,0.5,0.5,0,0,1-.27-0.4l-0.54-1.85a0.33,0.33,0,0,0-.16,0l0.13,0.49,0.51,1.71c0.14,0.44.26,0.89,0.39,1.33h-1l0,2.71a0.41,0.41,0,0,1-.17.23,0.33,0.33,0,0,1-.27,0,0.39,0.39,0,0,1-.27-0.23l0-.09V163.7H80.73v2.66a0.38,0.38,0,0,1-.26.31,0.37,0.37,0,0,1-.38-0.09,0.34,0.34,0,0,1-.1-0.21V163.7c-0.33,0-.63,0-1,0v0l0.71-2.44c0.09-.34.21-0.69,0.3-1a0.41,0.41,0,0,0-.16,0l-0.17.57-0.41,1.39a0.39,0.39,0,0,1-.29.29,0.35,0.35,0,0,1-.33-0.18,0.34,0.34,0,0,1,0-.24l0.24-.82h0v0l0.42-1.43a1,1,0,0,1,1-.62h1.11Z" transform="translate(-27.93 -32.55)"/><path class="cls-18" d="M81.49,163.59a0,0,0,0,0,0,0h0A0,0,0,0,1,81.49,163.59Z" transform="translate(-27.93 -32.55)"/><path d="M88,157.05a0.27,0.27,0,0,0,0,.23,0.24,0.24,0,0,0,.28.1,0.28,0.28,0,0,0,.17-0.21,0.2,0.2,0,0,0-.09-0.22A0.24,0.24,0,0,0,88,157.05Z" transform="translate(-27.93 -32.55)"/><path d="M88.72,157a0.25,0.25,0,0,0,0,.24,0.26,0.26,0,0,0,.16.14,0.24,0.24,0,0,0,.25-0.36A0.24,0.24,0,0,0,88.72,157Z" transform="translate(-27.93 -32.55)"/><path d="M89.26,157.29a0.25,0.25,0,0,0,.07.26,0.24,0.24,0,0,0,.25,0,0.27,0.27,0,0,0,.12-0.3,0.35,0.35,0,0,0-.18-0.14A0.25,0.25,0,0,0,89.26,157.29Z" transform="translate(-27.93 -32.55)"/><path d="M87.48,157.27a0.26,0.26,0,1,0,.45.23,0.25,0.25,0,0,0,0-.22,0.44,0.44,0,0,0-.17-0.1A0.28,0.28,0,0,0,87.48,157.27Z" transform="translate(-27.93 -32.55)"/><path d="M88.42,157.66a0.22,0.22,0,0,0,.07.24,0.24,0.24,0,0,0,.23,0,0.29,0.29,0,0,0,.14-0.16,0.24,0.24,0,0,0,0-.21,0.52,0.52,0,0,0-.14-0.08A0.26,0.26,0,0,0,88.42,157.66Z" transform="translate(-27.93 -32.55)"/><path d="M89.74,157.68a0.21,0.21,0,0,0,0,.26A0.22,0.22,0,0,0,90,158a0.24,0.24,0,0,0,.12-0.29,0.31,0.31,0,0,0-.14-0.13A0.25,0.25,0,0,0,89.74,157.68Z" transform="translate(-27.93 -32.55)"/><path d="M87,157.76a0.35,0.35,0,0,0-.06.29,0.36,0.36,0,0,0,.17.16,0.3,0.3,0,0,0,.35-0.36,0.35,0.35,0,0,0-.21-0.19A0.29,0.29,0,0,0,87,157.76Z" transform="translate(-27.93 -32.55)"/><path d="M87.86,157.85a0.26,0.26,0,0,0,.15.33,0.32,0.32,0,0,0,.27-0.08,0.26,0.26,0,0,0,0-.27,0.28,0.28,0,0,0-.18-0.14A0.27,0.27,0,0,0,87.86,157.85Z" transform="translate(-27.93 -32.55)"/><path d="M89,157.88a0.22,0.22,0,0,0,.08.25,0.22,0.22,0,0,0,.26,0,0.24,0.24,0,0,0,.11-0.29,0.29,0.29,0,0,0-.21-0.15A0.25,0.25,0,0,0,89,157.88Z" transform="translate(-27.93 -32.55)"/><path d="M87.4,158.31a0.3,0.3,0,0,0,0,.27,0.28,0.28,0,0,0,.32.12,0.32,0.32,0,0,0,.19-0.22A0.28,0.28,0,0,0,87.4,158.31Z" transform="translate(-27.93 -32.55)"/><path d="M89.9,158.36a0.19,0.19,0,0,0,.06.22,0.19,0.19,0,0,0,.23,0,0.21,0.21,0,0,0,.12-0.21,0.2,0.2,0,0,0-.15-0.2A0.22,0.22,0,0,0,89.9,158.36Z" transform="translate(-27.93 -32.55)"/><path d="M89.33,158.39a0.2,0.2,0,0,0,.07.22,0.2,0.2,0,0,0,.23,0,0.23,0.23,0,0,0,.1-0.28,0.29,0.29,0,0,0-.18-0.14A0.25,0.25,0,0,0,89.33,158.39Z" transform="translate(-27.93 -32.55)"/><path d="M89.94,158.95a0.22,0.22,0,0,0,0,.24,0.22,0.22,0,0,0,.25,0,0.22,0.22,0,0,0,.11-0.28,0.29,0.29,0,0,0-.16-0.12A0.24,0.24,0,0,0,89.94,158.95Z" transform="translate(-27.93 -32.55)"/><path d="M89.37,159a0.19,0.19,0,0,0,0,.18,0.22,0.22,0,0,0,.26.11,0.27,0.27,0,0,0,.15-0.19,0.31,0.31,0,0,0-.07-0.18A0.22,0.22,0,0,0,89.37,159Z" transform="translate(-27.93 -32.55)"/><path d="M85.84,160.66l0,3.63c0,0.07.07,0,.1,0l2.64,0L92,160.46a0.69,0.69,0,0,0-.49-1H91.4l-5.56.06v1.19Z" transform="translate(-27.93 -32.55)"/><line class="cls-7" x1="184.25" y1="123.13" x2="184.29" y2="138.14"/><path d="M216.74,158.2a0.78,0.78,0,0,1,0,.81,0.84,0.84,0,0,1-.49.32,0.81,0.81,0,0,1-.35,0,0.75,0.75,0,0,1-.33-0.17,0.76,0.76,0,0,1-.21-0.81,0.82,0.82,0,0,1,.72-0.52A0.78,0.78,0,0,1,216.74,158.2Z" transform="translate(-27.93 -32.55)"/><path d="M217.82,160.14a2.33,2.33,0,0,1,.08.75v1.8a0.49,0.49,0,0,1-.08.42,0.36,0.36,0,0,1-.34.09,0.36,0.36,0,0,1-.24-0.26l0-.29v-1.89a0.3,0.3,0,0,0-.15,0,2.5,2.5,0,0,0,0,.44v1.5c0,0.72,0,1.38,0,2.09v1.52a1.09,1.09,0,0,1-.1.65,0.45,0.45,0,0,1-.77-0.13l0-.16c0-.47,0-0.89,0-1.36v-2.07H216c0,1.16,0,2.31,0,3.47a0.49,0.49,0,0,1-.23.36,0.41,0.41,0,0,1-.37,0,0.51,0.51,0,0,1-.26-0.24l0-.14v-1.24c0-.36,0-0.79,0-1.19h0v-1.16c0-.23,0-0.47,0-0.71v-1.63h-0.16v1.89a0.52,0.52,0,0,1-.16.54,0.37,0.37,0,0,1-.37,0,0.54,0.54,0,0,1-.14-0.4c0-.29,0-0.91,0-0.91v-0.59a1.94,1.94,0,0,0,0-.21,1.55,1.55,0,0,1,.23-1.16,1.33,1.33,0,0,1,1.15-.36c0.35,0,.71,0,1.07,0A1.08,1.08,0,0,1,217.82,160.14Z" transform="translate(-27.93 -32.55)"/><path d="M221.5,158.29a0.75,0.75,0,0,1,0,.75,0.77,0.77,0,0,1-1.4-.18,0.73,0.73,0,0,1,.2-0.73,0.75,0.75,0,0,1,.7-0.2A0.83,0.83,0,0,1,221.5,158.29Z" transform="translate(-27.93 -32.55)"/><path d="M221.44,159.6a1,1,0,0,1,.83.6l0.12,0.36,1,1.79a0.35,0.35,0,0,1-.05.32,1.45,1.45,0,0,1-.75.24,0.5,0.5,0,0,1-.27-0.4l-0.54-1.85a0.33,0.33,0,0,0-.16,0l0.13,0.49,0.51,1.71c0.14,0.44.26,0.89,0.39,1.33h-1l0,2.71a0.4,0.4,0,0,1-.17.23,0.33,0.33,0,0,1-.27,0,0.39,0.39,0,0,1-.27-0.23l0-.09v-2.64h-0.16v2.66a0.38,0.38,0,0,1-.63.22,0.35,0.35,0,0,1-.1-0.21V164.2c-0.33,0-.63,0-1,0v0l0.72-2.44c0.09-.34.21-0.69,0.3-1a0.41,0.41,0,0,0-.16,0l-0.17.57-0.41,1.39a0.39,0.39,0,0,1-.29.29,0.34,0.34,0,0,1-.33-0.18,0.34,0.34,0,0,1,0-.24l0.24-.82h0v0l0.42-1.43a1,1,0,0,1,1-.62h1.11Z" transform="translate(-27.93 -32.55)"/><path class="cls-18" d="M221.51,164.1h0S221.5,164.1,221.51,164.1Z" transform="translate(-27.93 -32.55)"/><path d="M209.75,157.56a0.27,0.27,0,0,1,0,.23,0.24,0.24,0,0,1-.28.1,0.29,0.29,0,0,1-.17-0.21,0.2,0.2,0,0,1,.09-0.22A0.24,0.24,0,0,1,209.75,157.56Z" transform="translate(-27.93 -32.55)"/><path d="M209.08,157.52a0.25,0.25,0,0,1,0,.24,0.26,0.26,0,0,1-.16.14,0.24,0.24,0,0,1-.25-0.36A0.24,0.24,0,0,1,209.08,157.52Z" transform="translate(-27.93 -32.55)"/><path d="M208.54,157.8a0.25,0.25,0,0,1-.07.26,0.24,0.24,0,0,1-.25,0,0.27,0.27,0,0,1-.12-0.3,0.35,0.35,0,0,1,.18-0.14A0.25,0.25,0,0,1,208.54,157.8Z" transform="translate(-27.93 -32.55)"/><path d="M210.32,157.77a0.26,0.26,0,1,1-.45.23,0.25,0.25,0,0,1,0-.22,0.43,0.43,0,0,1,.17-0.1A0.28,0.28,0,0,1,210.32,157.77Z" transform="translate(-27.93 -32.55)"/><path d="M209.38,158.16a0.22,0.22,0,0,1-.07.24,0.24,0.24,0,0,1-.23,0,0.29,0.29,0,0,1-.14-0.16,0.23,0.23,0,0,1,0-.21,0.54,0.54,0,0,1,.14-0.08A0.26,0.26,0,0,1,209.38,158.16Z" transform="translate(-27.93 -32.55)"/><path d="M208.07,158.18a0.21,0.21,0,0,1,0,.26,0.22,0.22,0,0,1-.27.09,0.24,0.24,0,0,1-.12-0.29,0.31,0.31,0,0,1,.14-0.13A0.26,0.26,0,0,1,208.07,158.18Z" transform="translate(-27.93 -32.55)"/><path d="M210.83,158.26a0.35,0.35,0,0,1,.06.29,0.36,0.36,0,0,1-.17.16,0.3,0.3,0,0,1-.36-0.36,0.35,0.35,0,0,1,.21-0.19A0.29,0.29,0,0,1,210.83,158.26Z" transform="translate(-27.93 -32.55)"/><path d="M209.94,158.36a0.26,0.26,0,0,1-.15.33,0.32,0.32,0,0,1-.27-0.08,0.26,0.26,0,0,1,0-.27,0.27,0.27,0,0,1,.18-0.14A0.26,0.26,0,0,1,209.94,158.36Z" transform="translate(-27.93 -32.55)"/><path d="M208.8,158.38a0.23,0.23,0,0,1-.33.27,0.24,0.24,0,0,1-.11-0.29,0.29,0.29,0,0,1,.21-0.15A0.25,0.25,0,0,1,208.8,158.38Z" transform="translate(-27.93 -32.55)"/><path d="M210.4,158.81a0.3,0.3,0,0,1,0,.27,0.28,0.28,0,0,1-.32.12,0.32,0.32,0,0,1-.19-0.22A0.28,0.28,0,0,1,210.4,158.81Z" transform="translate(-27.93 -32.55)"/><path d="M207.9,158.86a0.19,0.19,0,0,1-.06.22,0.19,0.19,0,0,1-.23,0,0.22,0.22,0,0,1-.12-0.21,0.2,0.2,0,0,1,.15-0.2A0.22,0.22,0,0,1,207.9,158.86Z" transform="translate(-27.93 -32.55)"/><path d="M208.47,158.9a0.2,0.2,0,0,1-.07.22,0.2,0.2,0,0,1-.23,0,0.23,0.23,0,0,1-.1-0.28,0.28,0.28,0,0,1,.18-0.14A0.25,0.25,0,0,1,208.47,158.9Z" transform="translate(-27.93 -32.55)"/><path d="M207.86,159.45a0.22,0.22,0,0,1,0,.24,0.21,0.21,0,0,1-.25,0,0.22,0.22,0,0,1-.11-0.28,0.29,0.29,0,0,1,.17-0.12A0.24,0.24,0,0,1,207.86,159.45Z" transform="translate(-27.93 -32.55)"/><path d="M208.42,159.48a0.19,0.19,0,0,1,0,.18,0.22,0.22,0,0,1-.26.11,0.27,0.27,0,0,1-.15-0.19,0.32,0.32,0,0,1,.07-0.18A0.22,0.22,0,0,1,208.42,159.48Z" transform="translate(-27.93 -32.55)"/><path d="M212,161.17l0,3.63c0,0.07-.07,0-0.1,0l-2.64,0L205.83,161a0.69,0.69,0,0,1,.49-1h0.08L212,160v1.19Z" transform="translate(-27.93 -32.55)"/><circle class="cls-18" cx="69.74" cy="165.8" r="4.12"/><text class="cls-19" transform="translate(67.98 167.62)">1</text><circle class="cls-18" cx="89.69" cy="197.75" r="4.12"/><text class="cls-19" transform="translate(87.93 199.57)">6</text><circle class="cls-26" cx="145.29" cy="231.3" r="3.34"/><path d="M171.52,265.93c-0.17-.92-0.35-1.83-0.48-2.74a0.62,0.62,0,0,1,.32-0.49,0.6,0.6,0,0,1,.64.07,0.59,0.59,0,0,1,.19.39c0,0.32.09,0.64,0.13,0.94,0.46-.8.93-1.7,1.4-2.46a0.76,0.76,0,0,1,.68-0.15,0.83,0.83,0,0,1,.39.35,0.73,0.73,0,0,1,0,.57l-1,1.7c-0.11.13-.15,0.32-0.28,0.45l-0.08.15c0.47-.06,1-0.6,1.46-0.28a0.55,0.55,0,0,1,.23.53,0.64,0.64,0,0,1-.17.36l-0.26.13-2.45.89A0.61,0.61,0,0,1,171.52,265.93Z" transform="translate(-27.93 -32.55)"/><circle class="cls-27" cx="77.77" cy="231.3" r="3.34"/><path d="M212,135.18c0.37,0.44.75,0.87,1.1,1.32a0.39,0.39,0,0,1,0,.36,0.37,0.37,0,0,1-.37.16,0.36,0.36,0,0,1-.22-0.15l-0.36-.46c0,0.57,0,1.2,0,1.75a0.47,0.47,0,0,1-.32.29,0.51,0.51,0,0,1-.32-0.07,0.45,0.45,0,0,1-.17-0.31l0-1.22c0-.1,0-0.22,0-0.32v-0.1a1.26,1.26,0,0,1-.7.6,0.34,0.34,0,0,1-.29-0.21,0.4,0.4,0,0,1,0-.24l0.1-.15,1-1.23A0.37,0.37,0,0,1,212,135.18Z" transform="translate(-27.93 -32.55)"/><path d="M215,135.32a0.47,0.47,0,0,1,0,.19c0,0.53,0,1.11,0,1.64l0.44-.55a0.38,0.38,0,0,1,.39,0,0.42,0.42,0,0,1,.17.23,1.43,1.43,0,0,1-.49.79l-0.64.74a0.37,0.37,0,0,1-.38.11,0.74,0.74,0,0,1-.29-0.26l-0.82-1a0.46,0.46,0,0,1-.14-0.36,0.35,0.35,0,0,1,.17-0.28,0.38,0.38,0,0,1,.31,0,3.46,3.46,0,0,1,.51.59v-0.27l0-1.35a0.4,0.4,0,0,1,.19-0.35,0.41,0.41,0,0,1,.31-0.06A0.44,0.44,0,0,1,215,135.32Z" transform="translate(-27.93 -32.55)"/><path d="M215.13,138.69a0.81,0.81,0,0,1,.74.37,2.33,2.33,0,0,1,.12,1.16v1.26h0c0,0.68,0,1.43,0,2.09a0.79,0.79,0,0,1-.49.65,2.83,2.83,0,0,1-.8.05h-3.37a1,1,0,0,1-.92-0.34,1.75,1.75,0,0,1-.12-1c0-.58,0-1.09,0-1.69v-1.69a0.8,0.8,0,0,1,.46-0.8,1.19,1.19,0,0,1,.3-0.08h4.1Z" transform="translate(-27.93 -32.55)"/><path class="cls-18" d="M215.19,139.48c0,0.19,0,.39,0,0.55v3.48h-4.1v-4h4.11Z" transform="translate(-27.93 -32.55)"/><path d="M212.12,140.17a0.28,0.28,0,0,1-.05.27,0.31,0.31,0,0,1-.23.08,0.3,0.3,0,0,1-.22-0.21,0.29,0.29,0,0,1,.12-0.26A0.27,0.27,0,0,1,212.12,140.17Z" transform="translate(-27.93 -32.55)"/><path d="M214.64,140.15a0.27,0.27,0,0,1,0,.26,0.32,0.32,0,0,1-.16.11,0.36,0.36,0,0,1-.22-0.06,0.29,0.29,0,0,1-.1-0.19,0.29,0.29,0,0,1,.17-0.24A0.28,0.28,0,0,1,214.64,140.15Z" transform="translate(-27.93 -32.55)"/><path d="M213.37,140.15a0.27,0.27,0,0,1,0,.28,0.26,0.26,0,0,1-.25.09,0.31,0.31,0,0,1-.19-0.16,0.25,0.25,0,0,1,.05-0.26,0.26,0.26,0,0,1,.26-0.08A0.31,0.31,0,0,1,213.37,140.15Z" transform="translate(-27.93 -32.55)"/><polygon class="cls-18" points="185.37 107.61 185.37 107.6 185.38 107.6 185.37 107.61"/><path d="M212.35,140.62a0.3,0.3,0,0,1,.12.12c0,0.37,0,.73,0,1.1a0.15,0.15,0,0,1-.08.09,0.41,0.41,0,0,0-.16,0c0,0.46,0,.86,0,1.32a0.21,0.21,0,0,1-.12.13,0.18,0.18,0,0,1-.15,0,0.18,0.18,0,0,1-.06-0.09v-1.34h0c0,0.46,0,.86,0,1.33a0.2,0.2,0,0,1-.14.15,0.21,0.21,0,0,1-.16-0.07l0-.06c0-.46,0-0.87,0-1.33a0.22,0.22,0,0,1-.23-0.11v-1.09a0.21,0.21,0,0,1,.11-0.12A9.34,9.34,0,0,1,212.35,140.62Z" transform="translate(-27.93 -32.55)"/><path d="M213.6,140.62a0.22,0.22,0,0,1,.13.12c0,0.36,0,.74,0,1.11a0.17,0.17,0,0,1-.12.09H213.5c0,0.44,0,.88,0,1.31a0.24,0.24,0,0,1-.12.15,0.22,0.22,0,0,1-.18,0l0-.06c0-.46,0-0.9,0-1.36h0v1.32a0.19,0.19,0,0,1-.15.15,0.17,0.17,0,0,1-.15,0l-0.05-.07v-1.35a0.25,0.25,0,0,1-.23-0.1c0-.36,0-0.71,0-1.07a0.21,0.21,0,0,1,.11-0.15l0.06,0C213,140.63,213.3,140.61,213.6,140.62Z" transform="translate(-27.93 -32.55)"/><path d="M214.84,140.62a0.18,0.18,0,0,1,.14.1l0,0.09v1a0.17,0.17,0,0,1-.15.11h-0.09c0,0.42,0,.9,0,1.32a0.2,0.2,0,0,1-.13.14,0.17,0.17,0,0,1-.17,0l0-.06c0-.43,0-0.92,0-1.36h0v1.32a0.21,0.21,0,0,1-.11.14,0.2,0.2,0,0,1-.16,0,0.16,0.16,0,0,1-.07-0.16v-1.28a0.38,0.38,0,0,1-.19,0l0-.07v-1.09a0.2,0.2,0,0,1,.11-0.11l0.09,0h0.85Z" transform="translate(-27.93 -32.55)"/><circle class="cls-18" cx="121.32" cy="112.28" r="4.12"/><text class="cls-19" transform="translate(119.76 114.46)">1</text><text x="-27.93" y="-32.55"/><text class="cls-28" transform="translate(84.16 232.79)">Non-public areas</text><text class="cls-28" transform="translate(151.34 233.12)">North</text></svg>