<svg id="Layer_1" data-name="Layer 1" xmlns="http://www.w3.org/2000/svg" xmlns:xlink="http://www.w3.org/1999/xlink" viewBox="0 0 253.01 278.77"><defs><style>.cls-1,.cls-10,.cls-12,.cls-13,.cls-14,.cls-2,.cls-21,.cls-23,.cls-26,.cls-28,.cls-29,.cls-7,.cls-8,.cls-9{fill:none;}.cls-2,.cls-20,.cls-21{stroke:#000;}.cls-2{stroke-width:0.72px;}.cls-3,.cls-4,.cls-5{fill:#1a1a1a;}.cls-10,.cls-11,.cls-12,.cls-13,.cls-16,.cls-18,.cls-23,.cls-24,.cls-27,.cls-32,.cls-39,.cls-4,.cls-5,.cls-7,.cls-9{stroke:#f2f2f2;}.cls-26,.cls-27,.cls-28,.cls-5,.cls-9{stroke-width:2px;}.cls-6{fill:#0076ab;}.cls-14,.cls-28,.cls-8{stroke:#231f20;}.cls-10,.cls-18{stroke-miterlimit:10;}.cls-11,.cls-22,.cls-36,.cls-37{fill:#f2f2f2;}.cls-12,.cls-14{stroke-width:0.5px;}.cls-13,.cls-20{stroke-width:0.25px;}.cls-15{fill:url(#_10_lpi-10_);}.cls-16,.cls-18,.cls-39{fill:url(#_10_lpi-10_3);}.cls-17{fill:url(#_10_lpi-10_5);}.cls-19,.cls-27,.cls-32,.cls-33{fill:#fff;}.cls-21{stroke-width:0.1px;stroke-dasharray:1 0.5;}.cls-22,.cls-38{font-size:6px;}.cls-22,.cls-25,.cls-30,.cls-34,.cls-36,.cls-37,.cls-38{font-family:Helvetica;}.cls-22,.cls-25,.cls-30,.cls-34,.cls-38{font-weight:700;}.cls-23,.cls-24{stroke-width:0.41px;}.cls-24{fill:url(#_10_lpi-10_15);}.cls-25{font-size:6.83px;}.cls-26,.cls-29,.cls-33{stroke:#fff;}.cls-30{font-size:6.12px;}.cls-31{letter-spacing:-1px;}.cls-34{font-size:6.83px;}.cls-35{fill:#9c9ea1;white-space:pre;}.cls-36{font-size:5px;}.cls-37{font-size:5.83px;}.cls-39{stroke-linecap:square;}</style><pattern id="_10_lpi-10_" data-name="*10 lpi-10%" width="72" height="72" patternTransform="translate(27.99 -31) rotate(-45) scale(0.5)" patternUnits="userSpaceOnUse" viewBox="0 0 72 72"><rect class="cls-1" width="72" height="72"/><line class="cls-2" x1="-0.25" y1="68.4" x2="72.25" y2="68.4"/><line class="cls-2" x1="-0.25" y1="54" x2="72.25" y2="54"/><line class="cls-2" x1="-0.25" y1="39.6" x2="72.25" y2="39.6"/><line class="cls-2" x1="-0.25" y1="25.2" x2="72.25" y2="25.2"/><line class="cls-2" x1="-0.25" y1="10.8" x2="72.25" y2="10.8"/><line class="cls-2" x1="-20" y1="10.8" x2="-6" y2="10.8"/><line class="cls-2" x1="-0.25" y1="61.2" x2="72.25" y2="61.2"/><line class="cls-2" x1="-0.25" y1="46.8" x2="72.25" y2="46.8"/><line class="cls-2" x1="-0.25" y1="32.4" x2="72.25" y2="32.4"/><line class="cls-2" x1="-0.25" y1="18" x2="72.25" y2="18"/><line class="cls-2" x1="-0.25" y1="3.6" x2="72.25" y2="3.6"/><line class="cls-2" x1="-20" y1="3.6" x2="-6" y2="3.6"/></pattern><pattern id="_10_lpi-10_3" data-name="*10 lpi-10%" width="72" height="72" patternTransform="translate(-45.04 -30.99) rotate(-45) scale(0.38)" patternUnits="userSpaceOnUse" viewBox="0 0 72 72"><rect class="cls-1" width="72" height="72"/><line class="cls-2" x1="-0.25" y1="68.4" x2="72.25" y2="68.4"/><line class="cls-2" x1="-0.25" y1="54" x2="72.25" y2="54"/><line class="cls-2" x1="-0.25" y1="39.6" x2="72.25" y2="39.6"/><line class="cls-2" x1="-0.25" y1="25.2" x2="72.25" y2="25.2"/><line class="cls-2" x1="-0.25" y1="10.8" x2="72.25" y2="10.8"/><line class="cls-2" x1="-20" y1="10.8" x2="-6" y2="10.8"/><line class="cls-2" x1="-0.25" y1="61.2" x2="72.25" y2="61.2"/><line class="cls-2" x1="-0.25" y1="46.8" x2="72.25" y2="46.8"/><line class="cls-2" x1="-0.25" y1="32.4" x2="72.25" y2="32.4"/><line class="cls-2" x1="-0.25" y1="18" x2="72.25" y2="18"/><line class="cls-2" x1="-0.25" y1="3.6" x2="72.25" y2="3.6"/><line class="cls-2" x1="-20" y1="3.6" x2="-6" y2="3.6"/></pattern><pattern id="_10_lpi-10_5" data-name="*10 lpi-10%" width="72" height="72" patternTransform="translate(-22.55 -19.35) rotate(-45) scale(0.38)" patternUnits="userSpaceOnUse" viewBox="0 0 72 72"><rect class="cls-1" width="72" height="72"/><line class="cls-2" x1="-0.25" y1="68.4" x2="72.25" y2="68.4"/><line class="cls-2" x1="-0.25" y1="54" x2="72.25" y2="54"/><line class="cls-2" x1="-0.25" y1="39.6" x2="72.25" y2="39.6"/><line class="cls-2" x1="-0.25" y1="25.2" x2="72.25" y2="25.2"/><line class="cls-2" x1="-0.25" y1="10.8" x2="72.25" y2="10.8"/><line class="cls-2" x1="-20" y1="10.8" x2="-6" y2="10.8"/><line class="cls-2" x1="-0.25" y1="61.2" x2="72.25" y2="61.2"/><line class="cls-2" x1="-0.25" y1="46.8" x2="72.25" y2="46.8"/><line class="cls-2" x1="-0.25" y1="32.4" x2="72.25" y2="32.4"/><line class="cls-2" x1="-0.25" y1="18" x2="72.25" y2="18"/><line class="cls-2" x1="-0.25" y1="3.6" x2="72.25" y2="3.6"/><line class="cls-2" x1="-20" y1="3.6" x2="-6" y2="3.6"/></pattern><pattern id="_10_lpi-10_15" data-name="*10 lpi-10%" width="72" height="72" patternTransform="translate(-77.31 -54.12) rotate(-45) scale(0.2)" patternUnits="userSpaceOnUse" viewBox="0 0 72 72"><rect class="cls-1" width="72" height="72"/><line class="cls-2" x1="-0.25" y1="68.4" x2="72.25" y2="68.4"/><line class="cls-2" x1="-0.25" y1="54" x2="72.25" y2="54"/><line class="cls-2" x1="-0.25" y1="39.6" x2="72.25" y2="39.6"/><line class="cls-2" x1="-0.25" y1="25.2" x2="72.25" y2="25.2"/><line class="cls-2" x1="-0.25" y1="10.8" x2="72.25" y2="10.8"/><line class="cls-2" x1="-20" y1="10.8" x2="-6" y2="10.8"/><line class="cls-2" x1="-0.25" y1="61.2" x2="72.25" y2="61.2"/><line class="cls-2" x1="-0.25" y1="46.8" x2="72.25" y2="46.8"/><line class="cls-2" x1="-0.25" y1="32.4" x2="72.25" y2="32.4"/><line class="cls-2" x1="-0.25" y1="18" x2="72.25" y2="18"/><line class="cls-2" x1="-0.25" y1="3.6" x2="72.25" y2="3.6"/><line class="cls-2" x1="-20" y1="3.6" x2="-6" y2="3.6"/></pattern></defs><title>alt1</title><rect class="cls-3" x="118.31" y="182.32" width="11.7" height="11.7" transform="translate(-119.18 131.27) rotate(-45)"/><polygon class="cls-3" points="50.41 95.56 50.33 120.84 47.94 123.68 42.18 123.77 40.54 125.57 31.73 125.57 31.64 87.33 39.38 87.41 39.46 95.48 50.41 95.56"/><polyline class="cls-3" points="109.58 84.99 142.33 84.91 146.21 88.79 145.97 121.78 142.49 125.5 124.3 125.58 105.78 106.82 105.86 88.87 109.66 85.07"/><polyline class="cls-3" points="180.67 182.38 190.63 182.28 252.24 243.02 226.86 268.1 223.98 268.35 164.83 210.01 164.54 198.54 180.67 182.38"/><polygon class="cls-3" points="10.48 152.57 10.48 136.21 14.04 132.89 47.17 132.86 47.99 133.65 60.97 133.39 62.15 132.51 79.94 132.75 98.22 151.63 98.22 162.06 90.43 170.06 90.15 172.25 67.86 172.25 67.86 181.98 41.3 182.21 41.35 181.72 39.99 181.72 28.5 170.59 10.48 152.57"/><path class="cls-4" d="M67.82,89l0.24-20.17,27.7-.24V39.14l-3.64-.24L92.61,35l1.46-3.4,1.7-3.16L97.71,25l2.67-2.43,2.43-2.67L106,18l3.16-2.19L113,14.36l2.67-.49,3.16-.49,3.4-.49,2.67-.24s0,0.24,3.64.49l3.64,0.24,2.43,1,3.64,1,3.4,1.46L144.61,19l3.4,2.19,2.67,2.92L152.87,27l1.94,3.64,1.46,2.92,1,3.89,0.49,3.16,14.51,16.71-3.33,2.48-0.24,24.54-4.86,5.3-31.34-.19-3.16-2.19H118.85l-2.92,2.43Z" transform="translate(-22.49 -11.64)"/><path class="cls-5" d="M92.22,39.72s3.85-27.86,32.71-27.07c0,0,25.11-1.7,33,27L130.06,67.55l-33.71-.42L96,39.55l-3.8.17" transform="translate(-22.49 -11.64)"/><rect class="cls-6" x="48.49" y="143.4" width="11.67" height="21.17"/><rect class="cls-5" x="45.87" y="57.47" width="17.74" height="12.16"/><rect class="cls-5" x="48.01" y="143.4" width="11.67" height="21.17"/><polyline class="cls-3" points="94.78 85.11 62.03 85.03 58.15 88.91 58.4 121.9 61.87 125.62 80.06 125.7 98.58 106.94 98.5 89 94.7 85.19"/><line class="cls-7" x1="89.25" y1="219.2" x2="91.08" y2="217.22"/><polyline class="cls-7" points="94.7 213.88 96.79 211.65 107.52 211.65 109.33 213.46"/><line class="cls-7" x1="112.68" y1="217.5" x2="114.93" y2="219.3"/><polyline class="cls-7" points="95.3 197.86 95.3 199.14 90.54 199.16 90.51 192.78 95.33 192.81 95.3 195.43"/><polyline class="cls-7" points="108.81 197.86 108.81 199.21 113.75 199.2 113.73 192.93 108.88 192.92 108.88 195.59"/><path class="cls-8" d="M154.88,188.48" transform="translate(-22.49 -11.64)"/><polyline class="cls-8" points="137.89 170.63 136.16 170.66 136.17 172.7"/><line class="cls-8" x1="140.32" y1="170.56" x2="144.96" y2="170.63"/><polyline class="cls-7" points="136.24 182.49 163.26 182.71 163.24 181.71 164.54 181.71 193.56 152.77 193.7 136.62 190.06 132.83 184.98 132.83"/><line class="cls-8" x1="182.88" y1="132.76" x2="180.48" y2="132.76"/><line class="cls-8" x1="178.12" y1="132.76" x2="168.9" y2="132.76"/><line class="cls-8" x1="166.69" y1="132.83" x2="164.54" y2="132.83"/><polyline class="cls-8" points="162.07 132.8 157.11 132.75 156.4 133.47 153.9 133.47 153.93 142.81 193.63 142.76"/><line class="cls-8" x1="182.48" y1="151.91" x2="178.83" y2="155.41"/><line class="cls-8" x1="177.19" y1="157.2" x2="173.33" y2="161.05"/><line class="cls-8" x1="171.62" y1="162.56" x2="167.69" y2="166.49"/><polyline class="cls-8" points="166.12 168.27 163.68 170.56 154.82 170.63"/><line class="cls-8" x1="152.79" y1="170.59" x2="147.25" y2="170.56"/><line class="cls-8" x1="144.32" y1="170.84" x2="144.32" y2="182.49"/><line class="cls-8" x1="151.9" y1="170.34" x2="151.9" y2="182.49"/><line class="cls-8" x1="161.61" y1="170.84" x2="168.69" y2="177.7"/><line class="cls-8" x1="168.26" y1="165.84" x2="174.12" y2="172.2"/><line class="cls-8" x1="173.76" y1="160.41" x2="179.69" y2="166.56"/><line class="cls-8" x1="179.19" y1="154.91" x2="185.19" y2="161.2"/><line class="cls-6" x1="184.34" y1="149.62" x2="190.7" y2="155.84"/><line class="cls-8" x1="184.34" y1="149.62" x2="190.7" y2="155.84"/><line class="cls-8" x1="184.41" y1="142.69" x2="184.48" y2="146.91"/><polyline class="cls-7" points="147.38 136.72 145.39 136.76 142.03 133.19 124.6 133.19 123.49 134.17"/><polygon class="cls-3" points="135.65 172.01 135.65 172.13 116.02 172.2 105.8 161.84 105.88 151.41 106.59 150.55 109.41 147.98 115.46 142.03 115.64 142.21 135.65 162.21 135.65 172.01"/><polyline class="cls-9" points="115.64 142.21 135.65 162.21 135.81 162.37"/><polyline class="cls-9" points="135.65 162.05 135.65 162.21 135.65 172.01"/><line class="cls-9" x1="106.59" y1="150.55" x2="109.41" y2="147.98"/><polyline class="cls-9" points="115.16 182.61 136.27 182.57 136.31 172.13 135.65 172.13 116.02 172.2 105.8 161.84 105.88 151.41 106.59 150.55"/><polyline class="cls-9" points="120.67 136.9 115.46 142.03 109.41 147.98"/><polyline class="cls-7" points="90.37 182.06 41.28 182.13 41.27 181.63 39.92 181.63 10.55 152.84 10.66 136.6 14.19 133.13 32.25 133.05"/><polyline class="cls-7" points="30.98 133.04 30.98 147.48 30.27 148.12"/><line class="cls-7" x1="27.05" y1="151.55" x2="18.19" y2="160.2"/><polyline class="cls-7" points="38.26 132.84 47.13 132.76 47.92 133.54 50.23 133.57 50.21 135.69 51.19 136.86 52.15 136.86"/><path class="cls-7" d="M79.21,148.5a1.41,1.41,0,0,0,.92-0.1,5.79,5.79,0,0,1,1.07-.93v-2.26l2.37,0,0.79-.79,18,0,0.9,0.93" transform="translate(-22.49 -11.64)"/><line class="cls-7" x1="83.51" y1="136.76" x2="94.44" y2="147.62"/><polyline class="cls-7" points="97.6 150.84 98.33 151.75 98.3 162.03 90.23 170.13 90.15 172.34 67.91 172.35 67.94 182.11"/><polyline class="cls-7" points="65.69 170.71 68 170.71 68.02 172.59"/><polyline class="cls-7" points="58.01 170.63 58.74 170.66 63.39 170.63"/><line class="cls-7" x1="58.56" y1="182.25" x2="58.57" y2="170.56"/><line class="cls-7" x1="55.56" y1="170.71" x2="45.42" y2="170.7"/><line class="cls-7" x1="43.02" y1="170.78" x2="40.09" y2="170.78"/><line class="cls-7" x1="37.85" y1="170.42" x2="28.7" y2="170.49"/><line class="cls-7" x1="41.56" y1="170.84" x2="41.56" y2="181.92"/><path class="cls-8" d="M72.63,182.2" transform="translate(-22.49 -11.64)"/><line class="cls-7" x1="50.14" y1="170.99" x2="50.14" y2="181.92"/><polyline class="cls-10" points="52.14 143.4 48.49 143.4 48.56 164.63 55.85 164.63"/><polyline class="cls-10" points="58.27 164.54 60.16 164.57 60.14 143.4 56.69 143.39"/><polyline class="cls-7" points="123.18 182.91 123.18 187.14 144.41 187.17"/><polyline class="cls-7" points="157.3 85.21 153.48 89.02 153.49 121.25 156.1 123.83 158.47 123.83"/><polyline class="cls-8" points="160.41 123.83 161.93 123.79 163.79 125.65 169.73 125.63"/><polyline class="cls-8" points="171.7 125.52 181.2 125.5 181.18 123.1 172.78 123.1 172.78 116.23 181.24 116.23 181.22 120.59 184.06 120.59 184.05 125.56 190.06 125.57 190.85 124.8 193.14 124.8 193.15 122.62 195.2 120.59"/><line class="cls-7" x1="194.83" y1="117.54" x2="194.83" y2="111.79"/><polyline class="cls-7" points="194.44 99.64 194.43 98.35 196.63 98.35"/><line class="cls-7" x1="199.22" y1="98.26" x2="202.75" y2="98.33"/><line class="cls-8" x1="189.74" y1="98.72" x2="189.8" y2="113.03"/><line class="cls-8" x1="181.24" y1="116.23" x2="194.77" y2="116.23"/><polyline class="cls-7" points="194.39 98.39 194.38 95.32 172.57 95.3 172.56 87.75"/><line class="cls-8" x1="172.75" y1="87.8" x2="191.5" y2="87.8"/><path class="cls-8" d="M207,102.33" transform="translate(-22.49 -11.64)"/><path class="cls-8" d="M202.21,102.34" transform="translate(-22.49 -11.64)"/><line class="cls-8" x1="172.73" y1="98.92" x2="172.75" y2="116.5"/><line class="cls-8" x1="157.32" y1="77.67" x2="153.14" y2="73.62"/><polyline class="cls-8" points="155.29 51.92 153.01 54.34 153.01 55.45"/><line class="cls-8" x1="153.07" y1="57.41" x2="152.94" y2="68.91"/><polyline class="cls-8" points="152.88 71.2 152.94 73.56 151.96 74.27"/><polyline class="cls-7" points="130.59 32.18 146.34 48.2 146.34 50.22"/><polyline class="cls-7" points="146.41 55.13 146.28 72.84 141.31 78 109.85 77.96 107.2 75.35 104.44 75.39"/><polyline class="cls-7" points="130.85 32.38 106.6 56.63 104.46 56.62"/><polyline class="cls-7" points="146.28 57.22 136.88 57.19 136.86 58.92 121.94 58.92 121.9 63.88"/><polyline class="cls-7" points="117.97 77.67 117.91 65.52 107.71 65.58 107.71 71.2 115.16 71.18"/><polyline class="cls-7" points="137 59.11 139.54 73.16 139.54 77.67"/><line class="cls-7" x1="104.33" y1="65.59" x2="107.71" y2="65.58"/><polyline class="cls-7" points="106.67 56.82 106.64 58.83 119.35 58.85"/><line class="cls-7" x1="110.85" y1="59.24" x2="110.85" y2="62.4"/><polyline class="cls-8" points="69.61 27.74 73.4 27.67 73.4 36.04"/><line class="cls-8" x1="73.6" y1="38.33" x2="73.59" y2="41.25"/><line class="cls-8" x1="73.53" y1="47.87" x2="73.47" y2="57.09"/><polyline class="cls-7" points="81.69 57.26 45.56 57.22 45.56 76.95 50.37 76.97 50.37 74.98 52.39 74.98"/><line class="cls-7" x1="56.68" y1="74.92" x2="63.53" y2="74.93"/><line class="cls-7" x1="45.82" y1="69.63" x2="52.02" y2="69.63"/><line class="cls-7" x1="54.71" y1="69.63" x2="63.61" y2="69.63"/><line class="cls-7" x1="63.47" y1="57.02" x2="63.6" y2="70.94"/><line class="cls-7" x1="63.52" y1="73.27" x2="63.5" y2="77.69"/><polyline class="cls-7" points="58.69 75.16 58.69 77.22 60.75 77.22 61.45 77.89 93.69 77.89 96.11 75.45 99.69 75.46"/><polyline class="cls-7" points="94.51 56.67 98.56 56.68 99.89 56.67"/><line class="cls-7" x1="98.55" y1="71.23" x2="98.56" y2="56.68"/><polyline class="cls-7" points="120.91 84.94 109.37 84.94 105.61 88.81 105.57 107.03 124.16 125.9 142.57 125.9 146.31 121.98 146.31 110.43"/><line class="cls-7" x1="146.33" y1="106.53" x2="146.37" y2="104.43"/><polyline class="cls-7" points="146.44 100.38 146.42 88.73 142.51 84.88 130.96 84.88"/><line class="cls-7" x1="58.16" y1="106.51" x2="58.2" y2="104.42"/><polyline class="cls-7" points="43.39 123.71 42.37 123.75 40.62 125.53 34.57 125.55"/><line class="cls-8" x1="22.71" y1="125.68" x2="32.25" y2="125.68"/><polyline class="cls-8" points="20.27 125.68 14.22 125.7 9.26 120.75 9.24 119.87"/><line class="cls-7" x1="9.33" y1="117.56" x2="9.36" y2="111.88"/><polyline class="cls-7" points="9.34 99.75 9.36 96.16 10.51 96.16 10.51 95.23 31.56 95.27 31.56 85.86 2.16 85.85"/><line class="cls-8" x1="29.74" y1="87.99" x2="29.8" y2="94.83"/><path class="cls-8" d="M52,105.36" transform="translate(-22.49 -11.64)"/><path class="cls-8" d="M45.92,105.35" transform="translate(-22.49 -11.64)"/><line class="cls-8" x1="13.02" y1="93.52" x2="13" y2="95.27"/><line class="cls-8" x1="12.87" y1="85.8" x2="12.87" y2="88.05"/><line class="cls-8" x1="14.5" y1="98.71" x2="14.5" y2="113.08"/><line class="cls-8" x1="9.55" y1="116.46" x2="31.43" y2="116.52"/><polyline class="cls-8" points="23 116.83 23.03 120.6 20.21 120.6 20.19 126.06"/><line class="cls-7" x1="31.56" y1="95.45" x2="31.5" y2="125.37"/><line class="cls-8" x1="37.2" y1="87.24" x2="42.03" y2="87.24"/><polyline class="cls-7" points="44.98 87.11 47.19 87.11 47.15 85.63 50.61 89.08 50.53 121.05 47.92 123.67 45.85 123.67"/><polyline class="cls-8" points="39.63 87.52 39.65 95.39 50.8 95.38"/><line class="cls-8" x1="153.64" y1="136.71" x2="151.87" y2="136.72"/><polyline class="cls-11" points="222.46 213.51 251.13 241.81 251.33 242.07 252.24 243.02"/><line class="cls-7" x1="191.27" y1="182.33" x2="189.18" y2="182.3"/><polyline class="cls-7" points="184.41 182.38 180.67 182.38 164.54 198.54 164.57 200.99"/><polyline class="cls-7" points="164.84 205.54 165.41 210.18 208.95 253.87"/><line class="cls-7" x1="212.02" y1="256.39" x2="223.96" y2="268.33"/><polyline class="cls-7" points="208.13 252.81 220.97 239.85 214.73 233.63"/><polyline class="cls-7" points="210.99 229.65 204.64 223.28 191.73 236.18"/><line class="cls-7" x1="213.07" y1="231.65" x2="200.17" y2="244.53"/><polyline class="cls-7" points="212.82 256.79 225.56 244.06 238.29 256.87 231.21 264.19"/><line class="cls-11" x1="231.6" y1="263.31" x2="229.77" y2="261.48"/><line class="cls-7" x1="219.19" y1="250.74" x2="226.53" y2="258.05"/><line class="cls-7" x1="225.24" y1="257.19" x2="223.88" y2="258.54"/><line class="cls-7" x1="222.15" y1="260.31" x2="219.22" y2="263.24"/><polyline class="cls-7" points="223.72 268.35 227.25 268.38 228.16 267.46"/><line class="cls-7" x1="241.91" y1="249.89" x2="243.45" y2="251.42"/><polyline class="cls-7" points="234.79 252.89 240.12 247.53 234.39 241.83 230.67 245.51"/><line class="cls-7" x1="231.66" y1="242.33" x2="232.64" y2="243.34"/><polyline class="cls-7" points="238.98 230.04 229.07 239.95 222.53 233.39"/><polyline class="cls-7" points="230.25 221.48 220.46 231.32 219.24 230.08"/><line class="cls-7" x1="225.79" y1="217.23" x2="220.68" y2="222.36"/><polyline class="cls-7" points="212.74 204.26 204.89 212.1 199.56 214.81 198.16 216.19 195.89 222.11 190.68 227.26"/><line class="cls-7" x1="189.08" y1="228.87" x2="186.14" y2="230.66"/><line class="cls-7" x1="208.79" y1="209.78" x2="219.21" y2="220.36"/><polyline class="cls-7" points="213.32 214.79 207.57 219.54 211.99 223.93 214.5 221.45"/><line class="cls-11" x1="216.17" y1="219.49" x2="217.2" y2="218.43"/><polyline class="cls-7" points="199.31 190.84 190.91 199.25 186.24 194.55"/><line class="cls-7" x1="183.77" y1="197.18" x2="188.46" y2="201.9"/><line class="cls-7" x1="185.52" y1="199.12" x2="181.86" y2="201.63"/><line class="cls-7" x1="181.17" y1="201.18" x2="185.12" y2="205.17"/><polyline class="cls-7" points="177.81 203.28 182.22 207.66 172.15 216.52"/><line class="cls-7" x1="238.04" y1="257.15" x2="252.19" y2="242.96"/><line class="cls-12" x1="90.37" y1="177.14" x2="72.42" y2="177.15"/><rect class="cls-13" x="83.16" y="172.23" width="1.76" height="4.85"/><rect class="cls-13" x="81.41" y="172.25" width="1.76" height="4.85"/><rect class="cls-13" x="79.63" y="172.34" width="1.76" height="4.85"/><rect class="cls-13" x="77.85" y="172.29" width="1.76" height="4.85"/><rect class="cls-13" x="76.07" y="172.29" width="1.76" height="4.85"/><rect class="cls-13" x="74.29" y="172.29" width="1.76" height="4.85"/><rect class="cls-13" x="72.51" y="172.29" width="1.76" height="4.85"/><rect class="cls-13" x="76.12" y="177.21" width="1.76" height="4.91"/><rect class="cls-13" x="74.34" y="177.21" width="1.76" height="4.91"/><rect class="cls-13" x="72.56" y="177.21" width="1.76" height="4.91"/><line class="cls-12" x1="90.19" y1="177.21" x2="90.19" y2="181.84"/><line class="cls-12" x1="115.16" y1="177.54" x2="133.11" y2="177.55"/><rect class="cls-13" x="120.61" y="172.5" width="1.76" height="4.98"/><rect class="cls-13" x="122.36" y="172.52" width="1.76" height="4.98"/><rect class="cls-13" x="124.14" y="172.47" width="1.76" height="5.12"/><rect class="cls-13" x="125.92" y="172.55" width="1.76" height="4.98"/><rect class="cls-13" x="127.7" y="172.55" width="1.76" height="4.98"/><rect class="cls-13" x="129.48" y="172.55" width="1.76" height="4.98"/><rect class="cls-13" x="131.26" y="172.55" width="1.76" height="4.98"/><rect class="cls-13" x="127.66" y="177.61" width="1.76" height="5.01"/><rect class="cls-13" x="129.44" y="177.61" width="1.76" height="5.01"/><rect class="cls-13" x="131.22" y="177.61" width="1.76" height="5.01"/><line class="cls-14" x1="127.66" y1="177.61" x2="125.44" y2="182.22"/><line class="cls-12" x1="115.34" y1="177.61" x2="115.34" y2="182.33"/><polyline class="cls-7" points="82.3 182.42 82.29 186.66 61.07 186.69"/><polyline class="cls-12" points="77.88 177.21 80.22 181.94 77.37 186.38"/><rect class="cls-13" x="70.88" y="182.09" width="1.62" height="4.77"/><rect class="cls-13" x="69.28" y="182.11" width="1.62" height="4.77"/><rect class="cls-13" x="67.64" y="182.2" width="1.62" height="4.61"/><rect class="cls-13" x="66.01" y="182.14" width="1.61" height="4.77"/><rect class="cls-13" x="64.37" y="182.14" width="1.61" height="4.77"/><rect class="cls-13" x="62.74" y="182.14" width="1.62" height="4.77"/><rect class="cls-13" x="61.11" y="182.14" width="1.62" height="4.77"/><rect class="cls-13" x="75.75" y="182.17" width="1.62" height="4.55"/><rect class="cls-13" x="74.14" y="182.19" width="1.62" height="4.55"/><rect class="cls-13" x="72.51" y="182.27" width="1.62" height="4.41"/><polyline class="cls-12" points="127.6 177.65 125.26 182.38 128.11 186.82"/><rect class="cls-13" x="132.98" y="182.54" width="1.62" height="4.77"/><rect class="cls-13" x="134.58" y="182.55" width="1.62" height="4.77"/><rect class="cls-13" x="136.22" y="182.65" width="1.62" height="4.61"/><rect class="cls-13" x="137.85" y="182.59" width="1.62" height="4.77"/><rect class="cls-13" x="139.49" y="182.59" width="1.62" height="4.77"/><rect class="cls-13" x="141.12" y="182.59" width="1.62" height="4.77"/><rect class="cls-13" x="142.76" y="182.59" width="1.62" height="4.77"/><rect class="cls-13" x="128.12" y="182.61" width="1.62" height="4.55"/><rect class="cls-13" x="129.72" y="182.63" width="1.62" height="4.55"/><rect class="cls-13" x="131.36" y="182.72" width="1.62" height="4.41"/><line class="cls-12" x1="190.99" y1="91.53" x2="176.51" y2="91.53"/><rect class="cls-13" x="185.17" y="87.7" width="1.42" height="3.78"/><rect class="cls-13" x="183.76" y="87.71" width="1.42" height="3.78"/><rect class="cls-13" x="182.33" y="87.79" width="1.42" height="3.78"/><rect class="cls-13" x="180.89" y="87.74" width="1.42" height="3.78"/><rect class="cls-13" x="179.46" y="87.74" width="1.42" height="3.78"/><rect class="cls-13" x="178.02" y="87.74" width="1.42" height="3.78"/><rect class="cls-13" x="176.59" y="87.74" width="1.42" height="3.78"/><rect class="cls-13" x="179.49" y="91.58" width="1.42" height="3.83"/><rect class="cls-13" x="178.06" y="91.58" width="1.42" height="3.83"/><rect class="cls-13" x="176.62" y="91.58" width="1.42" height="3.83"/><line class="cls-12" x1="190.79" y1="91.39" x2="190.79" y2="95"/><line class="cls-12" x1="180.91" y1="91.58" x2="182.8" y2="95.26"/><line class="cls-7" x1="73.46" y1="85.06" x2="84.18" y2="84.9"/><polygon class="cls-3" points="189.84 133.05 193.49 136.94 193.24 142.28 154.36 142.45 154.04 133.78 156.38 133.86 157.2 133.05 189.84 133.05"/><line class="cls-7" x1="157.2" y1="133.05" x2="189.84" y2="133.05"/><line class="cls-7" x1="189.84" y1="133.05" x2="193.49" y2="136.94"/><line class="cls-7" x1="193.49" y1="136.94" x2="193.24" y2="142.28"/><line class="cls-7" x1="193.24" y1="142.28" x2="154.36" y2="142.45"/><line class="cls-7" x1="154.36" y1="142.45" x2="154.04" y2="133.78"/><line class="cls-7" x1="154.04" y1="133.78" x2="156.38" y2="133.86"/><line class="cls-7" x1="156.38" y1="133.86" x2="157.2" y2="133.05"/><polygon class="cls-3" points="145.29 137 145.17 142.86 145.05 142.85 132.04 157.89 131.93 157.8 116.07 141.94 124.58 133.43 141.89 133.43 145.1 136.99 145.29 137"/><polyline class="cls-8" points="145.29 136.94 145.29 137 145.17 142.86 145.17 143.22"/><polyline class="cls-7" points="145.05 142.85 132.04 157.89 131.8 158.16"/><polyline class="cls-7" points="116.01 142 116.07 141.94 124.58 133.43"/><line class="cls-7" x1="124.58" y1="133.43" x2="141.89" y2="133.43"/><line class="cls-7" x1="141.89" y1="133.43" x2="145.1" y2="136.99"/><line class="cls-9" x1="131.92" y1="157.8" x2="116.07" y2="141.94"/><line class="cls-8" x1="136.42" y1="170.19" x2="136.12" y2="170.19"/><line class="cls-8" x1="132.23" y1="158.28" x2="145.35" y2="143.15"/><line class="cls-8" x1="145.35" y1="143.15" x2="145.53" y2="137.02"/><line class="cls-8" x1="145.53" y1="137.02" x2="153.37" y2="136.96"/><line class="cls-8" x1="153.37" y1="136.96" x2="153.49" y2="142.97"/><line class="cls-8" x1="153.49" y1="142.97" x2="183.68" y2="143.09"/><polyline class="cls-8" points="183.68 143.09 183.93 143.09 193.28 143.09"/><polyline class="cls-8" points="193.28 143.09 193.11 152.39 193.1 152.63"/><line class="cls-8" x1="193.04" y1="152.39" x2="164.37" y2="181.25"/><line class="cls-8" x1="164.37" y1="181.25" x2="162.91" y2="181.25"/><polyline class="cls-8" points="162.73 181.19 162.73 181.26 162.84 182.4"/><line class="cls-8" x1="162.84" y1="182.4" x2="136.48" y2="182.1"/><line class="cls-8" x1="136.48" y1="182.1" x2="136.42" y2="170.19"/><line class="cls-8" x1="136.11" y1="170.19" x2="135.93" y2="162.11"/><line class="cls-8" x1="135.93" y1="162.11" x2="132.23" y2="158.28"/><polygon class="cls-15" points="162.73 181.24 162.84 182.38 136.48 182.51 136.48 182.08 136.42 170.17 136.11 170.17 135.93 162.09 132.22 158.26 145.35 143.13 145.53 137 153.37 136.94 153.49 142.95 183.68 143.07 183.93 143.07 193.28 143.07 193.11 152.37 193.04 152.37 164.36 181.23 162.91 181.23 162.73 181.24"/><line class="cls-7" x1="132.22" y1="158.26" x2="145.35" y2="143.13"/><line class="cls-7" x1="145.35" y1="143.13" x2="145.53" y2="137"/><line class="cls-7" x1="145.53" y1="137" x2="153.37" y2="136.94"/><line class="cls-7" x1="153.37" y1="136.94" x2="153.49" y2="142.95"/><line class="cls-7" x1="153.49" y1="142.95" x2="183.68" y2="143.07"/><line class="cls-7" x1="183.93" y1="143.07" x2="193.28" y2="143.07"/><line class="cls-7" x1="183.68" y1="143.07" x2="183.93" y2="143.07"/><polyline class="cls-7" points="193.28 143.07 193.11 152.37 193.1 152.61"/><line class="cls-7" x1="193.04" y1="152.37" x2="164.36" y2="181.23"/><line class="cls-7" x1="164.36" y1="181.23" x2="162.91" y2="181.23"/><polyline class="cls-7" points="162.73 181.17 162.73 181.24 162.84 182.38"/><polyline class="cls-7" points="162.84 182.38 136.48 182.51 115.16 182.61"/><line class="cls-7" x1="136.48" y1="182.08" x2="136.42" y2="170.17"/><line class="cls-9" x1="136.11" y1="170.17" x2="135.93" y2="162.09"/><line class="cls-9" x1="135.93" y1="162.09" x2="132.22" y2="158.26"/><polygon class="cls-16" points="73.35 56.95 73.53 27.91 69.72 28.09 69.55 30.5 59.87 38.97 49.5 39.15 49.33 50.21 38.96 50.38 32.39 56.95 32.39 67.49 22.02 67.66 21.85 76.65 1.63 76.65 1.69 95.3 31.56 95.3 31.7 87.37 39.65 87.54 40 95.49 50.71 95.66 51.06 89.61 47.6 85.64 47.6 77.17 46.05 77 45.87 57.47 73.35 56.95"/><path class="cls-17" d="M84,133.41" transform="translate(-22.49 -11.64)"/><polyline class="cls-18" points="31.45 116.55 9.44 116.46 9.37 120.84 14.22 125.7 31.47 125.78 31.45 116.55"/><path class="cls-17" d="M37.46,101.68" transform="translate(-22.49 -11.64)"/><path d="M109.44,194.9l0,0.09v1.88a0.35,0.35,0,0,1-.14.2l-0.1,0H108.6a1,1,0,0,1,0-.21v-2.13h0a5.81,5.81,0,0,1,.67,0A0.28,0.28,0,0,1,109.44,194.9Z" transform="translate(-22.49 -11.64)"/><path d="M108.42,194.79v2.32a0.33,0.33,0,0,0-.29.15,4.74,4.74,0,0,0-.19,1.8,3.87,3.87,0,0,0,.22,1.4,0.28,0.28,0,0,0,.26.12c0,0.37,0,.75,0,1.13v1.13a0.9,0.9,0,0,1-.54-0.21,3.79,3.79,0,0,1-1.25-2.72c0-.44,0-0.9-0.05-1.36v0a8.16,8.16,0,0,1,.12-1.34,4.55,4.55,0,0,1,.46-1.33,2.52,2.52,0,0,1,1.06-1l0.16,0v0Z" transform="translate(-22.49 -11.64)"/><path class="cls-19" d="M108.38,196.55h0a0.06,0.06,0,0,1,0-.06A0,0,0,0,1,108.38,196.55Z" transform="translate(-22.49 -11.64)"/><path d="M108.37,196.53a0,0,0,0,1,0,0l0,0S108.38,196.48,108.37,196.53Z" transform="translate(-22.49 -11.64)"/><path d="M109.26,200.57a0.34,0.34,0,0,1,.18.1,0.53,0.53,0,0,1,.06.28c0,0.54,0,1.09,0,1.65a0.31,0.31,0,0,1-.17.22l-0.07,0h-0.65a0.93,0.93,0,0,1,0-.21v-2l0,0h0.62Z" transform="translate(-22.49 -11.64)"/><path class="cls-20" d="M169,196.06a0.51,0.51,0,0,0-.43.3l0,0.14,0,2.42a0.48,0.48,0,0,0,.38.32,0.45,0.45,0,0,0,.36-0.09c0.07,0.06.1-.07,0.15-0.09l0,0,0.09-.19c0-.39,0-0.8,0-1.18l0.15,0.13,2,2a0.47,0.47,0,0,0,.47.07,0.51,0.51,0,0,0,.29-0.44,0.55,0.55,0,0,0-.11-0.3L170.08,197a0,0,0,0,1,0,0c0.41,0,.8,0,1.22,0a0.51,0.51,0,0,0,.26-0.12,0.2,0.2,0,0,0,0,.07s0.12-.09.08-0.14a0.48,0.48,0,0,0,.08-0.42,0.55,0.55,0,0,0-.23-0.28l-0.17-.06H169Z" transform="translate(-22.49 -11.64)"/><path class="cls-21" d="M172,200a0.51,0.51,0,0,0,.43-0.3l0-.14,0-2.42a0.48,0.48,0,0,0-.37-0.32,0.45,0.45,0,0,0-.36.09c-0.07-.06-0.1.07-0.15,0.09l0,0-0.09.19c0,0.39,0,.79,0,1.19l-0.15-.13-2-2a0.47,0.47,0,0,0-.47-0.07,0.51,0.51,0,0,0-.29.44,0.57,0.57,0,0,0,.11.3l2.18,2.11a0,0,0,0,1,0,0c-0.41,0-.8,0-1.22,0a0.52,0.52,0,0,0-.26.11,0.18,0.18,0,0,0,0-.07s-0.12.09-.08,0.14a0.49,0.49,0,0,0-.08.42,0.56,0.56,0,0,0,.23.28l0.17,0.06H172Z" transform="translate(-22.49 -11.64)"/><path d="M123.59,203c0.34,0.41.68,0.81,1,1.22a0.37,0.37,0,0,1,0,.33,0.33,0.33,0,0,1-.33.15,0.33,0.33,0,0,1-.2-0.14l-0.33-.43c0,0.53,0,1.11,0,1.62a0.42,0.42,0,0,1-.29.27,0.43,0.43,0,0,1-.28-0.06,0.43,0.43,0,0,1-.15-0.29l0-1.13c0-.09,0-0.21,0-0.3v-0.1a1.14,1.14,0,0,1-.63.56,0.31,0.31,0,0,1-.26-0.2,0.36,0.36,0,0,1,0-.23l0.09-.14,0.94-1.14A0.33,0.33,0,0,1,123.59,203Z" transform="translate(-22.49 -11.64)"/><path d="M126.29,203.12a0.44,0.44,0,0,1,0,.17c0,0.49,0,1,0,1.52l0.4-.51a0.34,0.34,0,0,1,.35,0,0.4,0.4,0,0,1,.16.22,1.33,1.33,0,0,1-.44.73l-0.57.69a0.34,0.34,0,0,1-.34.1,0.68,0.68,0,0,1-.26-0.24l-0.74-.91a0.42,0.42,0,0,1-.13-0.33,0.32,0.32,0,0,1,.16-0.26,0.33,0.33,0,0,1,.28,0,3.22,3.22,0,0,1,.46.55v-0.25l0-1.26a0.38,0.38,0,0,1,.17-0.33,0.36,0.36,0,0,1,.28-0.06A0.4,0.4,0,0,1,126.29,203.12Z" transform="translate(-22.49 -11.64)"/><path d="M126.44,206.24a0.73,0.73,0,0,1,.67.35,2.25,2.25,0,0,1,.11,1.08v1.17h0c0,0.63,0,1.32,0,1.94a0.72,0.72,0,0,1-.44.6,2.49,2.49,0,0,1-.72,0h-3a0.84,0.84,0,0,1-.83-0.32,1.68,1.68,0,0,1-.11-0.94c0-.54,0-1,0-1.56v-1.57a0.75,0.75,0,0,1,.41-0.74,1,1,0,0,1,.27-0.07h3.69Z" transform="translate(-22.49 -11.64)"/><path class="cls-19" d="M126.5,207c0,0.18,0,.36,0,0.51v3.23h-3.69V207h3.7Z" transform="translate(-22.49 -11.64)"/><path d="M123.73,207.62a0.27,0.27,0,0,1,0,.25,0.27,0.27,0,0,1-.21.08,0.27,0.27,0,0,1-.2-0.2,0.27,0.27,0,0,1,.1-0.24A0.24,0.24,0,0,1,123.73,207.62Z" transform="translate(-22.49 -11.64)"/><path d="M126,207.6a0.27,0.27,0,0,1,0,.24,0.31,0.31,0,0,1-.15.1,0.3,0.3,0,0,1-.19-0.06,0.28,0.28,0,0,1-.09-0.18,0.27,0.27,0,0,1,.15-0.23A0.24,0.24,0,0,1,126,207.6Z" transform="translate(-22.49 -11.64)"/><path d="M124.85,207.6a0.25,0.25,0,0,1,0,.26,0.23,0.23,0,0,1-.22.09,0.28,0.28,0,0,1-.17-0.15,0.24,0.24,0,0,1,0-.24,0.23,0.23,0,0,1,.24-0.07A0.27,0.27,0,0,1,124.85,207.6Z" transform="translate(-22.49 -11.64)"/><polygon class="cls-19" points="102.3 195.97 102.3 195.96 102.31 195.96 102.3 195.97"/><path d="M123.94,208a0.25,0.25,0,0,1,.1.11c0,0.34,0,.68,0,1a0.15,0.15,0,0,1-.08.08,0.37,0.37,0,0,0-.14,0c0,0.42,0,.8,0,1.23a0.2,0.2,0,0,1-.11.12,0.16,0.16,0,0,1-.14,0,0.17,0.17,0,0,1-.05-0.08v-1.24h0c0,0.43,0,.8,0,1.23a0.19,0.19,0,0,1-.13.14,0.19,0.19,0,0,1-.15-0.06l0-.06c0-.43,0-0.81,0-1.24a0.2,0.2,0,0,1-.21-0.11v-1a0.19,0.19,0,0,1,.1-0.11A8,8,0,0,1,123.94,208Z" transform="translate(-22.49 -11.64)"/><path d="M125.06,208a0.21,0.21,0,0,1,.12.11c0,0.34,0,.69,0,1a0.16,0.16,0,0,1-.11.09H125c0,0.4,0,.81,0,1.22a0.22,0.22,0,0,1-.11.14,0.2,0.2,0,0,1-.16,0l0-.06c0-.43,0-0.83,0-1.26h0v1.22a0.17,0.17,0,0,1-.13.14,0.15,0.15,0,0,1-.13,0l0-.07v-1.25a0.22,0.22,0,0,1-.21-0.09c0-.34,0-0.66,0-1a0.2,0.2,0,0,1,.1-0.14l0.05,0C124.52,208,124.79,208,125.06,208Z" transform="translate(-22.49 -11.64)"/><path d="M126.18,208a0.17,0.17,0,0,1,.13.09l0,0.08v0.95a0.15,0.15,0,0,1-.13.11h-0.08c0,0.39,0,.83,0,1.22a0.18,0.18,0,0,1-.11.13,0.16,0.16,0,0,1-.15,0l0-.05c0-.4,0-0.85,0-1.26h0v1.22a0.19,0.19,0,0,1-.1.13,0.18,0.18,0,0,1-.15,0,0.15,0.15,0,0,1-.06-0.15v-1.19a0.33,0.33,0,0,1-.17,0l0-.07v-1a0.2,0.2,0,0,1,.1-0.11l0.08,0h0.77Z" transform="translate(-22.49 -11.64)"/><path d="M34.83,112.76a0.25,0.25,0,0,1,0,.21,0.22,0.22,0,0,1-.25.09,0.26,0.26,0,0,1-.16-0.19,0.18,0.18,0,0,1,.08-0.2A0.22,0.22,0,0,1,34.83,112.76Z" transform="translate(-22.49 -11.64)"/><path d="M34.21,112.73a0.23,0.23,0,0,1,0,.22,0.24,0.24,0,0,1-.14.13,0.22,0.22,0,0,1-.23-0.33A0.21,0.21,0,0,1,34.21,112.73Z" transform="translate(-22.49 -11.64)"/><path d="M33.73,113a0.22,0.22,0,0,1-.06.23,0.22,0.22,0,0,1-.22,0,0.24,0.24,0,0,1-.11-0.27,0.31,0.31,0,0,1,.16-0.12A0.22,0.22,0,0,1,33.73,113Z" transform="translate(-22.49 -11.64)"/><path d="M35.33,113a0.25,0.25,0,0,1,0,.28,0.24,0.24,0,0,1-.44-0.06,0.22,0.22,0,0,1,0-.2,0.38,0.38,0,0,1,.16-0.09A0.25,0.25,0,0,1,35.33,113Z" transform="translate(-22.49 -11.64)"/><path d="M34.49,113.3a0.2,0.2,0,0,1-.06.22,0.22,0.22,0,0,1-.21,0,0.26,0.26,0,0,1-.12-0.15,0.21,0.21,0,0,1,0-.19,0.45,0.45,0,0,1,.13-0.07A0.23,0.23,0,0,1,34.49,113.3Z" transform="translate(-22.49 -11.64)"/><path d="M33.3,113.32a0.19,0.19,0,0,1,0,.23,0.2,0.2,0,0,1-.24.08,0.21,0.21,0,0,1-.11-0.26,0.28,0.28,0,0,1,.13-0.11A0.23,0.23,0,0,1,33.3,113.32Z" transform="translate(-22.49 -11.64)"/><path d="M35.8,113.39a0.31,0.31,0,0,1,.05.26,0.32,0.32,0,0,1-.16.15,0.27,0.27,0,0,1-.32-0.32,0.31,0.31,0,0,1,.19-0.17A0.26,0.26,0,0,1,35.8,113.39Z" transform="translate(-22.49 -11.64)"/><path d="M35,113.48a0.23,0.23,0,0,1-.13.3,0.29,0.29,0,0,1-.24-0.07,0.23,0.23,0,0,1,0-.24,0.25,0.25,0,0,1,.17-0.12A0.24,0.24,0,0,1,35,113.48Z" transform="translate(-22.49 -11.64)"/><path d="M34,113.5a0.2,0.2,0,0,1-.07.23,0.2,0.2,0,0,1-.23,0,0.22,0.22,0,0,1-.1-0.26,0.26,0.26,0,0,1,.19-0.14A0.22,0.22,0,0,1,34,113.5Z" transform="translate(-22.49 -11.64)"/><path d="M35.41,113.89a0.27,0.27,0,0,1,0,.24,0.26,0.26,0,0,1-.29.11,0.29,0.29,0,0,1-.17-0.2A0.25,0.25,0,0,1,35.41,113.89Z" transform="translate(-22.49 -11.64)"/><path d="M33.15,113.93a0.17,0.17,0,0,1-.06.2,0.17,0.17,0,0,1-.21,0,0.19,0.19,0,0,1-.11-0.19,0.18,0.18,0,0,1,.14-0.18A0.19,0.19,0,0,1,33.15,113.93Z" transform="translate(-22.49 -11.64)"/><path d="M33.67,114a0.18,0.18,0,0,1-.06.2,0.19,0.19,0,0,1-.21,0,0.21,0.21,0,0,1-.09-0.25,0.25,0.25,0,0,1,.16-0.13A0.22,0.22,0,0,1,33.67,114Z" transform="translate(-22.49 -11.64)"/><path d="M33.12,114.46a0.2,0.2,0,0,1,0,.21,0.19,0.19,0,0,1-.23,0,0.2,0.2,0,0,1-.1-0.25,0.26,0.26,0,0,1,.15-0.11A0.22,0.22,0,0,1,33.12,114.46Z" transform="translate(-22.49 -11.64)"/><path d="M33.63,114.49a0.17,0.17,0,0,1,0,.16,0.2,0.2,0,0,1-.23.1,0.24,0.24,0,0,1-.14-0.17,0.27,0.27,0,0,1,.06-0.16A0.2,0.2,0,0,1,33.63,114.49Z" transform="translate(-22.49 -11.64)"/><path d="M36.81,116l0,3.26c0,0.06-.07,0-0.09,0l-2.38,0-3-3.46a0.62,0.62,0,0,1,.44-0.93h0.07l5,0.05V116Z" transform="translate(-22.49 -11.64)"/><path d="M43.47,113.4a0.7,0.7,0,0,1,0,.73,0.76,0.76,0,0,1-.44.29,0.72,0.72,0,0,1-.32,0,0.65,0.65,0,0,1-.29-0.15,0.68,0.68,0,0,1-.19-0.73,0.73,0.73,0,0,1,.64-0.47A0.71,0.71,0,0,1,43.47,113.4Z" transform="translate(-22.49 -11.64)"/><path d="M44.44,115.15a2.13,2.13,0,0,1,.07.67v1.62a0.45,0.45,0,0,1-.08.38,0.32,0.32,0,0,1-.31.08,0.32,0.32,0,0,1-.21-0.24l0-.26v-1.7a0.26,0.26,0,0,0-.14,0,2.28,2.28,0,0,0,0,.39v1.35c0,0.64,0,1.25,0,1.89v1.37a1,1,0,0,1-.09.58,0.41,0.41,0,0,1-.7-0.12l0-.15c0-.42,0-0.8,0-1.22v-1.87H42.82c0,1,0,2.08,0,3.12a0.44,0.44,0,0,1-.21.33,0.36,0.36,0,0,1-.33,0,0.46,0.46,0,0,1-.24-0.22l0-.12v-1.12c0-.32,0-0.71,0-1.07h0v-1c0-.21,0-0.42,0-0.64V115.7H41.84v1.7a0.47,0.47,0,0,1-.15.49,0.34,0.34,0,0,1-.33,0,0.49,0.49,0,0,1-.12-0.36c0-.26,0-0.82,0-0.82v-0.53a1.55,1.55,0,0,0,0-.19,1.39,1.39,0,0,1,.21-1,1.19,1.19,0,0,1,1-.32h1A1,1,0,0,1,44.44,115.15Z" transform="translate(-22.49 -11.64)"/><path d="M47.75,113.48a0.68,0.68,0,0,1,0,.67,0.69,0.69,0,0,1-1.26-.17,0.65,0.65,0,0,1,.18-0.65,0.67,0.67,0,0,1,.63-0.18A0.74,0.74,0,0,1,47.75,113.48Z" transform="translate(-22.49 -11.64)"/><path d="M47.69,114.66a0.92,0.92,0,0,1,.74.54l0.11,0.32,0.51,1.74a0.32,0.32,0,0,1,0,.29,0.29,0.29,0,0,1-.31.1,0.45,0.45,0,0,1-.24-0.36L48,115.62a0.29,0.29,0,0,0-.15,0L48,116.06l0.46,1.54c0.12,0.4.23,0.8,0.35,1.2H47.88l0,2.43a0.37,0.37,0,0,1-.15.21,0.3,0.3,0,0,1-.25,0,0.36,0.36,0,0,1-.24-0.21v-2.46H47.07v2.4a0.34,0.34,0,0,1-.57.2,0.32,0.32,0,0,1-.09-0.19V118.8c-0.3,0-.56,0-0.87,0v0l0.64-2.2c0.08-.31.19-0.62,0.27-0.94a0.38,0.38,0,0,0-.14,0l-0.16.51-0.37,1.25a0.35,0.35,0,0,1-.26.26,0.31,0.31,0,0,1-.29-0.16,0.3,0.3,0,0,1,0-.22l0.21-.74h0v0l0.38-1.29a0.94,0.94,0,0,1,.89-0.56h1Z" transform="translate(-22.49 -11.64)"/><path class="cls-19" d="M47.76,118.71s0,0,0,0h0Z" transform="translate(-22.49 -11.64)"/><path d="M202.65,113.56a0.7,0.7,0,0,1,0,.73,0.75,0.75,0,0,1-.44.29,0.72,0.72,0,0,1-.31,0,0.66,0.66,0,0,1-.29-0.15,0.68,0.68,0,0,1-.19-0.73,0.73,0.73,0,0,1,.64-0.47A0.7,0.7,0,0,1,202.65,113.56Z" transform="translate(-22.49 -11.64)"/><path d="M203.62,115.31a2.16,2.16,0,0,1,.07.67v1.62a0.45,0.45,0,0,1-.07.37,0.32,0.32,0,0,1-.31.08,0.31,0.31,0,0,1-.21-0.23l0-.26v-1.7a0.25,0.25,0,0,0-.14,0,2.28,2.28,0,0,0,0,.39v1.35c0,0.64,0,1.25,0,1.89v1.36a1,1,0,0,1-.09.58,0.41,0.41,0,0,1-.7-0.12l0-.15c0-.42,0-0.8,0-1.22v-1.87H202c0,1,0,2.08,0,3.12a0.44,0.44,0,0,1-.21.33,0.37,0.37,0,0,1-.34,0,0.45,0.45,0,0,1-.24-0.22l0-.12V120.1c0-.33,0-0.71,0-1.07h0v-1c0-.21,0-0.42,0-0.64v-1.47H201v1.7a0.47,0.47,0,0,1-.15.49,0.34,0.34,0,0,1-.33,0,0.49,0.49,0,0,1-.12-0.36c0-.26,0-0.82,0-0.82v-0.53a1.57,1.57,0,0,0,0-.19,1.39,1.39,0,0,1,.21-1,1.19,1.19,0,0,1,1-.32h1A1,1,0,0,1,203.62,115.31Z" transform="translate(-22.49 -11.64)"/><path d="M206.93,113.65a0.68,0.68,0,0,1,0,.67,0.69,0.69,0,0,1-1.26-.17,0.66,0.66,0,0,1,.18-0.65,0.67,0.67,0,0,1,.63-0.18A0.74,0.74,0,0,1,206.93,113.65Z" transform="translate(-22.49 -11.64)"/><path d="M206.87,114.83a0.92,0.92,0,0,1,.75.54l0.11,0.32,0.51,1.74a0.32,0.32,0,0,1,0,.29,0.29,0.29,0,0,1-.31.1,0.45,0.45,0,0,1-.24-0.36l-0.48-1.66a0.31,0.31,0,0,0-.15,0l0.12,0.44,0.46,1.54c0.12,0.4.23,0.8,0.35,1.2h-0.88l0,2.43a0.36,0.36,0,0,1-.15.21,0.3,0.3,0,0,1-.25,0,0.36,0.36,0,0,1-.24-0.21V119h-0.14v2.4a0.34,0.34,0,0,1-.23.28,0.34,0.34,0,0,1-.34-0.08,0.31,0.31,0,0,1-.09-0.19V119c-0.3,0-.56,0-0.87,0v0l0.64-2.2c0.08-.31.19-0.62,0.27-0.94a0.4,0.4,0,0,0-.14,0l-0.16.51-0.37,1.25a0.35,0.35,0,0,1-.26.26,0.31,0.31,0,0,1-.3-0.16,0.3,0.3,0,0,1,0-.22l0.22-.74h0v0l0.38-1.29a0.94,0.94,0,0,1,.89-0.56h1Z" transform="translate(-22.49 -11.64)"/><path class="cls-19" d="M206.94,118.87s0,0,0,0h0A0,0,0,0,1,206.94,118.87Z" transform="translate(-22.49 -11.64)"/><path d="M214.47,114a0.25,0.25,0,0,0,0,.21,0.22,0.22,0,0,0,.25.09,0.26,0.26,0,0,0,.16-0.19,0.18,0.18,0,0,0-.08-0.2A0.22,0.22,0,0,0,214.47,114Z" transform="translate(-22.49 -11.64)"/><path d="M215.08,114a0.23,0.23,0,0,0,0,.22,0.24,0.24,0,0,0,.14.13,0.23,0.23,0,0,0,.21-0.07,0.22,0.22,0,0,0,0-.25A0.21,0.21,0,0,0,215.08,114Z" transform="translate(-22.49 -11.64)"/><path d="M215.57,114.25a0.22,0.22,0,0,0,.06.23,0.22,0.22,0,0,0,.22,0,0.24,0.24,0,0,0,.11-0.27,0.3,0.3,0,0,0-.16-0.12A0.22,0.22,0,0,0,215.57,114.25Z" transform="translate(-22.49 -11.64)"/><path d="M214,114.22a0.23,0.23,0,0,0,.25.38,0.25,0.25,0,0,0,.16-0.17,0.23,0.23,0,0,0,0-.2,0.38,0.38,0,0,0-.16-0.09A0.24,0.24,0,0,0,214,114.22Z" transform="translate(-22.49 -11.64)"/><path d="M214.81,114.57a0.2,0.2,0,0,0,.06.22,0.22,0.22,0,0,0,.21,0,0.26,0.26,0,0,0,.13-0.15,0.21,0.21,0,0,0,0-.19,0.45,0.45,0,0,0-.13-0.07A0.24,0.24,0,0,0,214.81,114.57Z" transform="translate(-22.49 -11.64)"/><path d="M216,114.59a0.19,0.19,0,0,0,0,.23,0.2,0.2,0,0,0,.24.08,0.21,0.21,0,0,0,.11-0.26,0.28,0.28,0,0,0-.13-0.11A0.23,0.23,0,0,0,216,114.59Z" transform="translate(-22.49 -11.64)"/><path d="M213.5,114.66a0.31,0.31,0,0,0-.05.27,0.32,0.32,0,0,0,.16.15,0.27,0.27,0,0,0,.32-0.32,0.31,0.31,0,0,0-.19-0.17A0.26,0.26,0,0,0,213.5,114.66Z" transform="translate(-22.49 -11.64)"/><path d="M214.3,114.75a0.23,0.23,0,0,0,.13.3,0.29,0.29,0,0,0,.24-0.07,0.23,0.23,0,0,0,0-.24,0.25,0.25,0,0,0-.17-0.12A0.24,0.24,0,0,0,214.3,114.75Z" transform="translate(-22.49 -11.64)"/><path d="M215.33,114.77a0.2,0.2,0,0,0,.07.22,0.2,0.2,0,0,0,.23,0,0.22,0.22,0,0,0,.1-0.26,0.26,0.26,0,0,0-.19-0.14A0.22,0.22,0,0,0,215.33,114.77Z" transform="translate(-22.49 -11.64)"/><path d="M213.89,115.16a0.27,0.27,0,0,0,0,.24,0.25,0.25,0,0,0,.29.11,0.29,0.29,0,0,0,.17-0.19A0.25,0.25,0,0,0,213.89,115.16Z" transform="translate(-22.49 -11.64)"/><path d="M216.14,115.2a0.17,0.17,0,0,0,.06.2,0.17,0.17,0,0,0,.21,0,0.19,0.19,0,0,0,.11-0.19,0.18,0.18,0,0,0-.14-0.18A0.2,0.2,0,0,0,216.14,115.2Z" transform="translate(-22.49 -11.64)"/><path d="M215.63,115.23a0.18,0.18,0,0,0,.06.2,0.19,0.19,0,0,0,.21,0,0.21,0.21,0,0,0,.09-0.25,0.25,0.25,0,0,0-.16-0.13A0.22,0.22,0,0,0,215.63,115.23Z" transform="translate(-22.49 -11.64)"/><path d="M216.18,115.73a0.2,0.2,0,0,0,0,.21,0.19,0.19,0,0,0,.23,0,0.2,0.2,0,0,0,.1-0.25,0.26,0.26,0,0,0-.15-0.11A0.22,0.22,0,0,0,216.18,115.73Z" transform="translate(-22.49 -11.64)"/><path d="M215.67,115.76a0.17,0.17,0,0,0,0,.17,0.2,0.2,0,0,0,.23.1,0.24,0.24,0,0,0,.14-0.17,0.28,0.28,0,0,0-.07-0.16A0.2,0.2,0,0,0,215.67,115.76Z" transform="translate(-22.49 -11.64)"/><path d="M212.49,117.28l0,3.26c0,0.06.07,0,.1,0l2.38,0,3-3.46a0.62,0.62,0,0,0-.44-0.93h-0.07l-5,.05v1.07Z" transform="translate(-22.49 -11.64)"/><path class="cls-20" d="M81.44,195.48a0.51,0.51,0,0,1,.43.3l0,0.14,0,2.42a0.48,0.48,0,0,1-.38.32,0.46,0.46,0,0,1-.36-0.09c-0.07.06-.1-0.07-0.15-0.09l0,0L81,198.27c0-.39,0-0.8,0-1.18l-0.15.13-2,2a0.47,0.47,0,0,1-.47.07,0.51,0.51,0,0,1-.29-0.44,0.56,0.56,0,0,1,.11-0.3l2.18-2.11a0,0,0,0,0,0,0c-0.41,0-.8,0-1.22,0a0.51,0.51,0,0,1-.26-0.11,0.19,0.19,0,0,1,0,.07s-0.12-.09-0.08-0.14a0.48,0.48,0,0,1-.08-0.42,0.56,0.56,0,0,1,.23-0.28l0.17-.05h2.31Z" transform="translate(-22.49 -11.64)"/><path class="cls-21" d="M78.44,199.38a0.51,0.51,0,0,1-.43-0.3l0-.14,0-2.42a0.48,0.48,0,0,1,.37-0.32,0.46,0.46,0,0,1,.36.09c0.07-.06.1,0.07,0.15,0.09l0,0,0.09,0.19c0,0.39,0,.79,0,1.18l0.15-.13,2-2a0.47,0.47,0,0,1,.47-0.06,0.51,0.51,0,0,1,.29.44,0.56,0.56,0,0,1-.11.3l-2.18,2.11a0,0,0,0,0,0,0c0.41,0,.8,0,1.22,0a0.52,0.52,0,0,1,.26.11,0.17,0.17,0,0,1,0-.07s0.12,0.09.08,0.14a0.49,0.49,0,0,1,.08.42,0.56,0.56,0,0,1-.23.28l-0.17.05H78.44Z" transform="translate(-22.49 -11.64)"/><polygon class="cls-16" points="194.92 115.99 172.66 115.83 172.5 87.71 191.88 87.63 155.79 51.81 153.12 54 152.88 73.44 157.11 77.32 157.03 85.05 153.61 88.99 153.61 121.07 156.28 123.5 161.87 123.74 163.93 125.15 189.33 125.68 190.63 124.46 192.89 124.58 192.89 122.47 195 120.52 194.92 115.99"/><path class="cls-17" d="M214.09,159" transform="translate(-22.49 -11.64)"/><text class="cls-22" transform="translate(138.44 253.38)">North</text><circle class="cls-23" cx="155.18" cy="263.43" r="3.01" transform="translate(-163.31 175.25) rotate(-45)"/><path d="M153.31,264.85c0.05-.84.1-1.68,0.18-2.5a0.57,0.57,0,0,1,.39-0.36,0.54,0.54,0,0,1,.55.2,0.53,0.53,0,0,1,.08.38c0,0.29-.06.58-0.09,0.85,0.57-.6,1.19-1.28,1.77-1.84a0.68,0.68,0,0,1,.63,0,0.75,0.75,0,0,1,.27.39,0.66,0.66,0,0,1-.13.49l-1.27,1.25c-0.13.09-.2,0.25-0.34,0.33l-0.1.11c0.43,0.05,1-.31,1.34.08a0.5,0.5,0,0,1,.08.51,0.59,0.59,0,0,1-.23.27l-0.26.06-2.33.23A0.54,0.54,0,0,1,153.31,264.85Z" transform="translate(-22.49 -11.64)"/><circle class="cls-24" cx="59.91" cy="251.79" r="3.01"/><text class="cls-22" transform="translate(65.66 253.17)">Non-public areas</text><circle class="cls-19" cx="129.75" cy="103.28" r="4.64"/><text class="cls-25" transform="translate(125.84 105.59)">10</text><polyline class="cls-26" points="214.28 278.06 155.11 219.3 114.93 219.3 114.93 229.94 107.44 237.47 96.74 237.49 89.25 229.98 89.25 219.2 49.05 219.2 49.07 208.61"/><polyline class="cls-26" points="60.89 218.51 60.89 208.9 49.17 208.9 48.33 208.06 1.4 161.03 1.4 133.54"/><line class="cls-9" x1="1" y1="123.86" x2="1.1" y2="96.47"/><polyline class="cls-9" points="1.36 89.73 1.3 76.38 21.86 76.44"/><polyline class="cls-9" points="21.64 73.17 21.69 67.49 32.19 67.48 32.18 56.69 35.48 53.3"/><polyline class="cls-9" points="36.98 52 38.78 50.3 49.58 50.24 49.51 39.23 59.67 39.2 63.1 35.81"/><line class="cls-9" x1="67.72" y1="31.8" x2="68.96" y2="30.51"/><line class="cls-9" x1="66.66" y1="32.91" x2="67.72" y2="31.8"/><line class="cls-9" x1="137.69" y1="33.37" x2="192.99" y2="88.58"/><line class="cls-9" x1="134.82" y1="30.51" x2="137.69" y2="33.37"/><polyline class="cls-9" points="197.28 92.23 203.05 98.23 203.09 124.65"/><polyline class="cls-26" points="202.69 133.25 202.67 172.5 191.89 172.52 191.81 182.67"/><line class="cls-27" x1="191.76" y1="182.37" x2="221.25" y2="212.06"/><path class="cls-28" d="M124.82,73.05" transform="translate(-22.49 -11.64)"/><path class="cls-9" d="M91.82,41.54c0,0.16,0,.32,0,0.48,0,0.35,0,.69,0,1" transform="translate(-22.49 -11.64)"/><path class="cls-29" d="M91.83,43.67A3.36,3.36,0,0,0,92.64,43a4.48,4.48,0,0,0,.78-0.91" transform="translate(-22.49 -11.64)"/><polyline points="60.56 208.9 60.56 219.48 49.17 219.48 49.17 208.9"/><circle class="cls-19" cx="101.67" cy="32.28" r="4.64"/><text class="cls-25" transform="translate(99.54 34.78)">3</text><circle class="cls-19" cx="124.28" cy="61.52" r="4.64"/><text class="cls-25" transform="translate(122.16 64.14)">4</text><circle class="cls-19" cx="40.83" cy="108.24" r="4.64"/><text class="cls-25" transform="translate(37.05 110.84)">17</text><circle class="cls-19" cx="32.63" cy="158.35" r="4.64"/><text class="cls-25" transform="translate(30.88 160.72)">6</text><circle class="cls-19" cx="81.88" cy="158.84" r="4.64"/><text class="cls-25" transform="translate(80.13 161.2)">7</text><circle class="cls-19" cx="79.92" cy="67.2" r="4.15"/><text class="cls-30" transform="translate(78.17 69.53)">8</text><circle class="cls-19" cx="123.92" cy="161.16" r="4.64"/><text class="cls-25" transform="translate(120.61 163.47)"><tspan class="cls-31">1</tspan><tspan x="2.74" y="0">1</tspan></text><circle class="cls-19" cx="173.27" cy="137.95" r="4.64"/><text class="cls-25" transform="translate(169.68 140.38)">13</text><circle class="cls-19" cx="192.59" cy="208.82" r="4.64"/><text class="cls-25" transform="translate(188.51 211.3)">14</text><circle class="cls-19" cx="73.7" cy="103.28" r="4.64"/><text class="cls-25" transform="translate(71.57 105.75)">5</text><circle class="cls-19" cx="206.89" cy="238.51" r="4.64"/><text class="cls-25" transform="translate(202.88 241.11)">15</text><circle class="cls-32" cx="247.88" cy="271.84" r="4.64"/><text class="cls-25" transform="translate(243.45 274.25) scale(1.04 1)">17</text><circle class="cls-33" cx="230.25" cy="230.65" r="4.64"/><text class="cls-25" transform="translate(225.83 233.06) scale(1.04 1)">16</text><circle class="cls-19" cx="124.16" cy="188.17" r="4.64" transform="translate(-22.98 -11.32) rotate(-0.15)"/><text class="cls-34" transform="translate(95.89 179.16) rotate(-0.15)"><tspan class="cls-35">  </tspan><tspan x="3.8" y="0">1</tspan></text><circle class="cls-19" cx="150.16" cy="207.86" r="4.64" transform="translate(-23.03 -11.25) rotate(-0.15)"/><circle class="cls-19" cx="54.74" cy="63.55" r="4.64"/><text class="cls-25" transform="translate(52.61 65.97)">2</text><text x="-22.49" y="-11.64"/><text x="-22.49" y="-11.64"/><circle class="cls-19" cx="54.89" cy="214.3" r="4.15"/><circle class="cls-19" cx="53.11" cy="127.14" r="4.15"/><line class="cls-7" x1="55.06" y1="122.97" x2="59.27" y2="106.15"/><text class="cls-36" transform="matrix(0.68, 0.68, -0.71, 0.71, 166.96, 224.46)">C</text><text class="cls-36" transform="matrix(0.68, 0.68, -0.71, 0.71, 169.5, 227)">O</text><text class="cls-36" transform="translate(172.22 229.72) rotate(45) scale(0.96 1)">N</text><text class="cls-36" transform="translate(174.76 232.26) rotate(45) scale(0.96 1)">N</text><text class="cls-36" transform="translate(177.3 234.8) rotate(45) scale(0.96 1)">E</text><text class="cls-36" transform="matrix(0.68, 0.68, -0.71, 0.71, 179.47, 236.97)">C</text><text class="cls-36" transform="translate(182 239.5) rotate(45) scale(0.96 1)">T</text><text class="cls-36" transform="matrix(0.68, 0.68, -0.71, 0.71, 183.97, 241.47)">O</text><text class="cls-36" transform="translate(186.69 244.2) rotate(45) scale(0.96 1)">R<tspan x="3.46" y="0"> </tspan><tspan x="4.99" y="0">H</tspan><tspan x="8.71" y="0">A</tspan><tspan x="12.18" y="0">L</tspan><tspan x="15.08" y="0">L</tspan><tspan x="17.99" y="0">W</tspan><tspan x="22.57" y="0">A</tspan><tspan x="26.04" y="0">Y</tspan></text><text class="cls-37" transform="translate(90.61 208.46)">ATRIUM</text><text class="cls-37" transform="translate(89.12 124.19)">CENTRAL<tspan x="-11.78" y="7">COLLABORATION</tspan><tspan x="5.73" y="14">AREA</tspan></text><text class="cls-34" transform="translate(123.49 198.49) rotate(-0.15)">18</text><text class="cls-38" transform="translate(49.77 129.45)">19</text><text class="cls-25" transform="translate(52.76 216.51)">9</text><circle class="cls-19" cx="131.93" cy="143.95" r="4.64"/><text class="cls-25" transform="translate(128.33 146.38)">12</text><rect class="cls-3" x="118.07" y="182.71" width="5.11" height="4.43"/><polyline class="cls-39" points="172.56 116.23 172.75 122.99 181.22 122.97 181.18 125.19"/><polyline class="cls-39" points="181.01 116.36 181.01 120.86 184.01 120.86 184.01 125.36"/><line class="cls-7" x1="137.51" y1="170.86" x2="136.51" y2="170.86"/><polyline class="cls-7" points="140.51 170.86 144.49 170.86 144.43 182.08"/><line class="cls-7" x1="147.38" y1="170.7" x2="152.76" y2="170.7"/><line class="cls-7" x1="151.95" y1="182.62" x2="151.95" y2="170.63"/><line class="cls-7" x1="154.98" y1="170.34" x2="163.92" y2="170.34"/><line class="cls-7" x1="161.61" y1="170.86" x2="168.45" y2="177.48"/><line class="cls-7" x1="163.92" y1="170.34" x2="166.12" y2="168.27"/><line class="cls-7" x1="167.7" y1="166.48" x2="171.62" y2="162.56"/><line class="cls-7" x1="173.33" y1="161.05" x2="177.19" y2="157.2"/><line class="cls-7" x1="178.86" y1="155.39" x2="182.42" y2="151.82"/><line class="cls-7" x1="184.52" y1="146.91" x2="184.52" y2="142.85"/><line class="cls-7" x1="184.45" y1="149.73" x2="190.75" y2="156.03"/><line class="cls-7" x1="185.1" y1="161.2" x2="179.07" y2="155.17"/><line class="cls-7" x1="179.81" y1="166.48" x2="173.86" y2="160.52"/><line class="cls-7" x1="174.48" y1="172.29" x2="168.42" y2="166.23"/><line class="cls-7" x1="12.68" y1="85.63" x2="12.68" y2="87.99"/><line class="cls-7" x1="12.93" y1="93.52" x2="12.93" y2="95.24"/><line class="cls-7" x1="29.74" y1="87.99" x2="29.74" y2="94.83"/><line class="cls-7" x1="37.58" y1="87.24" x2="42.03" y2="87.24"/><line class="cls-7" x1="23" y1="116.84" x2="23" y2="121.12"/><line class="cls-7" x1="20.19" y1="120.6" x2="23" y2="120.6"/><line class="cls-7" x1="20.19" y1="125.44" x2="20.19" y2="120.13"/></svg>